<mxfile host="Electron" modified="2023-04-23T18:46:54.450Z" agent="Mozilla/5.0 (Windows NT 10.0; Win64; x64) AppleWebKit/537.36 (KHTML, like Gecko) draw.io/21.2.1 Chrome/112.0.5615.87 Electron/24.1.2 Safari/537.36" etag="itSIFy_4BwJD-KOdzad-" version="21.2.1" type="device" pages="11">
  <diagram name="Domain models" id="OaTEwmINEcLH29ulZdK_">
    <mxGraphModel dx="1434" dy="956" grid="1" gridSize="10" guides="1" tooltips="1" connect="1" arrows="1" fold="1" page="1" pageScale="1" pageWidth="1169" pageHeight="1654" math="0" shadow="0">
      <root>
        <mxCell id="0" />
        <mxCell id="1" parent="0" />
        <mxCell id="PrFUWlkEyL-LDRet85R_-5" value="Book" style="swimlane;childLayout=stackLayout;horizontal=1;startSize=50;horizontalStack=0;rounded=1;fontSize=14;fontStyle=0;strokeWidth=2;resizeParent=0;resizeLast=1;shadow=0;dashed=0;align=center;arcSize=4;whiteSpace=wrap;html=1;" parent="1" vertex="1">
          <mxGeometry x="280" y="40" width="160" height="200" as="geometry" />
        </mxCell>
        <mxCell id="PrFUWlkEyL-LDRet85R_-6" value="ID&lt;br&gt;Name&lt;br&gt;Year&lt;br&gt;AuthorID&lt;br&gt;GenreID&lt;br&gt;Keywords&lt;br&gt;Comments&lt;br&gt;Details" style="align=left;strokeColor=none;fillColor=none;spacingLeft=4;fontSize=12;verticalAlign=top;resizable=0;rotatable=0;part=1;html=1;" parent="PrFUWlkEyL-LDRet85R_-5" vertex="1">
          <mxGeometry y="50" width="160" height="150" as="geometry" />
        </mxCell>
        <mxCell id="PrFUWlkEyL-LDRet85R_-8" value="Author" style="swimlane;childLayout=stackLayout;horizontal=1;startSize=50;horizontalStack=0;rounded=1;fontSize=14;fontStyle=0;strokeWidth=2;resizeParent=0;resizeLast=1;shadow=0;dashed=0;align=center;arcSize=4;whiteSpace=wrap;html=1;" parent="1" vertex="1">
          <mxGeometry x="40" y="40" width="160" height="100" as="geometry" />
        </mxCell>
        <mxCell id="PrFUWlkEyL-LDRet85R_-9" value="ID&lt;br&gt;Name" style="align=left;strokeColor=none;fillColor=none;spacingLeft=4;fontSize=12;verticalAlign=top;resizable=0;rotatable=0;part=1;html=1;" parent="PrFUWlkEyL-LDRet85R_-8" vertex="1">
          <mxGeometry y="50" width="160" height="50" as="geometry" />
        </mxCell>
        <mxCell id="PrFUWlkEyL-LDRet85R_-11" value="Genre" style="swimlane;childLayout=stackLayout;horizontal=1;startSize=50;horizontalStack=0;rounded=1;fontSize=14;fontStyle=0;strokeWidth=2;resizeParent=0;resizeLast=1;shadow=0;dashed=0;align=center;arcSize=4;whiteSpace=wrap;html=1;" parent="1" vertex="1">
          <mxGeometry x="40" y="160" width="160" height="100" as="geometry" />
        </mxCell>
        <mxCell id="PrFUWlkEyL-LDRet85R_-12" value="ID&lt;br&gt;Name" style="align=left;strokeColor=none;fillColor=none;spacingLeft=4;fontSize=12;verticalAlign=top;resizable=0;rotatable=0;part=1;html=1;" parent="PrFUWlkEyL-LDRet85R_-11" vertex="1">
          <mxGeometry y="50" width="160" height="50" as="geometry" />
        </mxCell>
        <mxCell id="PrFUWlkEyL-LDRet85R_-13" value="" style="edgeStyle=entityRelationEdgeStyle;fontSize=12;html=1;endArrow=ERmandOne;rounded=0;entryX=1;entryY=0;entryDx=0;entryDy=0;exitX=0;exitY=0;exitDx=0;exitDy=0;" parent="1" source="PrFUWlkEyL-LDRet85R_-6" target="PrFUWlkEyL-LDRet85R_-9" edge="1">
          <mxGeometry width="100" height="100" relative="1" as="geometry">
            <mxPoint x="350" y="120" as="sourcePoint" />
            <mxPoint x="240" y="130" as="targetPoint" />
          </mxGeometry>
        </mxCell>
        <mxCell id="PrFUWlkEyL-LDRet85R_-14" value="" style="edgeStyle=entityRelationEdgeStyle;fontSize=12;html=1;endArrow=ERmandOne;rounded=0;entryX=1;entryY=0.25;entryDx=0;entryDy=0;exitX=0;exitY=0.25;exitDx=0;exitDy=0;" parent="1" source="PrFUWlkEyL-LDRet85R_-6" target="PrFUWlkEyL-LDRet85R_-11" edge="1">
          <mxGeometry width="100" height="100" relative="1" as="geometry">
            <mxPoint x="370" y="128" as="sourcePoint" />
            <mxPoint x="240" y="190" as="targetPoint" />
          </mxGeometry>
        </mxCell>
        <mxCell id="PrFUWlkEyL-LDRet85R_-15" value="Key Word" style="swimlane;childLayout=stackLayout;horizontal=1;startSize=50;horizontalStack=0;rounded=1;fontSize=14;fontStyle=0;strokeWidth=2;resizeParent=0;resizeLast=1;shadow=0;dashed=0;align=center;arcSize=4;whiteSpace=wrap;html=1;" parent="1" vertex="1">
          <mxGeometry x="40" y="280" width="160" height="80" as="geometry" />
        </mxCell>
        <mxCell id="PrFUWlkEyL-LDRet85R_-16" value="value" style="align=left;strokeColor=none;fillColor=none;spacingLeft=4;fontSize=12;verticalAlign=top;resizable=0;rotatable=0;part=1;html=1;" parent="PrFUWlkEyL-LDRet85R_-15" vertex="1">
          <mxGeometry y="50" width="160" height="30" as="geometry" />
        </mxCell>
        <mxCell id="PrFUWlkEyL-LDRet85R_-18" value="" style="edgeStyle=entityRelationEdgeStyle;fontSize=12;html=1;endArrow=ERoneToMany;startArrow=ERzeroToOne;rounded=0;entryX=1;entryY=0.25;entryDx=0;entryDy=0;exitX=0;exitY=0.5;exitDx=0;exitDy=0;" parent="1" source="PrFUWlkEyL-LDRet85R_-6" target="PrFUWlkEyL-LDRet85R_-15" edge="1">
          <mxGeometry width="100" height="100" relative="1" as="geometry">
            <mxPoint x="390" y="190" as="sourcePoint" />
            <mxPoint x="740" y="310" as="targetPoint" />
          </mxGeometry>
        </mxCell>
        <mxCell id="PrFUWlkEyL-LDRet85R_-19" value="Comment" style="swimlane;childLayout=stackLayout;horizontal=1;startSize=50;horizontalStack=0;rounded=1;fontSize=14;fontStyle=0;strokeWidth=2;resizeParent=0;resizeLast=1;shadow=0;dashed=0;align=center;arcSize=4;whiteSpace=wrap;html=1;" parent="1" vertex="1">
          <mxGeometry x="40" y="400" width="160" height="130" as="geometry" />
        </mxCell>
        <mxCell id="PrFUWlkEyL-LDRet85R_-20" value="ID&lt;br&gt;BookID&lt;br&gt;ParentCommentID&lt;br&gt;Text" style="align=left;strokeColor=none;fillColor=none;spacingLeft=4;fontSize=12;verticalAlign=top;resizable=0;rotatable=0;part=1;html=1;" parent="PrFUWlkEyL-LDRet85R_-19" vertex="1">
          <mxGeometry y="50" width="160" height="80" as="geometry" />
        </mxCell>
        <mxCell id="PrFUWlkEyL-LDRet85R_-38" style="edgeStyle=orthogonalEdgeStyle;rounded=0;orthogonalLoop=1;jettySize=auto;html=1;exitX=0;exitY=0.25;exitDx=0;exitDy=0;entryX=0.5;entryY=1;entryDx=0;entryDy=0;" parent="PrFUWlkEyL-LDRet85R_-19" source="PrFUWlkEyL-LDRet85R_-20" target="PrFUWlkEyL-LDRet85R_-20" edge="1">
          <mxGeometry relative="1" as="geometry" />
        </mxCell>
        <mxCell id="PrFUWlkEyL-LDRet85R_-22" value="" style="edgeStyle=entityRelationEdgeStyle;fontSize=12;html=1;endArrow=ERoneToMany;startArrow=ERzeroToOne;rounded=0;entryX=1;entryY=0.25;entryDx=0;entryDy=0;exitX=0;exitY=0.75;exitDx=0;exitDy=0;" parent="1" source="PrFUWlkEyL-LDRet85R_-6" target="PrFUWlkEyL-LDRet85R_-19" edge="1">
          <mxGeometry width="100" height="100" relative="1" as="geometry">
            <mxPoint x="590" y="330" as="sourcePoint" />
            <mxPoint x="670" y="432" as="targetPoint" />
          </mxGeometry>
        </mxCell>
        <mxCell id="PrFUWlkEyL-LDRet85R_-23" value="User" style="swimlane;childLayout=stackLayout;horizontal=1;startSize=50;horizontalStack=0;rounded=1;fontSize=14;fontStyle=0;strokeWidth=2;resizeParent=0;resizeLast=1;shadow=0;dashed=0;align=center;arcSize=4;whiteSpace=wrap;html=1;" parent="1" vertex="1">
          <mxGeometry x="960" y="200" width="160" height="160" as="geometry" />
        </mxCell>
        <mxCell id="PrFUWlkEyL-LDRet85R_-24" value="ID&lt;br&gt;User Info&lt;br&gt;Password&lt;br&gt;RoleIDs" style="align=left;strokeColor=none;fillColor=none;spacingLeft=4;fontSize=12;verticalAlign=top;resizable=0;rotatable=0;part=1;html=1;" parent="PrFUWlkEyL-LDRet85R_-23" vertex="1">
          <mxGeometry y="50" width="160" height="110" as="geometry" />
        </mxCell>
        <mxCell id="PrFUWlkEyL-LDRet85R_-25" value="User Role" style="swimlane;childLayout=stackLayout;horizontal=1;startSize=50;horizontalStack=0;rounded=1;fontSize=14;fontStyle=0;strokeWidth=2;resizeParent=0;resizeLast=1;shadow=0;dashed=0;align=center;arcSize=4;whiteSpace=wrap;html=1;" parent="1" vertex="1">
          <mxGeometry x="960" y="40" width="160" height="100" as="geometry" />
        </mxCell>
        <mxCell id="PrFUWlkEyL-LDRet85R_-26" value="Name" style="align=left;strokeColor=none;fillColor=none;spacingLeft=4;fontSize=12;verticalAlign=top;resizable=0;rotatable=0;part=1;html=1;" parent="PrFUWlkEyL-LDRet85R_-25" vertex="1">
          <mxGeometry y="50" width="160" height="50" as="geometry" />
        </mxCell>
        <mxCell id="PrFUWlkEyL-LDRet85R_-27" value="" style="edgeStyle=orthogonalEdgeStyle;fontSize=12;html=1;endArrow=ERoneToMany;startArrow=ERmandOne;rounded=0;entryX=1;entryY=0.5;entryDx=0;entryDy=0;exitX=1;exitY=0.25;exitDx=0;exitDy=0;" parent="1" source="PrFUWlkEyL-LDRet85R_-23" target="PrFUWlkEyL-LDRet85R_-26" edge="1">
          <mxGeometry width="100" height="100" relative="1" as="geometry">
            <mxPoint x="1120" y="320" as="sourcePoint" />
            <mxPoint x="800" y="450" as="targetPoint" />
            <Array as="points">
              <mxPoint x="1150" y="240" />
              <mxPoint x="1150" y="115" />
            </Array>
          </mxGeometry>
        </mxCell>
        <mxCell id="PrFUWlkEyL-LDRet85R_-28" value="Priced Book" style="swimlane;childLayout=stackLayout;horizontal=1;startSize=50;horizontalStack=0;rounded=1;fontSize=14;fontStyle=0;strokeWidth=2;resizeParent=0;resizeLast=1;shadow=0;dashed=0;align=center;arcSize=4;whiteSpace=wrap;html=1;" parent="1" vertex="1">
          <mxGeometry x="520" y="40" width="160" height="120" as="geometry" />
        </mxCell>
        <mxCell id="PrFUWlkEyL-LDRet85R_-29" value="ID&lt;br&gt;BookID&lt;br&gt;Price" style="align=left;strokeColor=none;fillColor=none;spacingLeft=4;fontSize=12;verticalAlign=top;resizable=0;rotatable=0;part=1;html=1;" parent="PrFUWlkEyL-LDRet85R_-28" vertex="1">
          <mxGeometry y="50" width="160" height="70" as="geometry" />
        </mxCell>
        <mxCell id="PrFUWlkEyL-LDRet85R_-30" value="Cart Item" style="swimlane;childLayout=stackLayout;horizontal=1;startSize=50;horizontalStack=0;rounded=1;fontSize=14;fontStyle=0;strokeWidth=2;resizeParent=0;resizeLast=1;shadow=0;dashed=0;align=center;arcSize=4;whiteSpace=wrap;html=1;" parent="1" vertex="1">
          <mxGeometry x="760" y="40" width="160" height="120" as="geometry" />
        </mxCell>
        <mxCell id="PrFUWlkEyL-LDRet85R_-31" value="PricedBookID&lt;br&gt;Quantity" style="align=left;strokeColor=none;fillColor=none;spacingLeft=4;fontSize=12;verticalAlign=top;resizable=0;rotatable=0;part=1;html=1;" parent="PrFUWlkEyL-LDRet85R_-30" vertex="1">
          <mxGeometry y="50" width="160" height="70" as="geometry" />
        </mxCell>
        <mxCell id="PrFUWlkEyL-LDRet85R_-32" value="Cart" style="swimlane;childLayout=stackLayout;horizontal=1;startSize=50;horizontalStack=0;rounded=1;fontSize=14;fontStyle=0;strokeWidth=2;resizeParent=0;resizeLast=1;shadow=0;dashed=0;align=center;arcSize=4;whiteSpace=wrap;html=1;" parent="1" vertex="1">
          <mxGeometry x="757.5" y="200" width="165" height="100" as="geometry" />
        </mxCell>
        <mxCell id="PrFUWlkEyL-LDRet85R_-33" value="CartItems&lt;br&gt;CustomerID" style="align=left;strokeColor=none;fillColor=none;spacingLeft=4;fontSize=12;verticalAlign=top;resizable=0;rotatable=0;part=1;html=1;" parent="PrFUWlkEyL-LDRet85R_-32" vertex="1">
          <mxGeometry y="50" width="165" height="50" as="geometry" />
        </mxCell>
        <mxCell id="PrFUWlkEyL-LDRet85R_-35" value="" style="edgeStyle=entityRelationEdgeStyle;fontSize=12;html=1;endArrow=ERoneToMany;startArrow=ERzeroToOne;rounded=0;entryX=0;entryY=0.25;entryDx=0;entryDy=0;exitX=1;exitY=0.25;exitDx=0;exitDy=0;" parent="1" source="PrFUWlkEyL-LDRet85R_-28" target="PrFUWlkEyL-LDRet85R_-30" edge="1">
          <mxGeometry width="100" height="100" relative="1" as="geometry">
            <mxPoint x="640" y="290" as="sourcePoint" />
            <mxPoint x="740" y="190" as="targetPoint" />
          </mxGeometry>
        </mxCell>
        <mxCell id="PrFUWlkEyL-LDRet85R_-40" value="" style="edgeStyle=orthogonalEdgeStyle;fontSize=12;html=1;endArrow=ERoneToMany;startArrow=ERmandOne;rounded=0;entryX=1;entryY=0.25;entryDx=0;entryDy=0;exitX=1;exitY=0.25;exitDx=0;exitDy=0;" parent="1" source="PrFUWlkEyL-LDRet85R_-32" target="PrFUWlkEyL-LDRet85R_-30" edge="1">
          <mxGeometry width="100" height="100" relative="1" as="geometry">
            <mxPoint x="930" y="270" as="sourcePoint" />
            <mxPoint x="730" y="170" as="targetPoint" />
            <Array as="points">
              <mxPoint x="950" y="225" />
              <mxPoint x="950" y="70" />
            </Array>
          </mxGeometry>
        </mxCell>
        <mxCell id="PrFUWlkEyL-LDRet85R_-43" value="" style="edgeStyle=entityRelationEdgeStyle;fontSize=12;html=1;endArrow=ERoneToMany;startArrow=ERzeroToOne;rounded=0;entryX=0;entryY=0.25;entryDx=0;entryDy=0;" parent="1" source="PrFUWlkEyL-LDRet85R_-6" target="PrFUWlkEyL-LDRet85R_-28" edge="1">
          <mxGeometry width="100" height="100" relative="1" as="geometry">
            <mxPoint x="440" y="340" as="sourcePoint" />
            <mxPoint x="540" y="240" as="targetPoint" />
          </mxGeometry>
        </mxCell>
        <mxCell id="PrFUWlkEyL-LDRet85R_-45" value="Order" style="swimlane;childLayout=stackLayout;horizontal=1;startSize=50;horizontalStack=0;rounded=1;fontSize=14;fontStyle=0;strokeWidth=2;resizeParent=0;resizeLast=1;shadow=0;dashed=0;align=center;arcSize=4;whiteSpace=wrap;html=1;" parent="1" vertex="1">
          <mxGeometry x="720" y="520" width="160" height="240" as="geometry" />
        </mxCell>
        <mxCell id="PrFUWlkEyL-LDRet85R_-46" value="ID&lt;br&gt;OrderDate&lt;br&gt;CustomerID&lt;br&gt;DeliveryID&lt;br&gt;Shipping Address&lt;br&gt;Payment Type&lt;br&gt;Shippment Supplier&lt;br&gt;Testing&lt;br&gt;Total Order sum&lt;br&gt;Order status" style="align=left;strokeColor=none;fillColor=none;spacingLeft=4;fontSize=12;verticalAlign=top;resizable=0;rotatable=0;part=1;html=1;" parent="PrFUWlkEyL-LDRet85R_-45" vertex="1">
          <mxGeometry y="50" width="160" height="190" as="geometry" />
        </mxCell>
        <mxCell id="PrFUWlkEyL-LDRet85R_-47" value="Order Item" style="swimlane;childLayout=stackLayout;horizontal=1;startSize=50;horizontalStack=0;rounded=1;fontSize=14;fontStyle=0;strokeWidth=2;resizeParent=0;resizeLast=1;shadow=0;dashed=0;align=center;arcSize=4;whiteSpace=wrap;html=1;" parent="1" vertex="1">
          <mxGeometry x="720" y="360" width="160" height="100" as="geometry" />
        </mxCell>
        <mxCell id="PrFUWlkEyL-LDRet85R_-48" value="PricedBookID&lt;br style=&quot;border-color: var(--border-color);&quot;&gt;Quantity" style="align=left;strokeColor=none;fillColor=none;spacingLeft=4;fontSize=12;verticalAlign=top;resizable=0;rotatable=0;part=1;html=1;" parent="PrFUWlkEyL-LDRet85R_-47" vertex="1">
          <mxGeometry y="50" width="160" height="50" as="geometry" />
        </mxCell>
        <mxCell id="PrFUWlkEyL-LDRet85R_-53" value="Customer" style="swimlane;childLayout=stackLayout;horizontal=1;startSize=50;horizontalStack=0;rounded=1;fontSize=14;fontStyle=0;strokeWidth=2;resizeParent=0;resizeLast=1;shadow=0;dashed=0;align=center;arcSize=4;whiteSpace=wrap;html=1;" parent="1" vertex="1">
          <mxGeometry x="960" y="400" width="160" height="160" as="geometry" />
        </mxCell>
        <mxCell id="PrFUWlkEyL-LDRet85R_-54" value="UserID&lt;br&gt;Shipping Address" style="align=left;strokeColor=none;fillColor=none;spacingLeft=4;fontSize=12;verticalAlign=top;resizable=0;rotatable=0;part=1;html=1;" parent="PrFUWlkEyL-LDRet85R_-53" vertex="1">
          <mxGeometry y="50" width="160" height="110" as="geometry" />
        </mxCell>
        <mxCell id="PrFUWlkEyL-LDRet85R_-55" value="" style="edgeStyle=entityRelationEdgeStyle;fontSize=12;html=1;endArrow=ERzeroToOne;endFill=1;rounded=0;entryX=1;entryY=0.25;entryDx=0;entryDy=0;exitX=1;exitY=0.25;exitDx=0;exitDy=0;" parent="1" source="PrFUWlkEyL-LDRet85R_-24" target="PrFUWlkEyL-LDRet85R_-53" edge="1">
          <mxGeometry width="100" height="100" relative="1" as="geometry">
            <mxPoint x="810" y="480" as="sourcePoint" />
            <mxPoint x="910" y="380" as="targetPoint" />
          </mxGeometry>
        </mxCell>
        <mxCell id="PrFUWlkEyL-LDRet85R_-56" value="" style="edgeStyle=orthogonalEdgeStyle;fontSize=12;html=1;endArrow=ERoneToMany;startArrow=ERmandOne;rounded=0;entryX=1;entryY=0.25;entryDx=0;entryDy=0;" parent="1" source="PrFUWlkEyL-LDRet85R_-45" target="PrFUWlkEyL-LDRet85R_-47" edge="1">
          <mxGeometry width="100" height="100" relative="1" as="geometry">
            <mxPoint x="923" y="570" as="sourcePoint" />
            <mxPoint x="920" y="415" as="targetPoint" />
            <Array as="points">
              <mxPoint x="920" y="550" />
              <mxPoint x="920" y="385" />
            </Array>
          </mxGeometry>
        </mxCell>
        <mxCell id="PrFUWlkEyL-LDRet85R_-57" value="" style="edgeStyle=entityRelationEdgeStyle;fontSize=12;html=1;endArrow=ERoneToMany;startArrow=ERzeroToOne;rounded=0;exitX=0;exitY=0.75;exitDx=0;exitDy=0;entryX=1;entryY=0.75;entryDx=0;entryDy=0;" parent="1" source="PrFUWlkEyL-LDRet85R_-54" target="PrFUWlkEyL-LDRet85R_-46" edge="1">
          <mxGeometry width="100" height="100" relative="1" as="geometry">
            <mxPoint x="970" y="440" as="sourcePoint" />
            <mxPoint x="810" y="440" as="targetPoint" />
          </mxGeometry>
        </mxCell>
        <mxCell id="PrFUWlkEyL-LDRet85R_-58" value="Delivery" style="swimlane;childLayout=stackLayout;horizontal=1;startSize=50;horizontalStack=0;rounded=1;fontSize=14;fontStyle=0;strokeWidth=2;resizeParent=0;resizeLast=1;shadow=0;dashed=0;align=center;arcSize=4;whiteSpace=wrap;html=1;" parent="1" vertex="1">
          <mxGeometry x="480" y="520" width="160" height="200" as="geometry" />
        </mxCell>
        <mxCell id="PrFUWlkEyL-LDRet85R_-59" value="ID&lt;br&gt;CustomerID&lt;br&gt;Shipping Address&lt;br&gt;Payment Status&lt;br&gt;Shippment Supplier&lt;br&gt;Testing&lt;br&gt;Delivery status" style="align=left;strokeColor=none;fillColor=none;spacingLeft=4;fontSize=12;verticalAlign=top;resizable=0;rotatable=0;part=1;html=1;" parent="PrFUWlkEyL-LDRet85R_-58" vertex="1">
          <mxGeometry y="50" width="160" height="150" as="geometry" />
        </mxCell>
        <mxCell id="PrFUWlkEyL-LDRet85R_-60" value="" style="edgeStyle=entityRelationEdgeStyle;fontSize=12;html=1;endArrow=ERmandOne;startArrow=ERmandOne;rounded=0;entryX=0;entryY=0;entryDx=0;entryDy=0;exitX=1;exitY=0.25;exitDx=0;exitDy=0;" parent="1" source="PrFUWlkEyL-LDRet85R_-59" target="PrFUWlkEyL-LDRet85R_-46" edge="1">
          <mxGeometry width="100" height="100" relative="1" as="geometry">
            <mxPoint x="640" y="900" as="sourcePoint" />
            <mxPoint x="740" y="800" as="targetPoint" />
          </mxGeometry>
        </mxCell>
        <mxCell id="dcnsVdd98yAVF1H0RKS4-1" value="Delivery Item" style="swimlane;childLayout=stackLayout;horizontal=1;startSize=50;horizontalStack=0;rounded=1;fontSize=14;fontStyle=0;strokeWidth=2;resizeParent=0;resizeLast=1;shadow=0;dashed=0;align=center;arcSize=4;whiteSpace=wrap;html=1;" parent="1" vertex="1">
          <mxGeometry x="480" y="360" width="160" height="100" as="geometry" />
        </mxCell>
        <mxCell id="dcnsVdd98yAVF1H0RKS4-2" value="BookID&lt;br style=&quot;border-color: var(--border-color);&quot;&gt;Quantity" style="align=left;strokeColor=none;fillColor=none;spacingLeft=4;fontSize=12;verticalAlign=top;resizable=0;rotatable=0;part=1;html=1;" parent="dcnsVdd98yAVF1H0RKS4-1" vertex="1">
          <mxGeometry y="50" width="160" height="50" as="geometry" />
        </mxCell>
        <mxCell id="dcnsVdd98yAVF1H0RKS4-3" value="" style="edgeStyle=orthogonalEdgeStyle;fontSize=12;html=1;endArrow=ERoneToMany;startArrow=ERmandOne;rounded=0;entryX=1;entryY=0.25;entryDx=0;entryDy=0;exitX=1;exitY=0;exitDx=0;exitDy=0;" parent="1" source="PrFUWlkEyL-LDRet85R_-59" target="dcnsVdd98yAVF1H0RKS4-1" edge="1">
          <mxGeometry width="100" height="100" relative="1" as="geometry">
            <mxPoint x="640" y="530" as="sourcePoint" />
            <mxPoint x="890" y="395" as="targetPoint" />
            <Array as="points">
              <mxPoint x="680" y="570" />
              <mxPoint x="680" y="385" />
            </Array>
          </mxGeometry>
        </mxCell>
        <mxCell id="WoGAt-p7Qa03njD8A-Px-1" value="Analytic Item" style="swimlane;childLayout=stackLayout;horizontal=1;startSize=50;horizontalStack=0;rounded=1;fontSize=14;fontStyle=0;strokeWidth=2;resizeParent=0;resizeLast=1;shadow=0;dashed=0;align=center;arcSize=4;whiteSpace=wrap;html=1;" parent="1" vertex="1">
          <mxGeometry x="480" y="760" width="160" height="190" as="geometry" />
        </mxCell>
        <mxCell id="WoGAt-p7Qa03njD8A-Px-2" value="PricedBookID &lt;br&gt;Quantity&lt;br style=&quot;border-color: var(--border-color);&quot;&gt;OrderID (Aggregation)&lt;br&gt;OrderDate&lt;br&gt;PaymentType&lt;br&gt;Total Order Sum&lt;br&gt;Testing&lt;br&gt;Odrer Status" style="align=left;strokeColor=none;fillColor=none;spacingLeft=4;fontSize=12;verticalAlign=top;resizable=0;rotatable=0;part=1;html=1;" parent="WoGAt-p7Qa03njD8A-Px-1" vertex="1">
          <mxGeometry y="50" width="160" height="140" as="geometry" />
        </mxCell>
        <mxCell id="h7w8q1KqKPrGDaVFLU1C-1" value="Warehouse Item" style="swimlane;childLayout=stackLayout;horizontal=1;startSize=50;horizontalStack=0;rounded=1;fontSize=14;fontStyle=0;strokeWidth=2;resizeParent=0;resizeLast=1;shadow=0;dashed=0;align=center;arcSize=4;whiteSpace=wrap;html=1;" parent="1" vertex="1">
          <mxGeometry x="40" y="600" width="160" height="120" as="geometry" />
        </mxCell>
        <mxCell id="h7w8q1KqKPrGDaVFLU1C-2" value="ID&lt;br&gt;BookID&lt;br&gt;Quantity" style="align=left;strokeColor=none;fillColor=none;spacingLeft=4;fontSize=12;verticalAlign=top;resizable=0;rotatable=0;part=1;html=1;" parent="h7w8q1KqKPrGDaVFLU1C-1" vertex="1">
          <mxGeometry y="50" width="160" height="70" as="geometry" />
        </mxCell>
        <mxCell id="h7w8q1KqKPrGDaVFLU1C-4" value="" style="edgeStyle=orthogonalEdgeStyle;fontSize=12;html=1;endArrow=ERmandOne;rounded=0;entryX=0.25;entryY=1;entryDx=0;entryDy=0;exitX=1;exitY=0.25;exitDx=0;exitDy=0;" parent="1" source="h7w8q1KqKPrGDaVFLU1C-1" target="PrFUWlkEyL-LDRet85R_-6" edge="1">
          <mxGeometry width="100" height="100" relative="1" as="geometry">
            <mxPoint x="260" y="500" as="sourcePoint" />
            <mxPoint x="360" y="400" as="targetPoint" />
          </mxGeometry>
        </mxCell>
        <mxCell id="h7w8q1KqKPrGDaVFLU1C-5" value="" style="edgeStyle=orthogonalEdgeStyle;fontSize=12;html=1;endArrow=ERmany;startArrow=ERmany;rounded=0;exitX=-0.019;exitY=0.207;exitDx=0;exitDy=0;exitPerimeter=0;entryX=0.25;entryY=1;entryDx=0;entryDy=0;" parent="1" source="WoGAt-p7Qa03njD8A-Px-2" target="PrFUWlkEyL-LDRet85R_-29" edge="1">
          <mxGeometry width="100" height="100" relative="1" as="geometry">
            <mxPoint x="570" y="530" as="sourcePoint" />
            <mxPoint x="550" y="190" as="targetPoint" />
            <Array as="points">
              <mxPoint x="440" y="839" />
              <mxPoint x="440" y="280" />
              <mxPoint x="560" y="280" />
            </Array>
          </mxGeometry>
        </mxCell>
        <mxCell id="SbvoxrAVaE0Pn25d-lSj-1" value="&lt;h1&gt;Data Model&lt;/h1&gt;" style="text;html=1;strokeColor=none;fillColor=none;spacing=5;spacingTop=-20;whiteSpace=wrap;overflow=hidden;rounded=0;" vertex="1" parent="1">
          <mxGeometry x="40" y="1040" width="650" height="50" as="geometry" />
        </mxCell>
      </root>
    </mxGraphModel>
  </diagram>
  <diagram id="EbObgDhVQDn8OJcDHb_3" name="Bounded Context">
    <mxGraphModel dx="1434" dy="956" grid="1" gridSize="10" guides="1" tooltips="1" connect="1" arrows="1" fold="1" page="1" pageScale="1" pageWidth="1169" pageHeight="1654" math="0" shadow="0">
      <root>
        <mxCell id="0" />
        <mxCell id="1" parent="0" />
        <mxCell id="I_jMFjRN5UKc5youTHJK-2" value="" style="rounded=1;arcSize=10;whiteSpace=wrap;html=1;align=center;dashed=1;fillColor=#d5e8d4;strokeColor=#82b366;" parent="1" vertex="1">
          <mxGeometry x="680" y="200" width="460" height="360" as="geometry" />
        </mxCell>
        <mxCell id="3rU9WJzuj6vpkD7zED3n-41" value="" style="rounded=1;arcSize=10;whiteSpace=wrap;html=1;align=center;dashed=1;fillColor=#dae8fc;strokeColor=#6c8ebf;" parent="1" vertex="1">
          <mxGeometry x="50" y="50" width="590" height="350" as="geometry" />
        </mxCell>
        <mxCell id="3rU9WJzuj6vpkD7zED3n-33" style="edgeStyle=orthogonalEdgeStyle;rounded=0;orthogonalLoop=1;jettySize=auto;html=1;exitX=1;exitY=0.5;exitDx=0;exitDy=0;entryX=0;entryY=0.5;entryDx=0;entryDy=0;" parent="1" source="3rU9WJzuj6vpkD7zED3n-25" target="3rU9WJzuj6vpkD7zED3n-31" edge="1">
          <mxGeometry relative="1" as="geometry" />
        </mxCell>
        <mxCell id="3rU9WJzuj6vpkD7zED3n-25" value="Author" style="rounded=1;arcSize=10;whiteSpace=wrap;html=1;align=center;" parent="1" vertex="1">
          <mxGeometry x="70" y="90" width="100" height="40" as="geometry" />
        </mxCell>
        <mxCell id="3rU9WJzuj6vpkD7zED3n-34" style="rounded=0;orthogonalLoop=1;jettySize=auto;html=1;exitX=1;exitY=0.5;exitDx=0;exitDy=0;entryX=0.25;entryY=1;entryDx=0;entryDy=0;edgeStyle=orthogonalEdgeStyle;" parent="1" source="3rU9WJzuj6vpkD7zED3n-28" target="3rU9WJzuj6vpkD7zED3n-31" edge="1">
          <mxGeometry relative="1" as="geometry" />
        </mxCell>
        <mxCell id="3rU9WJzuj6vpkD7zED3n-28" value="Genre" style="rounded=1;arcSize=10;whiteSpace=wrap;html=1;align=center;" parent="1" vertex="1">
          <mxGeometry x="70" y="170" width="100" height="40" as="geometry" />
        </mxCell>
        <mxCell id="3rU9WJzuj6vpkD7zED3n-35" style="rounded=0;orthogonalLoop=1;jettySize=auto;html=1;exitX=1;exitY=0.5;exitDx=0;exitDy=0;edgeStyle=orthogonalEdgeStyle;" parent="1" source="3rU9WJzuj6vpkD7zED3n-29" edge="1">
          <mxGeometry relative="1" as="geometry">
            <mxPoint x="260" y="130" as="targetPoint" />
          </mxGeometry>
        </mxCell>
        <mxCell id="3rU9WJzuj6vpkD7zED3n-29" value="Key Word" style="rounded=1;arcSize=10;whiteSpace=wrap;html=1;align=center;" parent="1" vertex="1">
          <mxGeometry x="70" y="250" width="100" height="40" as="geometry" />
        </mxCell>
        <mxCell id="3rU9WJzuj6vpkD7zED3n-36" style="rounded=0;orthogonalLoop=1;jettySize=auto;html=1;exitX=1;exitY=0.5;exitDx=0;exitDy=0;entryX=0.75;entryY=1;entryDx=0;entryDy=0;edgeStyle=orthogonalEdgeStyle;" parent="1" source="3rU9WJzuj6vpkD7zED3n-30" target="3rU9WJzuj6vpkD7zED3n-31" edge="1">
          <mxGeometry relative="1" as="geometry" />
        </mxCell>
        <mxCell id="3rU9WJzuj6vpkD7zED3n-30" value="Comment" style="rounded=1;arcSize=10;whiteSpace=wrap;html=1;align=center;" parent="1" vertex="1">
          <mxGeometry x="70" y="330" width="100" height="40" as="geometry" />
        </mxCell>
        <mxCell id="3rU9WJzuj6vpkD7zED3n-37" style="edgeStyle=orthogonalEdgeStyle;rounded=0;orthogonalLoop=1;jettySize=auto;html=1;exitX=1;exitY=0.5;exitDx=0;exitDy=0;entryX=0.5;entryY=0;entryDx=0;entryDy=0;" parent="1" source="3rU9WJzuj6vpkD7zED3n-31" target="3rU9WJzuj6vpkD7zED3n-32" edge="1">
          <mxGeometry relative="1" as="geometry" />
        </mxCell>
        <mxCell id="3rU9WJzuj6vpkD7zED3n-31" value="Book" style="rounded=1;arcSize=10;whiteSpace=wrap;html=1;align=center;" parent="1" vertex="1">
          <mxGeometry x="210" y="90" width="100" height="40" as="geometry" />
        </mxCell>
        <mxCell id="H-GJVi_p43uNYEBqbthm-6" style="edgeStyle=orthogonalEdgeStyle;rounded=0;orthogonalLoop=1;jettySize=auto;html=1;exitX=0.5;exitY=1;exitDx=0;exitDy=0;entryX=0.5;entryY=0;entryDx=0;entryDy=0;" parent="1" source="3rU9WJzuj6vpkD7zED3n-32" target="3rU9WJzuj6vpkD7zED3n-38" edge="1">
          <mxGeometry relative="1" as="geometry" />
        </mxCell>
        <mxCell id="3rU9WJzuj6vpkD7zED3n-32" value="Priced Book" style="rounded=1;arcSize=10;whiteSpace=wrap;html=1;align=center;" parent="1" vertex="1">
          <mxGeometry x="330" y="170" width="100" height="40" as="geometry" />
        </mxCell>
        <mxCell id="H-GJVi_p43uNYEBqbthm-5" style="edgeStyle=orthogonalEdgeStyle;rounded=0;orthogonalLoop=1;jettySize=auto;html=1;exitX=0.5;exitY=1;exitDx=0;exitDy=0;entryX=0;entryY=0.5;entryDx=0;entryDy=0;" parent="1" source="3rU9WJzuj6vpkD7zED3n-38" target="3rU9WJzuj6vpkD7zED3n-39" edge="1">
          <mxGeometry relative="1" as="geometry" />
        </mxCell>
        <mxCell id="3rU9WJzuj6vpkD7zED3n-38" value="Cart Item" style="rounded=1;arcSize=10;whiteSpace=wrap;html=1;align=center;" parent="1" vertex="1">
          <mxGeometry x="330" y="250" width="100" height="40" as="geometry" />
        </mxCell>
        <mxCell id="b-fwZ8qsK5EXc7DUmDwQ-1" style="edgeStyle=orthogonalEdgeStyle;rounded=0;orthogonalLoop=1;jettySize=auto;html=1;exitX=1;exitY=0.5;exitDx=0;exitDy=0;entryX=0;entryY=0.5;entryDx=0;entryDy=0;" parent="1" source="3rU9WJzuj6vpkD7zED3n-39" target="GxXRVnFhJCT7yGncX0T1-2" edge="1">
          <mxGeometry relative="1" as="geometry" />
        </mxCell>
        <mxCell id="3rU9WJzuj6vpkD7zED3n-39" value="Cart" style="rounded=1;arcSize=10;whiteSpace=wrap;html=1;align=center;" parent="1" vertex="1">
          <mxGeometry x="490" y="330" width="100" height="40" as="geometry" />
        </mxCell>
        <mxCell id="kbWhTY97k0kbuOlpBIon-4" style="edgeStyle=orthogonalEdgeStyle;rounded=0;orthogonalLoop=1;jettySize=auto;html=1;exitX=0.5;exitY=1;exitDx=0;exitDy=0;entryX=0.5;entryY=0;entryDx=0;entryDy=0;" parent="1" source="kbWhTY97k0kbuOlpBIon-1" target="kbWhTY97k0kbuOlpBIon-2" edge="1">
          <mxGeometry relative="1" as="geometry" />
        </mxCell>
        <mxCell id="kbWhTY97k0kbuOlpBIon-1" value="User Role" style="rounded=1;arcSize=10;whiteSpace=wrap;html=1;align=center;" parent="1" vertex="1">
          <mxGeometry x="490" y="90" width="100" height="40" as="geometry" />
        </mxCell>
        <mxCell id="kbWhTY97k0kbuOlpBIon-5" style="edgeStyle=orthogonalEdgeStyle;rounded=0;orthogonalLoop=1;jettySize=auto;html=1;exitX=0.5;exitY=1;exitDx=0;exitDy=0;entryX=0.5;entryY=0;entryDx=0;entryDy=0;" parent="1" source="kbWhTY97k0kbuOlpBIon-2" target="kbWhTY97k0kbuOlpBIon-3" edge="1">
          <mxGeometry relative="1" as="geometry" />
        </mxCell>
        <mxCell id="kbWhTY97k0kbuOlpBIon-2" value="User" style="rounded=1;arcSize=10;whiteSpace=wrap;html=1;align=center;" parent="1" vertex="1">
          <mxGeometry x="490" y="170" width="100" height="40" as="geometry" />
        </mxCell>
        <mxCell id="H-GJVi_p43uNYEBqbthm-4" style="edgeStyle=orthogonalEdgeStyle;rounded=0;orthogonalLoop=1;jettySize=auto;html=1;exitX=0.5;exitY=1;exitDx=0;exitDy=0;entryX=0.5;entryY=0;entryDx=0;entryDy=0;" parent="1" source="kbWhTY97k0kbuOlpBIon-3" target="3rU9WJzuj6vpkD7zED3n-39" edge="1">
          <mxGeometry relative="1" as="geometry" />
        </mxCell>
        <mxCell id="kbWhTY97k0kbuOlpBIon-3" value="Customer" style="rounded=1;arcSize=10;whiteSpace=wrap;html=1;align=center;" parent="1" vertex="1">
          <mxGeometry x="490" y="250" width="100" height="40" as="geometry" />
        </mxCell>
        <mxCell id="H-GJVi_p43uNYEBqbthm-7" value="" style="rounded=1;arcSize=10;whiteSpace=wrap;html=1;align=center;dashed=1;fillColor=#e1d5e7;strokeColor=#9673a6;" parent="1" vertex="1">
          <mxGeometry x="220" y="440" width="420" height="370" as="geometry" />
        </mxCell>
        <mxCell id="77Ncaiak7-a8WR1uFmUA-3" style="edgeStyle=orthogonalEdgeStyle;rounded=0;orthogonalLoop=1;jettySize=auto;html=1;entryX=0.5;entryY=1;entryDx=0;entryDy=0;" parent="1" source="GxXRVnFhJCT7yGncX0T1-1" target="GxXRVnFhJCT7yGncX0T1-2" edge="1">
          <mxGeometry relative="1" as="geometry" />
        </mxCell>
        <mxCell id="GxXRVnFhJCT7yGncX0T1-1" value="Order Item" style="rounded=1;arcSize=10;whiteSpace=wrap;html=1;align=center;" parent="1" vertex="1">
          <mxGeometry x="710" y="410" width="100" height="40" as="geometry" />
        </mxCell>
        <mxCell id="GxXRVnFhJCT7yGncX0T1-2" value="Order" style="rounded=1;arcSize=10;whiteSpace=wrap;html=1;align=center;" parent="1" vertex="1">
          <mxGeometry x="710" y="330" width="100" height="40" as="geometry" />
        </mxCell>
        <mxCell id="DjOOkCR08gMibAu0U8vc-3" style="edgeStyle=orthogonalEdgeStyle;rounded=0;orthogonalLoop=1;jettySize=auto;html=1;" parent="1" source="GxXRVnFhJCT7yGncX0T1-3" target="GxXRVnFhJCT7yGncX0T1-2" edge="1">
          <mxGeometry relative="1" as="geometry" />
        </mxCell>
        <mxCell id="GxXRVnFhJCT7yGncX0T1-3" value="Delivery" style="rounded=1;arcSize=10;whiteSpace=wrap;html=1;align=center;" parent="1" vertex="1">
          <mxGeometry x="870" y="330" width="100" height="40" as="geometry" />
        </mxCell>
        <mxCell id="77Ncaiak7-a8WR1uFmUA-4" style="edgeStyle=orthogonalEdgeStyle;rounded=0;orthogonalLoop=1;jettySize=auto;html=1;entryX=0.5;entryY=1;entryDx=0;entryDy=0;" parent="1" source="rb-FqGgRquMkNdow6922-1" target="GxXRVnFhJCT7yGncX0T1-3" edge="1">
          <mxGeometry relative="1" as="geometry" />
        </mxCell>
        <mxCell id="rb-FqGgRquMkNdow6922-1" value="Delivery Item" style="rounded=1;arcSize=10;whiteSpace=wrap;html=1;align=center;" parent="1" vertex="1">
          <mxGeometry x="870" y="410" width="100" height="40" as="geometry" />
        </mxCell>
        <mxCell id="I_jMFjRN5UKc5youTHJK-1" value="Analytic Item" style="rounded=1;arcSize=10;whiteSpace=wrap;html=1;align=center;" parent="1" vertex="1">
          <mxGeometry x="510" y="667" width="100" height="40" as="geometry" />
        </mxCell>
        <mxCell id="I_jMFjRN5UKc5youTHJK-3" value="Content Context" style="text;html=1;strokeColor=none;fillColor=none;align=center;verticalAlign=middle;whiteSpace=wrap;rounded=0;fontStyle=1" parent="1" vertex="1">
          <mxGeometry x="310" y="60" width="110" height="30" as="geometry" />
        </mxCell>
        <mxCell id="77Ncaiak7-a8WR1uFmUA-2" style="edgeStyle=orthogonalEdgeStyle;rounded=0;orthogonalLoop=1;jettySize=auto;html=1;entryX=0.5;entryY=0;entryDx=0;entryDy=0;" parent="1" source="77Ncaiak7-a8WR1uFmUA-1" target="GxXRVnFhJCT7yGncX0T1-2" edge="1">
          <mxGeometry relative="1" as="geometry" />
        </mxCell>
        <mxCell id="77Ncaiak7-a8WR1uFmUA-1" value="Customer" style="rounded=1;arcSize=10;whiteSpace=wrap;html=1;align=center;" parent="1" vertex="1">
          <mxGeometry x="710" y="250" width="100" height="40" as="geometry" />
        </mxCell>
        <mxCell id="iEFx7OiRJK8vpt5FCeue-3" style="edgeStyle=orthogonalEdgeStyle;rounded=0;orthogonalLoop=1;jettySize=auto;html=1;entryX=1;entryY=0.5;entryDx=0;entryDy=0;" parent="1" source="iEFx7OiRJK8vpt5FCeue-1" target="77Ncaiak7-a8WR1uFmUA-1" edge="1">
          <mxGeometry relative="1" as="geometry" />
        </mxCell>
        <mxCell id="iEFx7OiRJK8vpt5FCeue-1" value="User" style="rounded=1;arcSize=10;whiteSpace=wrap;html=1;align=center;" parent="1" vertex="1">
          <mxGeometry x="870" y="250" width="100" height="40" as="geometry" />
        </mxCell>
        <mxCell id="iEFx7OiRJK8vpt5FCeue-4" style="edgeStyle=orthogonalEdgeStyle;rounded=0;orthogonalLoop=1;jettySize=auto;html=1;entryX=1;entryY=0.5;entryDx=0;entryDy=0;" parent="1" source="iEFx7OiRJK8vpt5FCeue-2" target="iEFx7OiRJK8vpt5FCeue-1" edge="1">
          <mxGeometry relative="1" as="geometry" />
        </mxCell>
        <mxCell id="iEFx7OiRJK8vpt5FCeue-2" value="User Role" style="rounded=1;arcSize=10;whiteSpace=wrap;html=1;align=center;" parent="1" vertex="1">
          <mxGeometry x="1030" y="250" width="100" height="40" as="geometry" />
        </mxCell>
        <mxCell id="iEFx7OiRJK8vpt5FCeue-5" value="&lt;b&gt;Analytic Context&lt;/b&gt;" style="text;html=1;strokeColor=none;fillColor=none;align=center;verticalAlign=middle;whiteSpace=wrap;rounded=0;" parent="1" vertex="1">
          <mxGeometry x="370" y="460" width="120" height="30" as="geometry" />
        </mxCell>
        <mxCell id="Kn0CtaChFZEeGfWgLxnx-1" style="edgeStyle=orthogonalEdgeStyle;rounded=0;orthogonalLoop=1;jettySize=auto;html=1;exitX=1;exitY=0.5;exitDx=0;exitDy=0;entryX=0;entryY=0.5;entryDx=0;entryDy=0;" parent="1" source="Kn0CtaChFZEeGfWgLxnx-2" target="Kn0CtaChFZEeGfWgLxnx-10" edge="1">
          <mxGeometry relative="1" as="geometry" />
        </mxCell>
        <mxCell id="Kn0CtaChFZEeGfWgLxnx-2" value="Author" style="rounded=1;arcSize=10;whiteSpace=wrap;html=1;align=center;" parent="1" vertex="1">
          <mxGeometry x="250" y="507" width="100" height="40" as="geometry" />
        </mxCell>
        <mxCell id="Kn0CtaChFZEeGfWgLxnx-3" style="rounded=0;orthogonalLoop=1;jettySize=auto;html=1;exitX=1;exitY=0.5;exitDx=0;exitDy=0;entryX=0.25;entryY=1;entryDx=0;entryDy=0;edgeStyle=orthogonalEdgeStyle;" parent="1" source="Kn0CtaChFZEeGfWgLxnx-4" target="Kn0CtaChFZEeGfWgLxnx-10" edge="1">
          <mxGeometry relative="1" as="geometry" />
        </mxCell>
        <mxCell id="Kn0CtaChFZEeGfWgLxnx-4" value="Genre" style="rounded=1;arcSize=10;whiteSpace=wrap;html=1;align=center;" parent="1" vertex="1">
          <mxGeometry x="250" y="587" width="100" height="40" as="geometry" />
        </mxCell>
        <mxCell id="Kn0CtaChFZEeGfWgLxnx-5" style="rounded=0;orthogonalLoop=1;jettySize=auto;html=1;exitX=1;exitY=0.5;exitDx=0;exitDy=0;edgeStyle=orthogonalEdgeStyle;" parent="1" source="Kn0CtaChFZEeGfWgLxnx-6" edge="1">
          <mxGeometry relative="1" as="geometry">
            <mxPoint x="440" y="547" as="targetPoint" />
          </mxGeometry>
        </mxCell>
        <mxCell id="Kn0CtaChFZEeGfWgLxnx-6" value="Key Word" style="rounded=1;arcSize=10;whiteSpace=wrap;html=1;align=center;" parent="1" vertex="1">
          <mxGeometry x="250" y="667" width="100" height="40" as="geometry" />
        </mxCell>
        <mxCell id="Kn0CtaChFZEeGfWgLxnx-7" style="rounded=0;orthogonalLoop=1;jettySize=auto;html=1;exitX=1;exitY=0.5;exitDx=0;exitDy=0;entryX=0.75;entryY=1;entryDx=0;entryDy=0;edgeStyle=orthogonalEdgeStyle;" parent="1" source="Kn0CtaChFZEeGfWgLxnx-8" target="Kn0CtaChFZEeGfWgLxnx-10" edge="1">
          <mxGeometry relative="1" as="geometry" />
        </mxCell>
        <mxCell id="Kn0CtaChFZEeGfWgLxnx-8" value="Comment" style="rounded=1;arcSize=10;whiteSpace=wrap;html=1;align=center;" parent="1" vertex="1">
          <mxGeometry x="250" y="747" width="100" height="40" as="geometry" />
        </mxCell>
        <mxCell id="Kn0CtaChFZEeGfWgLxnx-9" style="edgeStyle=orthogonalEdgeStyle;rounded=0;orthogonalLoop=1;jettySize=auto;html=1;exitX=1;exitY=0.5;exitDx=0;exitDy=0;entryX=0.5;entryY=0;entryDx=0;entryDy=0;" parent="1" source="Kn0CtaChFZEeGfWgLxnx-10" target="Kn0CtaChFZEeGfWgLxnx-11" edge="1">
          <mxGeometry relative="1" as="geometry" />
        </mxCell>
        <mxCell id="Kn0CtaChFZEeGfWgLxnx-10" value="Book" style="rounded=1;arcSize=10;whiteSpace=wrap;html=1;align=center;" parent="1" vertex="1">
          <mxGeometry x="390" y="507" width="100" height="40" as="geometry" />
        </mxCell>
        <mxCell id="Kn0CtaChFZEeGfWgLxnx-12" style="edgeStyle=orthogonalEdgeStyle;rounded=0;orthogonalLoop=1;jettySize=auto;html=1;entryX=0.5;entryY=0;entryDx=0;entryDy=0;" parent="1" source="Kn0CtaChFZEeGfWgLxnx-11" target="I_jMFjRN5UKc5youTHJK-1" edge="1">
          <mxGeometry relative="1" as="geometry" />
        </mxCell>
        <mxCell id="Kn0CtaChFZEeGfWgLxnx-11" value="Priced Book" style="rounded=1;arcSize=10;whiteSpace=wrap;html=1;align=center;" parent="1" vertex="1">
          <mxGeometry x="510" y="587" width="100" height="40" as="geometry" />
        </mxCell>
        <mxCell id="UkF8iOJQ46B5WpIVbzzj-1" value="Order Context" style="text;html=1;strokeColor=none;fillColor=none;align=center;verticalAlign=middle;whiteSpace=wrap;rounded=0;fontStyle=1" parent="1" vertex="1">
          <mxGeometry x="865" y="210" width="110" height="30" as="geometry" />
        </mxCell>
        <mxCell id="b-fwZ8qsK5EXc7DUmDwQ-19" style="edgeStyle=orthogonalEdgeStyle;rounded=0;orthogonalLoop=1;jettySize=auto;html=1;" parent="1" source="b-fwZ8qsK5EXc7DUmDwQ-14" target="b-fwZ8qsK5EXc7DUmDwQ-15" edge="1">
          <mxGeometry relative="1" as="geometry" />
        </mxCell>
        <mxCell id="b-fwZ8qsK5EXc7DUmDwQ-14" value="Book" style="rounded=1;arcSize=10;whiteSpace=wrap;html=1;align=center;" parent="1" vertex="1">
          <mxGeometry x="710" y="500" width="100" height="40" as="geometry" />
        </mxCell>
        <mxCell id="b-fwZ8qsK5EXc7DUmDwQ-16" style="edgeStyle=orthogonalEdgeStyle;rounded=0;orthogonalLoop=1;jettySize=auto;html=1;exitX=0.5;exitY=0;exitDx=0;exitDy=0;entryX=0.5;entryY=1;entryDx=0;entryDy=0;" parent="1" source="b-fwZ8qsK5EXc7DUmDwQ-15" target="GxXRVnFhJCT7yGncX0T1-1" edge="1">
          <mxGeometry relative="1" as="geometry" />
        </mxCell>
        <mxCell id="b-fwZ8qsK5EXc7DUmDwQ-15" value="Priced Book" style="rounded=1;arcSize=10;whiteSpace=wrap;html=1;align=center;" parent="1" vertex="1">
          <mxGeometry x="875" y="500" width="100" height="40" as="geometry" />
        </mxCell>
        <mxCell id="XkNztSPQ2goUs42oU7Vl-1" value="" style="rounded=1;arcSize=10;whiteSpace=wrap;html=1;align=center;dashed=1;fillColor=#fff2cc;strokeColor=#d6b656;" parent="1" vertex="1">
          <mxGeometry x="680" y="600" width="460" height="120" as="geometry" />
        </mxCell>
        <mxCell id="ISzqOc1jTj7GztIuTd0G-3" style="edgeStyle=orthogonalEdgeStyle;rounded=0;orthogonalLoop=1;jettySize=auto;html=1;exitX=1;exitY=0.5;exitDx=0;exitDy=0;entryX=0;entryY=0.5;entryDx=0;entryDy=0;" parent="1" source="ISzqOc1jTj7GztIuTd0G-1" target="ISzqOc1jTj7GztIuTd0G-2" edge="1">
          <mxGeometry relative="1" as="geometry" />
        </mxCell>
        <mxCell id="ISzqOc1jTj7GztIuTd0G-1" value="Book" style="rounded=1;arcSize=10;whiteSpace=wrap;html=1;align=center;" parent="1" vertex="1">
          <mxGeometry x="720" y="640" width="100" height="40" as="geometry" />
        </mxCell>
        <mxCell id="ISzqOc1jTj7GztIuTd0G-2" value="Warehouse Item" style="rounded=1;arcSize=10;whiteSpace=wrap;html=1;align=center;" parent="1" vertex="1">
          <mxGeometry x="875" y="640" width="100" height="40" as="geometry" />
        </mxCell>
        <mxCell id="ISzqOc1jTj7GztIuTd0G-4" value="&lt;b&gt;Warehouse Context&lt;/b&gt;" style="text;html=1;strokeColor=none;fillColor=none;align=center;verticalAlign=middle;whiteSpace=wrap;rounded=0;" parent="1" vertex="1">
          <mxGeometry x="860" y="610" width="120" height="30" as="geometry" />
        </mxCell>
        <mxCell id="sEzkdK3ecNhXYUOD_Hqh-1" value="&lt;h1&gt;Bounded Contexts&lt;/h1&gt;" style="text;html=1;strokeColor=none;fillColor=none;spacing=5;spacingTop=-20;whiteSpace=wrap;overflow=hidden;rounded=0;" vertex="1" parent="1">
          <mxGeometry x="40" y="880" width="650" height="50" as="geometry" />
        </mxCell>
      </root>
    </mxGraphModel>
  </diagram>
  <diagram id="aS27flaXuWVUztagJPwE" name="Microservices-Composition">
    <mxGraphModel dx="1434" dy="956" grid="1" gridSize="10" guides="1" tooltips="1" connect="1" arrows="1" fold="1" page="1" pageScale="1" pageWidth="1169" pageHeight="1654" math="0" shadow="0">
      <root>
        <mxCell id="0" />
        <mxCell id="1" parent="0" />
        <mxCell id="P1YQSnoNsY6W8OqbJ_gu-1" value="" style="rounded=1;arcSize=10;whiteSpace=wrap;html=1;align=center;dashed=1;" parent="1" vertex="1">
          <mxGeometry x="40" y="80" width="400" height="350" as="geometry" />
        </mxCell>
        <mxCell id="tdQ6F81VNWW8GT6dUaO--1" style="edgeStyle=orthogonalEdgeStyle;rounded=0;orthogonalLoop=1;jettySize=auto;html=1;exitX=1;exitY=0.5;exitDx=0;exitDy=0;entryX=0;entryY=0.5;entryDx=0;entryDy=0;" parent="1" source="tdQ6F81VNWW8GT6dUaO--2" target="tdQ6F81VNWW8GT6dUaO--10" edge="1">
          <mxGeometry relative="1" as="geometry" />
        </mxCell>
        <mxCell id="tdQ6F81VNWW8GT6dUaO--2" value="Author" style="rounded=1;arcSize=10;whiteSpace=wrap;html=1;align=center;" parent="1" vertex="1">
          <mxGeometry x="60" y="110" width="100" height="40" as="geometry" />
        </mxCell>
        <mxCell id="tdQ6F81VNWW8GT6dUaO--3" style="rounded=0;orthogonalLoop=1;jettySize=auto;html=1;exitX=1;exitY=0.5;exitDx=0;exitDy=0;entryX=0.25;entryY=1;entryDx=0;entryDy=0;edgeStyle=orthogonalEdgeStyle;" parent="1" source="tdQ6F81VNWW8GT6dUaO--4" target="tdQ6F81VNWW8GT6dUaO--10" edge="1">
          <mxGeometry relative="1" as="geometry" />
        </mxCell>
        <mxCell id="tdQ6F81VNWW8GT6dUaO--4" value="Genre" style="rounded=1;arcSize=10;whiteSpace=wrap;html=1;align=center;" parent="1" vertex="1">
          <mxGeometry x="60" y="190" width="100" height="40" as="geometry" />
        </mxCell>
        <mxCell id="tdQ6F81VNWW8GT6dUaO--5" style="rounded=0;orthogonalLoop=1;jettySize=auto;html=1;exitX=1;exitY=0.5;exitDx=0;exitDy=0;edgeStyle=orthogonalEdgeStyle;" parent="1" source="tdQ6F81VNWW8GT6dUaO--6" edge="1">
          <mxGeometry relative="1" as="geometry">
            <mxPoint x="250" y="150" as="targetPoint" />
          </mxGeometry>
        </mxCell>
        <mxCell id="tdQ6F81VNWW8GT6dUaO--6" value="Key Word" style="rounded=1;arcSize=10;whiteSpace=wrap;html=1;align=center;" parent="1" vertex="1">
          <mxGeometry x="60" y="270" width="100" height="40" as="geometry" />
        </mxCell>
        <mxCell id="tdQ6F81VNWW8GT6dUaO--7" style="rounded=0;orthogonalLoop=1;jettySize=auto;html=1;exitX=1;exitY=0.5;exitDx=0;exitDy=0;entryX=0.75;entryY=1;entryDx=0;entryDy=0;edgeStyle=orthogonalEdgeStyle;" parent="1" source="tdQ6F81VNWW8GT6dUaO--8" target="tdQ6F81VNWW8GT6dUaO--10" edge="1">
          <mxGeometry relative="1" as="geometry" />
        </mxCell>
        <mxCell id="tdQ6F81VNWW8GT6dUaO--8" value="Comment" style="rounded=1;arcSize=10;whiteSpace=wrap;html=1;align=center;" parent="1" vertex="1">
          <mxGeometry x="60" y="350" width="100" height="40" as="geometry" />
        </mxCell>
        <mxCell id="tdQ6F81VNWW8GT6dUaO--9" style="edgeStyle=orthogonalEdgeStyle;rounded=0;orthogonalLoop=1;jettySize=auto;html=1;exitX=1;exitY=0.5;exitDx=0;exitDy=0;entryX=0.5;entryY=0;entryDx=0;entryDy=0;" parent="1" source="tdQ6F81VNWW8GT6dUaO--10" target="tdQ6F81VNWW8GT6dUaO--11" edge="1">
          <mxGeometry relative="1" as="geometry" />
        </mxCell>
        <mxCell id="tdQ6F81VNWW8GT6dUaO--10" value="Book" style="rounded=1;arcSize=10;whiteSpace=wrap;html=1;align=center;" parent="1" vertex="1">
          <mxGeometry x="200" y="110" width="100" height="40" as="geometry" />
        </mxCell>
        <mxCell id="tdQ6F81VNWW8GT6dUaO--11" value="Priced Book" style="rounded=1;arcSize=10;whiteSpace=wrap;html=1;align=center;" parent="1" vertex="1">
          <mxGeometry x="320" y="190" width="100" height="40" as="geometry" />
        </mxCell>
        <mxCell id="yBSwdd3fv_aicermkhzO-1" value="Book Service" style="text;html=1;strokeColor=none;fillColor=none;align=center;verticalAlign=middle;whiteSpace=wrap;rounded=0;fontStyle=1" parent="1" vertex="1">
          <mxGeometry x="195" y="80" width="110" height="30" as="geometry" />
        </mxCell>
        <mxCell id="oZF6bVKVHlrvTYVM0eO--1" value="" style="rounded=1;arcSize=10;whiteSpace=wrap;html=1;align=center;dashed=1;" parent="1" vertex="1">
          <mxGeometry x="680" y="80" width="160" height="270" as="geometry" />
        </mxCell>
        <mxCell id="oZF6bVKVHlrvTYVM0eO--2" value="User Service" style="text;html=1;strokeColor=none;fillColor=none;align=center;verticalAlign=middle;whiteSpace=wrap;rounded=0;fontStyle=1" parent="1" vertex="1">
          <mxGeometry x="705" y="80" width="110" height="30" as="geometry" />
        </mxCell>
        <mxCell id="mlNB2nO9OXoJ7gljewWu-1" value="Customer" style="rounded=1;arcSize=10;whiteSpace=wrap;html=1;align=center;" parent="1" vertex="1">
          <mxGeometry x="710" y="130" width="100" height="40" as="geometry" />
        </mxCell>
        <mxCell id="mlNB2nO9OXoJ7gljewWu-7" style="edgeStyle=orthogonalEdgeStyle;rounded=0;orthogonalLoop=1;jettySize=auto;html=1;entryX=0.5;entryY=1;entryDx=0;entryDy=0;" parent="1" source="mlNB2nO9OXoJ7gljewWu-3" target="mlNB2nO9OXoJ7gljewWu-1" edge="1">
          <mxGeometry relative="1" as="geometry" />
        </mxCell>
        <mxCell id="mlNB2nO9OXoJ7gljewWu-3" value="User" style="rounded=1;arcSize=10;whiteSpace=wrap;html=1;align=center;" parent="1" vertex="1">
          <mxGeometry x="710" y="200" width="100" height="40" as="geometry" />
        </mxCell>
        <mxCell id="mlNB2nO9OXoJ7gljewWu-6" style="edgeStyle=orthogonalEdgeStyle;rounded=0;orthogonalLoop=1;jettySize=auto;html=1;" parent="1" source="mlNB2nO9OXoJ7gljewWu-5" target="mlNB2nO9OXoJ7gljewWu-3" edge="1">
          <mxGeometry relative="1" as="geometry" />
        </mxCell>
        <mxCell id="mlNB2nO9OXoJ7gljewWu-5" value="User Role" style="rounded=1;arcSize=10;whiteSpace=wrap;html=1;align=center;" parent="1" vertex="1">
          <mxGeometry x="710" y="270" width="100" height="40" as="geometry" />
        </mxCell>
        <mxCell id="OY73x_UUevvKTfcO7pFW-1" value="" style="rounded=1;arcSize=10;whiteSpace=wrap;html=1;align=center;dashed=1;" parent="1" vertex="1">
          <mxGeometry x="480" y="80" width="160" height="200" as="geometry" />
        </mxCell>
        <mxCell id="OY73x_UUevvKTfcO7pFW-2" value="Card Service" style="text;html=1;strokeColor=none;fillColor=none;align=center;verticalAlign=middle;whiteSpace=wrap;rounded=0;fontStyle=1" parent="1" vertex="1">
          <mxGeometry x="505" y="90" width="110" height="30" as="geometry" />
        </mxCell>
        <mxCell id="7h6ERZnMtkr8lNrp-X4y-3" style="edgeStyle=orthogonalEdgeStyle;rounded=0;orthogonalLoop=1;jettySize=auto;html=1;exitX=0.5;exitY=0;exitDx=0;exitDy=0;" parent="1" source="7h6ERZnMtkr8lNrp-X4y-1" target="7h6ERZnMtkr8lNrp-X4y-2" edge="1">
          <mxGeometry relative="1" as="geometry" />
        </mxCell>
        <mxCell id="7h6ERZnMtkr8lNrp-X4y-1" value="Cart Item" style="rounded=1;arcSize=10;whiteSpace=wrap;html=1;align=center;" parent="1" vertex="1">
          <mxGeometry x="510" y="200" width="100" height="40" as="geometry" />
        </mxCell>
        <mxCell id="7h6ERZnMtkr8lNrp-X4y-2" value="Cart" style="rounded=1;arcSize=10;whiteSpace=wrap;html=1;align=center;" parent="1" vertex="1">
          <mxGeometry x="510" y="120" width="100" height="40" as="geometry" />
        </mxCell>
        <mxCell id="Xe1dfJx9vSFUGcOUBsxM-1" value="" style="rounded=1;arcSize=10;whiteSpace=wrap;html=1;align=center;dashed=1;" parent="1" vertex="1">
          <mxGeometry x="560" y="400" width="280" height="200" as="geometry" />
        </mxCell>
        <mxCell id="Xe1dfJx9vSFUGcOUBsxM-2" value="Order Service" style="text;html=1;strokeColor=none;fillColor=none;align=center;verticalAlign=middle;whiteSpace=wrap;rounded=0;fontStyle=1" parent="1" vertex="1">
          <mxGeometry x="645" y="400" width="110" height="30" as="geometry" />
        </mxCell>
        <mxCell id="LmbksSD26eDHa_5PeyVd-1" style="edgeStyle=orthogonalEdgeStyle;rounded=0;orthogonalLoop=1;jettySize=auto;html=1;entryX=0.5;entryY=1;entryDx=0;entryDy=0;" parent="1" source="LmbksSD26eDHa_5PeyVd-2" target="LmbksSD26eDHa_5PeyVd-3" edge="1">
          <mxGeometry relative="1" as="geometry" />
        </mxCell>
        <mxCell id="LmbksSD26eDHa_5PeyVd-2" value="Order Item" style="rounded=1;arcSize=10;whiteSpace=wrap;html=1;align=center;" parent="1" vertex="1">
          <mxGeometry x="710" y="515" width="100" height="40" as="geometry" />
        </mxCell>
        <mxCell id="LmbksSD26eDHa_5PeyVd-3" value="Order" style="rounded=1;arcSize=10;whiteSpace=wrap;html=1;align=center;" parent="1" vertex="1">
          <mxGeometry x="710" y="440" width="100" height="40" as="geometry" />
        </mxCell>
        <mxCell id="tNPYdJYk5T-lgLiop2tV-1" style="edgeStyle=orthogonalEdgeStyle;rounded=0;orthogonalLoop=1;jettySize=auto;html=1;entryX=0.5;entryY=1;entryDx=0;entryDy=0;" parent="1" source="tNPYdJYk5T-lgLiop2tV-2" target="tNPYdJYk5T-lgLiop2tV-3" edge="1">
          <mxGeometry relative="1" as="geometry" />
        </mxCell>
        <mxCell id="tNPYdJYk5T-lgLiop2tV-2" value="Delivery Item" style="rounded=1;arcSize=10;whiteSpace=wrap;html=1;align=center;" parent="1" vertex="1">
          <mxGeometry x="580" y="515" width="100" height="40" as="geometry" />
        </mxCell>
        <mxCell id="zdCREVAwdNhMm6k073Ly-1" style="edgeStyle=orthogonalEdgeStyle;rounded=0;orthogonalLoop=1;jettySize=auto;html=1;exitX=1;exitY=0.5;exitDx=0;exitDy=0;" parent="1" source="tNPYdJYk5T-lgLiop2tV-3" target="LmbksSD26eDHa_5PeyVd-3" edge="1">
          <mxGeometry relative="1" as="geometry" />
        </mxCell>
        <mxCell id="tNPYdJYk5T-lgLiop2tV-3" value="Delivery" style="rounded=1;arcSize=10;whiteSpace=wrap;html=1;align=center;" parent="1" vertex="1">
          <mxGeometry x="580" y="440" width="100" height="40" as="geometry" />
        </mxCell>
        <mxCell id="quhNY4cXNARJ2fFtPuAO-1" value="" style="rounded=1;arcSize=10;whiteSpace=wrap;html=1;align=center;dashed=1;" parent="1" vertex="1">
          <mxGeometry x="880" y="80" width="200" height="60" as="geometry" />
        </mxCell>
        <mxCell id="quhNY4cXNARJ2fFtPuAO-2" value="AuthN/AuthZ Service" style="text;html=1;strokeColor=none;fillColor=none;align=center;verticalAlign=middle;whiteSpace=wrap;rounded=0;fontStyle=1" parent="1" vertex="1">
          <mxGeometry x="905" y="80" width="165" height="30" as="geometry" />
        </mxCell>
        <mxCell id="2REaFsEfdGf-8S7lykeN-8" value="" style="rounded=1;arcSize=10;whiteSpace=wrap;html=1;align=center;dashed=1;" parent="1" vertex="1">
          <mxGeometry x="320" y="480" width="160" height="130" as="geometry" />
        </mxCell>
        <mxCell id="2REaFsEfdGf-8S7lykeN-9" value="Analytic Service" style="text;html=1;strokeColor=none;fillColor=none;align=center;verticalAlign=middle;whiteSpace=wrap;rounded=0;fontStyle=1" parent="1" vertex="1">
          <mxGeometry x="345" y="490" width="110" height="30" as="geometry" />
        </mxCell>
        <mxCell id="2REaFsEfdGf-8S7lykeN-12" value="Analytic Item" style="rounded=1;arcSize=10;whiteSpace=wrap;html=1;align=center;" parent="1" vertex="1">
          <mxGeometry x="350" y="530" width="100" height="40" as="geometry" />
        </mxCell>
        <mxCell id="TlwY2XPgHB9NGr1yk0eD-2" value="" style="rounded=1;arcSize=10;whiteSpace=wrap;html=1;align=center;dashed=1;" parent="1" vertex="1">
          <mxGeometry x="880" y="400" width="200" height="60" as="geometry" />
        </mxCell>
        <mxCell id="TlwY2XPgHB9NGr1yk0eD-3" value="Payment Adapter Service" style="text;html=1;strokeColor=none;fillColor=none;align=center;verticalAlign=middle;whiteSpace=wrap;rounded=0;fontStyle=1" parent="1" vertex="1">
          <mxGeometry x="905" y="400" width="165" height="30" as="geometry" />
        </mxCell>
        <mxCell id="TlwY2XPgHB9NGr1yk0eD-4" value="" style="rounded=1;arcSize=10;whiteSpace=wrap;html=1;align=center;dashed=1;" parent="1" vertex="1">
          <mxGeometry x="880" y="480" width="200" height="60" as="geometry" />
        </mxCell>
        <mxCell id="TlwY2XPgHB9NGr1yk0eD-5" value="Shippment Provider &lt;br&gt;Adapter Service" style="text;html=1;strokeColor=none;fillColor=none;align=center;verticalAlign=middle;whiteSpace=wrap;rounded=0;fontStyle=1" parent="1" vertex="1">
          <mxGeometry x="897.5" y="480" width="165" height="30" as="geometry" />
        </mxCell>
        <mxCell id="TlwY2XPgHB9NGr1yk0eD-6" value="Domain Services" style="text;html=1;strokeColor=none;fillColor=none;align=center;verticalAlign=middle;whiteSpace=wrap;rounded=0;" parent="1" vertex="1">
          <mxGeometry x="330" y="20" width="60" height="30" as="geometry" />
        </mxCell>
        <mxCell id="TlwY2XPgHB9NGr1yk0eD-7" value="Application Services" style="text;html=1;strokeColor=none;fillColor=none;align=center;verticalAlign=middle;whiteSpace=wrap;rounded=0;" parent="1" vertex="1">
          <mxGeometry x="955" y="30" width="60" height="30" as="geometry" />
        </mxCell>
        <mxCell id="TlwY2XPgHB9NGr1yk0eD-8" value="" style="rounded=1;arcSize=10;whiteSpace=wrap;html=1;align=center;dashed=1;" parent="1" vertex="1">
          <mxGeometry x="880" y="160" width="200" height="60" as="geometry" />
        </mxCell>
        <mxCell id="TlwY2XPgHB9NGr1yk0eD-9" value="Monitoring Service" style="text;html=1;strokeColor=none;fillColor=none;align=center;verticalAlign=middle;whiteSpace=wrap;rounded=0;fontStyle=1" parent="1" vertex="1">
          <mxGeometry x="905" y="160" width="165" height="30" as="geometry" />
        </mxCell>
        <mxCell id="TlwY2XPgHB9NGr1yk0eD-10" value="" style="rounded=1;arcSize=10;whiteSpace=wrap;html=1;align=center;dashed=1;" parent="1" vertex="1">
          <mxGeometry x="120" y="480" width="160" height="130" as="geometry" />
        </mxCell>
        <mxCell id="TlwY2XPgHB9NGr1yk0eD-11" value="Warehouse Service" style="text;html=1;strokeColor=none;fillColor=none;align=center;verticalAlign=middle;whiteSpace=wrap;rounded=0;fontStyle=1" parent="1" vertex="1">
          <mxGeometry x="145" y="490" width="110" height="30" as="geometry" />
        </mxCell>
        <mxCell id="TlwY2XPgHB9NGr1yk0eD-12" value="Warehouse Item" style="rounded=1;arcSize=10;whiteSpace=wrap;html=1;align=center;" parent="1" vertex="1">
          <mxGeometry x="150" y="530" width="100" height="40" as="geometry" />
        </mxCell>
        <mxCell id="CnTj5d6T6MTWJoZ4-JVf-1" value="" style="rounded=1;arcSize=10;whiteSpace=wrap;html=1;align=center;dashed=1;" parent="1" vertex="1">
          <mxGeometry x="880" y="560" width="200" height="60" as="geometry" />
        </mxCell>
        <mxCell id="CnTj5d6T6MTWJoZ4-JVf-2" value="Admin Panel" style="text;html=1;strokeColor=none;fillColor=none;align=center;verticalAlign=middle;whiteSpace=wrap;rounded=0;fontStyle=1" parent="1" vertex="1">
          <mxGeometry x="897.5" y="560" width="165" height="30" as="geometry" />
        </mxCell>
        <mxCell id="CnTj5d6T6MTWJoZ4-JVf-3" value="" style="rounded=1;arcSize=10;whiteSpace=wrap;html=1;align=center;dashed=1;" parent="1" vertex="1">
          <mxGeometry x="880" y="640" width="200" height="60" as="geometry" />
        </mxCell>
        <mxCell id="CnTj5d6T6MTWJoZ4-JVf-4" value="Customer Panel" style="text;html=1;strokeColor=none;fillColor=none;align=center;verticalAlign=middle;whiteSpace=wrap;rounded=0;fontStyle=1" parent="1" vertex="1">
          <mxGeometry x="897.5" y="640" width="165" height="30" as="geometry" />
        </mxCell>
        <mxCell id="2mNvFevw9E6E1nip0Asw-1" value="&lt;h1&gt;Microservice decomposition&lt;/h1&gt;" style="text;html=1;strokeColor=none;fillColor=none;spacing=5;spacingTop=-20;whiteSpace=wrap;overflow=hidden;rounded=0;" vertex="1" parent="1">
          <mxGeometry x="40" y="800" width="650" height="50" as="geometry" />
        </mxCell>
      </root>
    </mxGraphModel>
  </diagram>
  <diagram id="rqKfryp6l4SBXbvG43K5" name="C4-SystemContext">
    <mxGraphModel dx="1434" dy="956" grid="1" gridSize="10" guides="1" tooltips="1" connect="1" arrows="1" fold="1" page="1" pageScale="1" pageWidth="1169" pageHeight="1654" math="0" shadow="0">
      <root>
        <mxCell id="0" />
        <mxCell id="1" parent="0" />
        <mxCell id="D7NG6ya--6u5mT0shUjb-3" style="edgeStyle=orthogonalEdgeStyle;rounded=0;orthogonalLoop=1;jettySize=auto;html=1;exitX=0.5;exitY=1;exitDx=0;exitDy=0;exitPerimeter=0;entryX=0.5;entryY=0;entryDx=0;entryDy=0;entryPerimeter=0;" edge="1" parent="1" source="D7NG6ya--6u5mT0shUjb-1" target="D7NG6ya--6u5mT0shUjb-2">
          <mxGeometry relative="1" as="geometry" />
        </mxCell>
        <mxCell id="D7NG6ya--6u5mT0shUjb-4" value="Authenticate, search, &lt;br&gt;view, order, deliver and initiate payment &lt;br&gt;for the books using&amp;nbsp;" style="edgeLabel;html=1;align=center;verticalAlign=middle;resizable=0;points=[];" vertex="1" connectable="0" parent="D7NG6ya--6u5mT0shUjb-3">
          <mxGeometry x="-0.26" y="2" relative="1" as="geometry">
            <mxPoint as="offset" />
          </mxGeometry>
        </mxCell>
        <mxCell id="D7NG6ya--6u5mT0shUjb-15" style="rounded=0;orthogonalLoop=1;jettySize=auto;html=1;exitX=1;exitY=0.75;exitDx=0;exitDy=0;exitPerimeter=0;dashed=1;entryX=0.5;entryY=0;entryDx=0;entryDy=0;entryPerimeter=0;" edge="1" parent="1" source="D7NG6ya--6u5mT0shUjb-1" target="D7NG6ya--6u5mT0shUjb-5">
          <mxGeometry relative="1" as="geometry" />
        </mxCell>
        <mxCell id="D7NG6ya--6u5mT0shUjb-16" value="Make payment" style="edgeLabel;html=1;align=center;verticalAlign=middle;resizable=0;points=[];" vertex="1" connectable="0" parent="D7NG6ya--6u5mT0shUjb-15">
          <mxGeometry x="0.1831" y="-4" relative="1" as="geometry">
            <mxPoint x="-22" y="-24" as="offset" />
          </mxGeometry>
        </mxCell>
        <object placeholders="1" c4Name="Book store Customer" c4Type="Person" c4Description="Customer of the book store" label="&lt;font style=&quot;font-size: 16px&quot;&gt;&lt;b&gt;%c4Name%&lt;/b&gt;&lt;/font&gt;&lt;div&gt;[%c4Type%]&lt;/div&gt;&lt;br&gt;&lt;div&gt;&lt;font style=&quot;font-size: 11px&quot;&gt;&lt;font&gt;%c4Description%&lt;/font&gt;&lt;/font&gt;&lt;/div&gt;" id="D7NG6ya--6u5mT0shUjb-1">
          <mxCell style="html=1;fontSize=11;dashed=0;whiteSpace=wrap;fillColor=#0050ef;strokeColor=#001DBC;shape=mxgraph.c4.person2;align=center;metaEdit=1;points=[[0.5,0,0],[1,0.5,0],[1,0.75,0],[0.75,1,0],[0.5,1,0],[0.25,1,0],[0,0.75,0],[0,0.5,0]];resizable=0;fontColor=#ffffff;" vertex="1" parent="1">
            <mxGeometry x="420" y="40" width="200" height="180" as="geometry" />
          </mxCell>
        </object>
        <mxCell id="D7NG6ya--6u5mT0shUjb-6" style="edgeStyle=orthogonalEdgeStyle;rounded=0;orthogonalLoop=1;jettySize=auto;html=1;exitX=1;exitY=0.5;exitDx=0;exitDy=0;exitPerimeter=0;dashed=1;" edge="1" parent="1" source="D7NG6ya--6u5mT0shUjb-2" target="D7NG6ya--6u5mT0shUjb-5">
          <mxGeometry relative="1" as="geometry" />
        </mxCell>
        <mxCell id="D7NG6ya--6u5mT0shUjb-14" value="Redirect &lt;br&gt;Customer to pay" style="edgeLabel;html=1;align=center;verticalAlign=middle;resizable=0;points=[];" vertex="1" connectable="0" parent="D7NG6ya--6u5mT0shUjb-6">
          <mxGeometry x="-0.2167" y="-1" relative="1" as="geometry">
            <mxPoint x="13" y="-1" as="offset" />
          </mxGeometry>
        </mxCell>
        <mxCell id="D7NG6ya--6u5mT0shUjb-11" style="rounded=0;orthogonalLoop=1;jettySize=auto;html=1;exitX=0.75;exitY=1;exitDx=0;exitDy=0;exitPerimeter=0;entryX=0.5;entryY=0;entryDx=0;entryDy=0;entryPerimeter=0;dashed=1;" edge="1" parent="1" source="D7NG6ya--6u5mT0shUjb-2" target="D7NG6ya--6u5mT0shUjb-8">
          <mxGeometry relative="1" as="geometry" />
        </mxCell>
        <mxCell id="D7NG6ya--6u5mT0shUjb-17" value="Books are shipped &lt;br&gt;and are payed using&amp;nbsp;" style="edgeLabel;html=1;align=center;verticalAlign=middle;resizable=0;points=[];" vertex="1" connectable="0" parent="D7NG6ya--6u5mT0shUjb-11">
          <mxGeometry x="-0.0983" y="-1" relative="1" as="geometry">
            <mxPoint as="offset" />
          </mxGeometry>
        </mxCell>
        <mxCell id="D7NG6ya--6u5mT0shUjb-12" value="&lt;br&gt;&lt;span style=&quot;color: rgb(0, 0, 0); font-family: Helvetica; font-size: 11px; font-style: normal; font-variant-ligatures: normal; font-variant-caps: normal; font-weight: 400; letter-spacing: normal; orphans: 2; text-align: center; text-indent: 0px; text-transform: none; widows: 2; word-spacing: 0px; -webkit-text-stroke-width: 0px; background-color: rgb(255, 255, 255); text-decoration-thickness: initial; text-decoration-style: initial; text-decoration-color: initial; float: none; display: inline !important;&quot;&gt;Books are shipped&lt;/span&gt;&lt;br style=&quot;border-color: var(--border-color); color: rgb(0, 0, 0); font-family: Helvetica; font-size: 11px; font-style: normal; font-variant-ligatures: normal; font-variant-caps: normal; font-weight: 400; letter-spacing: normal; orphans: 2; text-align: center; text-indent: 0px; text-transform: none; widows: 2; word-spacing: 0px; -webkit-text-stroke-width: 0px; text-decoration-thickness: initial; text-decoration-style: initial; text-decoration-color: initial;&quot;&gt;&lt;span style=&quot;color: rgb(0, 0, 0); font-family: Helvetica; font-size: 11px; font-style: normal; font-variant-ligatures: normal; font-variant-caps: normal; font-weight: 400; letter-spacing: normal; orphans: 2; text-align: center; text-indent: 0px; text-transform: none; widows: 2; word-spacing: 0px; -webkit-text-stroke-width: 0px; background-color: rgb(255, 255, 255); text-decoration-thickness: initial; text-decoration-style: initial; text-decoration-color: initial; float: none; display: inline !important;&quot;&gt;and are payed using&amp;nbsp;&lt;/span&gt;&lt;br&gt;" style="edgeStyle=orthogonalEdgeStyle;rounded=0;orthogonalLoop=1;jettySize=auto;html=1;exitX=0.5;exitY=1;exitDx=0;exitDy=0;exitPerimeter=0;entryX=0.5;entryY=0;entryDx=0;entryDy=0;entryPerimeter=0;dashed=1;" edge="1" parent="1" source="D7NG6ya--6u5mT0shUjb-2" target="D7NG6ya--6u5mT0shUjb-9">
          <mxGeometry relative="1" as="geometry" />
        </mxCell>
        <mxCell id="D7NG6ya--6u5mT0shUjb-13" style="rounded=0;orthogonalLoop=1;jettySize=auto;html=1;exitX=0.25;exitY=1;exitDx=0;exitDy=0;exitPerimeter=0;dashed=1;entryX=0.5;entryY=0;entryDx=0;entryDy=0;entryPerimeter=0;" edge="1" parent="1" source="D7NG6ya--6u5mT0shUjb-2" target="D7NG6ya--6u5mT0shUjb-10">
          <mxGeometry relative="1" as="geometry" />
        </mxCell>
        <mxCell id="D7NG6ya--6u5mT0shUjb-18" value="Books are shipped&lt;br style=&quot;border-color: var(--border-color);&quot;&gt;and are payed using&amp;nbsp;" style="edgeLabel;html=1;align=center;verticalAlign=middle;resizable=0;points=[];" vertex="1" connectable="0" parent="D7NG6ya--6u5mT0shUjb-13">
          <mxGeometry x="-0.1266" relative="1" as="geometry">
            <mxPoint as="offset" />
          </mxGeometry>
        </mxCell>
        <object placeholders="1" c4Name="Book store" c4Type="Software System" c4Description="Allows to search, view information, order, pay and deliver books" label="&lt;font style=&quot;font-size: 16px&quot;&gt;&lt;b&gt;%c4Name%&lt;/b&gt;&lt;/font&gt;&lt;div&gt;[%c4Type%]&lt;/div&gt;&lt;br&gt;&lt;div&gt;&lt;font style=&quot;font-size: 11px&quot;&gt;&lt;font color=&quot;#cccccc&quot;&gt;%c4Description%&lt;/font&gt;&lt;/div&gt;" id="D7NG6ya--6u5mT0shUjb-2">
          <mxCell style="rounded=1;whiteSpace=wrap;html=1;labelBackgroundColor=none;fillColor=#1061B0;fontColor=#ffffff;align=center;arcSize=10;strokeColor=#0D5091;metaEdit=1;resizable=0;points=[[0.25,0,0],[0.5,0,0],[0.75,0,0],[1,0.25,0],[1,0.5,0],[1,0.75,0],[0.75,1,0],[0.5,1,0],[0.25,1,0],[0,0.75,0],[0,0.5,0],[0,0.25,0]];" vertex="1" parent="1">
            <mxGeometry x="400" y="320" width="240" height="120" as="geometry" />
          </mxCell>
        </object>
        <object placeholders="1" c4Name="Payment Service" c4Type="Software System" c4Description="Payment service to manage online payment " label="&lt;font style=&quot;font-size: 16px&quot;&gt;&lt;b&gt;%c4Name%&lt;/b&gt;&lt;/font&gt;&lt;div&gt;[%c4Type%]&lt;/div&gt;&lt;br&gt;&lt;div&gt;&lt;font style=&quot;font-size: 11px&quot;&gt;&lt;font color=&quot;#cccccc&quot;&gt;%c4Description%&lt;/font&gt;&lt;/div&gt;" id="D7NG6ya--6u5mT0shUjb-5">
          <mxCell style="rounded=1;whiteSpace=wrap;html=1;labelBackgroundColor=none;fillColor=#8C8496;fontColor=#ffffff;align=center;arcSize=10;strokeColor=#736782;metaEdit=1;resizable=0;points=[[0.25,0,0],[0.5,0,0],[0.75,0,0],[1,0.25,0],[1,0.5,0],[1,0.75,0],[0.75,1,0],[0.5,1,0],[0.25,1,0],[0,0.75,0],[0,0.5,0],[0,0.25,0]];" vertex="1" parent="1">
            <mxGeometry x="760" y="320" width="240" height="120" as="geometry" />
          </mxCell>
        </object>
        <object placeholders="1" c4Name="Delivery Provider&#xa;(Nova Poshta)" c4Type="Software System" c4Description="Delivery Provider with payment option (Nova Poshta)" label="&lt;font style=&quot;font-size: 16px&quot;&gt;&lt;b&gt;%c4Name%&lt;/b&gt;&lt;/font&gt;&lt;div&gt;[%c4Type%]&lt;/div&gt;&lt;br&gt;&lt;div&gt;&lt;font style=&quot;font-size: 11px&quot;&gt;&lt;font color=&quot;#cccccc&quot;&gt;%c4Description%&lt;/font&gt;&lt;/div&gt;" id="D7NG6ya--6u5mT0shUjb-8">
          <mxCell style="rounded=1;whiteSpace=wrap;html=1;labelBackgroundColor=none;fillColor=#8C8496;fontColor=#ffffff;align=center;arcSize=10;strokeColor=#736782;metaEdit=1;resizable=0;points=[[0.25,0,0],[0.5,0,0],[0.75,0,0],[1,0.25,0],[1,0.5,0],[1,0.75,0],[0.75,1,0],[0.5,1,0],[0.25,1,0],[0,0.75,0],[0,0.5,0],[0,0.25,0]];" vertex="1" parent="1">
            <mxGeometry x="760" y="520" width="240" height="120" as="geometry" />
          </mxCell>
        </object>
        <object placeholders="1" c4Name="Delivery Provider&#xa;(Ukr Poshta)" c4Type="Software System" c4Description="Delivery Provider with payment option (Ukr Poshta)" label="&lt;font style=&quot;font-size: 16px&quot;&gt;&lt;b&gt;%c4Name%&lt;/b&gt;&lt;/font&gt;&lt;div&gt;[%c4Type%]&lt;/div&gt;&lt;br&gt;&lt;div&gt;&lt;font style=&quot;font-size: 11px&quot;&gt;&lt;font color=&quot;#cccccc&quot;&gt;%c4Description%&lt;/font&gt;&lt;/div&gt;" id="D7NG6ya--6u5mT0shUjb-9">
          <mxCell style="rounded=1;whiteSpace=wrap;html=1;labelBackgroundColor=none;fillColor=#8C8496;fontColor=#ffffff;align=center;arcSize=10;strokeColor=#736782;metaEdit=1;resizable=0;points=[[0.25,0,0],[0.5,0,0],[0.75,0,0],[1,0.25,0],[1,0.5,0],[1,0.75,0],[0.75,1,0],[0.5,1,0],[0.25,1,0],[0,0.75,0],[0,0.5,0],[0,0.25,0]];" vertex="1" parent="1">
            <mxGeometry x="400" y="520" width="240" height="120" as="geometry" />
          </mxCell>
        </object>
        <object placeholders="1" c4Name="Delivery Provider&#xa;(JustIn)" c4Type="Software System" c4Description="Delivery Provider with payment option (JustIn)" label="&lt;font style=&quot;font-size: 16px&quot;&gt;&lt;b&gt;%c4Name%&lt;/b&gt;&lt;/font&gt;&lt;div&gt;[%c4Type%]&lt;/div&gt;&lt;br&gt;&lt;div&gt;&lt;font style=&quot;font-size: 11px&quot;&gt;&lt;font color=&quot;#cccccc&quot;&gt;%c4Description%&lt;/font&gt;&lt;/div&gt;" id="D7NG6ya--6u5mT0shUjb-10">
          <mxCell style="rounded=1;whiteSpace=wrap;html=1;labelBackgroundColor=none;fillColor=#8C8496;fontColor=#ffffff;align=center;arcSize=10;strokeColor=#736782;metaEdit=1;resizable=0;points=[[0.25,0,0],[0.5,0,0],[0.75,0,0],[1,0.25,0],[1,0.5,0],[1,0.75,0],[0.75,1,0],[0.5,1,0],[0.25,1,0],[0,0.75,0],[0,0.5,0],[0,0.25,0]];" vertex="1" parent="1">
            <mxGeometry x="40" y="520" width="240" height="120" as="geometry" />
          </mxCell>
        </object>
        <mxCell id="EBYcl76ffw_sU0AINIpj-1" value="&lt;h1&gt;[System Context] Book Service&lt;/h1&gt;" style="text;html=1;strokeColor=none;fillColor=none;spacing=5;spacingTop=-20;whiteSpace=wrap;overflow=hidden;rounded=0;" vertex="1" parent="1">
          <mxGeometry x="40" y="720" width="530" height="50" as="geometry" />
        </mxCell>
      </root>
    </mxGraphModel>
  </diagram>
  <diagram id="HfkjLiwpCb45_fTSOYKm" name="C4-Containers">
    <mxGraphModel dx="2390" dy="1593" grid="1" gridSize="10" guides="1" tooltips="1" connect="1" arrows="1" fold="1" page="1" pageScale="1" pageWidth="1169" pageHeight="1654" math="0" shadow="0">
      <root>
        <mxCell id="0" />
        <mxCell id="1" parent="0" />
        <mxCell id="qG8MQPDBNWbBwP6O2YKQ-3" style="rounded=0;orthogonalLoop=1;jettySize=auto;html=1;exitX=1;exitY=0.75;exitDx=0;exitDy=0;exitPerimeter=0;dashed=1;entryX=0;entryY=0.5;entryDx=0;entryDy=0;entryPerimeter=0;" edge="1" parent="1" source="qG8MQPDBNWbBwP6O2YKQ-5" target="qG8MQPDBNWbBwP6O2YKQ-14">
          <mxGeometry relative="1" as="geometry" />
        </mxCell>
        <mxCell id="qG8MQPDBNWbBwP6O2YKQ-4" value="Make payment" style="edgeLabel;html=1;align=center;verticalAlign=middle;resizable=0;points=[];" vertex="1" connectable="0" parent="qG8MQPDBNWbBwP6O2YKQ-3">
          <mxGeometry x="0.1831" y="-4" relative="1" as="geometry">
            <mxPoint x="-32" y="-9" as="offset" />
          </mxGeometry>
        </mxCell>
        <mxCell id="Y4I4q_gTd2g8YstP7vWP-1" style="rounded=0;orthogonalLoop=1;jettySize=auto;html=1;exitX=0.5;exitY=1;exitDx=0;exitDy=0;exitPerimeter=0;dashed=1;" edge="1" parent="1" source="qG8MQPDBNWbBwP6O2YKQ-5" target="YkluDjlk5f_Mb_hV9G_Y-1">
          <mxGeometry relative="1" as="geometry" />
        </mxCell>
        <mxCell id="o-wz0sHcYg7aaiis_bC3-22" value="visit via&lt;br&gt;HTTP/HTTPS" style="edgeLabel;html=1;align=center;verticalAlign=middle;resizable=0;points=[];" vertex="1" connectable="0" parent="Y4I4q_gTd2g8YstP7vWP-1">
          <mxGeometry x="0.3393" y="2" relative="1" as="geometry">
            <mxPoint x="-2" y="-14" as="offset" />
          </mxGeometry>
        </mxCell>
        <mxCell id="Y4I4q_gTd2g8YstP7vWP-3" style="rounded=0;orthogonalLoop=1;jettySize=auto;html=1;exitX=0.5;exitY=1;exitDx=0;exitDy=0;exitPerimeter=0;dashed=1;entryX=0;entryY=0.25;entryDx=0;entryDy=0;entryPerimeter=0;" edge="1" parent="1" source="qG8MQPDBNWbBwP6O2YKQ-5" target="YkluDjlk5f_Mb_hV9G_Y-2">
          <mxGeometry relative="1" as="geometry">
            <Array as="points">
              <mxPoint x="660" y="290" />
            </Array>
          </mxGeometry>
        </mxCell>
        <mxCell id="o-wz0sHcYg7aaiis_bC3-23" value="AuthN" style="edgeLabel;html=1;align=center;verticalAlign=middle;resizable=0;points=[];" vertex="1" connectable="0" parent="Y4I4q_gTd2g8YstP7vWP-3">
          <mxGeometry x="-0.199" y="4" relative="1" as="geometry">
            <mxPoint as="offset" />
          </mxGeometry>
        </mxCell>
        <object placeholders="1" c4Name="Book store Customer" c4Type="Person" c4Description="Customer of the book store" label="&lt;font style=&quot;font-size: 16px&quot;&gt;&lt;b&gt;%c4Name%&lt;/b&gt;&lt;/font&gt;&lt;div&gt;[%c4Type%]&lt;/div&gt;&lt;br&gt;&lt;div&gt;&lt;font style=&quot;font-size: 11px&quot;&gt;&lt;font&gt;%c4Description%&lt;/font&gt;&lt;/font&gt;&lt;/div&gt;" id="qG8MQPDBNWbBwP6O2YKQ-5">
          <mxCell style="html=1;fontSize=11;dashed=0;whiteSpace=wrap;fillColor=#0050ef;strokeColor=#001DBC;shape=mxgraph.c4.person2;align=center;metaEdit=1;points=[[0.5,0,0],[1,0.5,0],[1,0.75,0],[0.75,1,0],[0.5,1,0],[0.25,1,0],[0,0.75,0],[0,0.5,0]];resizable=0;fontColor=#ffffff;" vertex="1" parent="1">
            <mxGeometry x="460" y="20" width="200" height="180" as="geometry" />
          </mxCell>
        </object>
        <object placeholders="1" c4Name="Payment Service" c4Type="Software System" c4Description="Payment service to manage online payment " label="&lt;font style=&quot;font-size: 16px&quot;&gt;&lt;b&gt;%c4Name%&lt;/b&gt;&lt;/font&gt;&lt;div&gt;[%c4Type%]&lt;/div&gt;&lt;br&gt;&lt;div&gt;&lt;font style=&quot;font-size: 11px&quot;&gt;&lt;font color=&quot;#cccccc&quot;&gt;%c4Description%&lt;/font&gt;&lt;/div&gt;" id="qG8MQPDBNWbBwP6O2YKQ-14">
          <mxCell style="rounded=1;whiteSpace=wrap;html=1;labelBackgroundColor=none;fillColor=#8C8496;fontColor=#ffffff;align=center;arcSize=10;strokeColor=#736782;metaEdit=1;resizable=0;points=[[0.25,0,0],[0.5,0,0],[0.75,0,0],[1,0.25,0],[1,0.5,0],[1,0.75,0],[0.75,1,0],[0.5,1,0],[0.25,1,0],[0,0.75,0],[0,0.5,0],[0,0.25,0]];" vertex="1" parent="1">
            <mxGeometry x="880" y="160" width="240" height="120" as="geometry" />
          </mxCell>
        </object>
        <object placeholders="1" c4Name="Delivery Provider&#xa;(Nova Poshta)" c4Type="Software System" c4Description="Delivery Provider with payment option (Nova Poshta)" label="&lt;font style=&quot;font-size: 16px&quot;&gt;&lt;b&gt;%c4Name%&lt;/b&gt;&lt;/font&gt;&lt;div&gt;[%c4Type%]&lt;/div&gt;&lt;br&gt;&lt;div&gt;&lt;font style=&quot;font-size: 11px&quot;&gt;&lt;font color=&quot;#cccccc&quot;&gt;%c4Description%&lt;/font&gt;&lt;/div&gt;" id="qG8MQPDBNWbBwP6O2YKQ-15">
          <mxCell style="rounded=1;whiteSpace=wrap;html=1;labelBackgroundColor=none;fillColor=#8C8496;fontColor=#ffffff;align=center;arcSize=10;strokeColor=#736782;metaEdit=1;resizable=0;points=[[0.25,0,0],[0.5,0,0],[0.75,0,0],[1,0.25,0],[1,0.5,0],[1,0.75,0],[0.75,1,0],[0.5,1,0],[0.25,1,0],[0,0.75,0],[0,0.5,0],[0,0.25,0]];" vertex="1" parent="1">
            <mxGeometry x="860" y="1480" width="240" height="120" as="geometry" />
          </mxCell>
        </object>
        <object placeholders="1" c4Name="Delivery Provider&#xa;(Ukr Poshta)" c4Type="Software System" c4Description="Delivery Provider with payment option (Ukr Poshta)" label="&lt;font style=&quot;font-size: 16px&quot;&gt;&lt;b&gt;%c4Name%&lt;/b&gt;&lt;/font&gt;&lt;div&gt;[%c4Type%]&lt;/div&gt;&lt;br&gt;&lt;div&gt;&lt;font style=&quot;font-size: 11px&quot;&gt;&lt;font color=&quot;#cccccc&quot;&gt;%c4Description%&lt;/font&gt;&lt;/div&gt;" id="qG8MQPDBNWbBwP6O2YKQ-16">
          <mxCell style="rounded=1;whiteSpace=wrap;html=1;labelBackgroundColor=none;fillColor=#8C8496;fontColor=#ffffff;align=center;arcSize=10;strokeColor=#736782;metaEdit=1;resizable=0;points=[[0.25,0,0],[0.5,0,0],[0.75,0,0],[1,0.25,0],[1,0.5,0],[1,0.75,0],[0.75,1,0],[0.5,1,0],[0.25,1,0],[0,0.75,0],[0,0.5,0],[0,0.25,0]];" vertex="1" parent="1">
            <mxGeometry x="860" y="1320" width="240" height="120" as="geometry" />
          </mxCell>
        </object>
        <object placeholders="1" c4Name="Delivery Provider&#xa;(JustIn)" c4Type="Software System" c4Description="Delivery Provider with payment option (JustIn)" label="&lt;font style=&quot;font-size: 16px&quot;&gt;&lt;b&gt;%c4Name%&lt;/b&gt;&lt;/font&gt;&lt;div&gt;[%c4Type%]&lt;/div&gt;&lt;br&gt;&lt;div&gt;&lt;font style=&quot;font-size: 11px&quot;&gt;&lt;font color=&quot;#cccccc&quot;&gt;%c4Description%&lt;/font&gt;&lt;/div&gt;" id="qG8MQPDBNWbBwP6O2YKQ-17">
          <mxCell style="rounded=1;whiteSpace=wrap;html=1;labelBackgroundColor=none;fillColor=#8C8496;fontColor=#ffffff;align=center;arcSize=10;strokeColor=#736782;metaEdit=1;resizable=0;points=[[0.25,0,0],[0.5,0,0],[0.75,0,0],[1,0.25,0],[1,0.5,0],[1,0.75,0],[0.75,1,0],[0.5,1,0],[0.25,1,0],[0,0.75,0],[0,0.5,0],[0,0.25,0]];" vertex="1" parent="1">
            <mxGeometry x="860" y="1170" width="240" height="120" as="geometry" />
          </mxCell>
        </object>
        <object placeholders="1" c4Name="[Container] Book store" c4Type="SystemScopeBoundary" c4Application="Software System" label="&lt;font style=&quot;font-size: 16px&quot;&gt;&lt;b&gt;&lt;div style=&quot;text-align: left&quot;&gt;%c4Name%&lt;/div&gt;&lt;/b&gt;&lt;/font&gt;&lt;div style=&quot;text-align: left&quot;&gt;[%c4Application%]&lt;/div&gt;" id="qG8MQPDBNWbBwP6O2YKQ-18">
          <mxCell style="rounded=1;fontSize=11;whiteSpace=wrap;html=1;dashed=1;arcSize=20;fillColor=none;strokeColor=#666666;fontColor=#333333;labelBackgroundColor=none;align=left;verticalAlign=bottom;labelBorderColor=none;spacingTop=0;spacing=10;dashPattern=8 4;metaEdit=1;rotatable=0;perimeter=rectanglePerimeter;noLabel=0;labelPadding=0;allowArrows=0;connectable=0;expand=0;recursiveResize=0;editable=1;pointerEvents=0;absoluteArcSize=1;points=[[0.25,0,0],[0.5,0,0],[0.75,0,0],[1,0.25,0],[1,0.5,0],[1,0.75,0],[0.75,1,0],[0.5,1,0],[0.25,1,0],[0,0.75,0],[0,0.5,0],[0,0.25,0]];" vertex="1" parent="1">
            <mxGeometry x="20" y="320" width="1060" height="720" as="geometry" />
          </mxCell>
        </object>
        <mxCell id="Y4I4q_gTd2g8YstP7vWP-4" style="rounded=0;orthogonalLoop=1;jettySize=auto;html=1;entryX=0.5;entryY=0;entryDx=0;entryDy=0;entryPerimeter=0;dashed=1;" edge="1" parent="1" source="YkluDjlk5f_Mb_hV9G_Y-1" target="xLlEq0-MZTT44LFKXULP-1">
          <mxGeometry relative="1" as="geometry" />
        </mxCell>
        <mxCell id="o-wz0sHcYg7aaiis_bC3-4" value="Search, get info, &lt;br&gt;comment, get comment" style="edgeLabel;html=1;align=center;verticalAlign=middle;resizable=0;points=[];" vertex="1" connectable="0" parent="Y4I4q_gTd2g8YstP7vWP-4">
          <mxGeometry x="0.0878" y="-3" relative="1" as="geometry">
            <mxPoint as="offset" />
          </mxGeometry>
        </mxCell>
        <mxCell id="LCjb_cYk9TXoifF9tjoW-2" value="add/remove to card,&lt;br&gt;set quantity" style="rounded=0;orthogonalLoop=1;jettySize=auto;html=1;exitX=0.25;exitY=1;exitDx=0;exitDy=0;exitPerimeter=0;entryX=0.5;entryY=0;entryDx=0;entryDy=0;entryPerimeter=0;dashed=1;" edge="1" parent="1" source="YkluDjlk5f_Mb_hV9G_Y-1" target="LCjb_cYk9TXoifF9tjoW-1">
          <mxGeometry relative="1" as="geometry" />
        </mxCell>
        <mxCell id="LiBRinqYCYq_3QDJIPBq-1" style="rounded=0;orthogonalLoop=1;jettySize=auto;html=1;exitX=0.75;exitY=1;exitDx=0;exitDy=0;exitPerimeter=0;entryX=0.5;entryY=0;entryDx=0;entryDy=0;entryPerimeter=0;dashed=1;" edge="1" parent="1" source="YkluDjlk5f_Mb_hV9G_Y-1" target="LCjb_cYk9TXoifF9tjoW-3">
          <mxGeometry relative="1" as="geometry" />
        </mxCell>
        <mxCell id="o-wz0sHcYg7aaiis_bC3-6" value="create order,&lt;br&gt;provide user info.&lt;br&gt;initiate payment,&lt;br&gt;provide shippment address" style="edgeLabel;html=1;align=center;verticalAlign=middle;resizable=0;points=[];" vertex="1" connectable="0" parent="LiBRinqYCYq_3QDJIPBq-1">
          <mxGeometry x="-0.1693" y="-1" relative="1" as="geometry">
            <mxPoint y="4" as="offset" />
          </mxGeometry>
        </mxCell>
        <mxCell id="3UYJoDj2zcJQyMzjW3Ln-2" value="get Profile" style="edgeStyle=orthogonalEdgeStyle;rounded=0;orthogonalLoop=1;jettySize=auto;html=1;exitX=0;exitY=0.5;exitDx=0;exitDy=0;exitPerimeter=0;entryX=1;entryY=0.5;entryDx=0;entryDy=0;entryPerimeter=0;fillColor=#d80073;strokeColor=#000000;dashed=1;" edge="1" parent="1" source="YkluDjlk5f_Mb_hV9G_Y-1" target="aHRAgLKtYnyQeW5dbSk4-3">
          <mxGeometry relative="1" as="geometry">
            <mxPoint x="360" y="420" as="targetPoint" />
          </mxGeometry>
        </mxCell>
        <mxCell id="3UYJoDj2zcJQyMzjW3Ln-3" value="AuthZ" style="edgeStyle=orthogonalEdgeStyle;rounded=0;orthogonalLoop=1;jettySize=auto;html=1;exitX=1;exitY=0.5;exitDx=0;exitDy=0;exitPerimeter=0;entryX=0;entryY=0.5;entryDx=0;entryDy=0;entryPerimeter=0;fillColor=#f8cecc;strokeColor=#000000;dashed=1;" edge="1" parent="1" source="YkluDjlk5f_Mb_hV9G_Y-1" target="YkluDjlk5f_Mb_hV9G_Y-2">
          <mxGeometry relative="1" as="geometry" />
        </mxCell>
        <object placeholders="1" c4Name="Customer Panel &#xa;(Single-Page Application) " c4Type="Container" c4Technology="e.g. Angular, JS" c4Description="Customer facing user interface application" label="&lt;font style=&quot;font-size: 16px&quot;&gt;&lt;b&gt;%c4Name%&lt;/b&gt;&lt;/font&gt;&lt;div&gt;[%c4Type%: %c4Technology%]&lt;/div&gt;&lt;br&gt;&lt;div&gt;&lt;font style=&quot;font-size: 11px&quot;&gt;&lt;font color=&quot;#E6E6E6&quot;&gt;%c4Description%&lt;/font&gt;&lt;/div&gt;" id="YkluDjlk5f_Mb_hV9G_Y-1">
          <mxCell style="rounded=1;whiteSpace=wrap;html=1;fontSize=11;labelBackgroundColor=none;fillColor=#23A2D9;fontColor=#ffffff;align=center;arcSize=10;strokeColor=#0E7DAD;metaEdit=1;resizable=0;points=[[0.25,0,0],[0.5,0,0],[0.75,0,0],[1,0.25,0],[1,0.5,0],[1,0.75,0],[0.75,1,0],[0.5,1,0],[0.25,1,0],[0,0.75,0],[0,0.5,0],[0,0.25,0]];" vertex="1" parent="1">
            <mxGeometry x="440" y="340" width="240" height="120" as="geometry" />
          </mxCell>
        </object>
        <object placeholders="1" c4Name="AuthN/AuthZ Service" c4Type="Container" c4Technology="e.g. Spring, Java" c4Description="Application for managin authentication and authorization for stackholders" label="&lt;font style=&quot;font-size: 16px&quot;&gt;&lt;b&gt;%c4Name%&lt;/b&gt;&lt;/font&gt;&lt;div&gt;[%c4Type%: %c4Technology%]&lt;/div&gt;&lt;br&gt;&lt;div&gt;&lt;font style=&quot;font-size: 11px&quot;&gt;&lt;font color=&quot;#E6E6E6&quot;&gt;%c4Description%&lt;/font&gt;&lt;/div&gt;" id="YkluDjlk5f_Mb_hV9G_Y-2">
          <mxCell style="rounded=1;whiteSpace=wrap;html=1;fontSize=11;labelBackgroundColor=none;fillColor=#23A2D9;fontColor=#ffffff;align=center;arcSize=10;strokeColor=#0E7DAD;metaEdit=1;resizable=0;points=[[0.25,0,0],[0.5,0,0],[0.75,0,0],[1,0.25,0],[1,0.5,0],[1,0.75,0],[0.75,1,0],[0.5,1,0],[0.25,1,0],[0,0.75,0],[0,0.5,0],[0,0.25,0]];" vertex="1" parent="1">
            <mxGeometry x="760" y="340" width="240" height="120" as="geometry" />
          </mxCell>
        </object>
        <mxCell id="VRQF55pDr3B7hKbkiFs0-2" style="rounded=0;orthogonalLoop=1;jettySize=auto;html=1;exitX=0.25;exitY=1;exitDx=0;exitDy=0;exitPerimeter=0;dashed=1;entryX=0.75;entryY=0;entryDx=0;entryDy=0;entryPerimeter=0;" edge="1" parent="1" source="YkluDjlk5f_Mb_hV9G_Y-1" target="VRQF55pDr3B7hKbkiFs0-1">
          <mxGeometry relative="1" as="geometry" />
        </mxCell>
        <mxCell id="o-wz0sHcYg7aaiis_bC3-5" value="get available &lt;br&gt;quantity" style="edgeLabel;html=1;align=center;verticalAlign=middle;resizable=0;points=[];" vertex="1" connectable="0" parent="VRQF55pDr3B7hKbkiFs0-2">
          <mxGeometry x="-0.0901" y="-3" relative="1" as="geometry">
            <mxPoint as="offset" />
          </mxGeometry>
        </mxCell>
        <object placeholders="1" c4Name="Book Service" c4Type="Container" c4Technology="e.g. Spring, Java" c4Description="Book servise performs search, create, delete operation, manages comments for books and their price" label="&lt;font style=&quot;font-size: 16px&quot;&gt;&lt;b&gt;%c4Name%&lt;/b&gt;&lt;/font&gt;&lt;div&gt;[%c4Type%: %c4Technology%]&lt;/div&gt;&lt;br&gt;&lt;div&gt;&lt;font style=&quot;font-size: 11px&quot;&gt;&lt;font color=&quot;#E6E6E6&quot;&gt;%c4Description%&lt;/font&gt;&lt;/div&gt;" id="xLlEq0-MZTT44LFKXULP-1">
          <mxCell style="rounded=1;whiteSpace=wrap;html=1;fontSize=11;labelBackgroundColor=none;fillColor=#23A2D9;fontColor=#ffffff;align=center;arcSize=10;strokeColor=#0E7DAD;metaEdit=1;resizable=0;points=[[0.25,0,0],[0.5,0,0],[0.75,0,0],[1,0.25,0],[1,0.5,0],[1,0.75,0],[0.75,1,0],[0.5,1,0],[0.25,1,0],[0,0.75,0],[0,0.5,0],[0,0.25,0]];" vertex="1" parent="1">
            <mxGeometry x="440" y="560" width="240" height="120" as="geometry" />
          </mxCell>
        </object>
        <object placeholders="1" c4Name="Card Service" c4Type="Container" c4Technology="e.g. Spring, Java" c4Description="Application for managing cards (Storing)" label="&lt;font style=&quot;font-size: 16px&quot;&gt;&lt;b&gt;%c4Name%&lt;/b&gt;&lt;/font&gt;&lt;div&gt;[%c4Type%: %c4Technology%]&lt;/div&gt;&lt;br&gt;&lt;div&gt;&lt;font style=&quot;font-size: 11px&quot;&gt;&lt;font color=&quot;#E6E6E6&quot;&gt;%c4Description%&lt;/font&gt;&lt;/div&gt;" id="LCjb_cYk9TXoifF9tjoW-1">
          <mxCell style="rounded=1;whiteSpace=wrap;html=1;fontSize=11;labelBackgroundColor=none;fillColor=#23A2D9;fontColor=#ffffff;align=center;arcSize=10;strokeColor=#0E7DAD;metaEdit=1;resizable=0;points=[[0.25,0,0],[0.5,0,0],[0.75,0,0],[1,0.25,0],[1,0.5,0],[1,0.75,0],[0.75,1,0],[0.5,1,0],[0.25,1,0],[0,0.75,0],[0,0.5,0],[0,0.25,0]];" vertex="1" parent="1">
            <mxGeometry x="80" y="560" width="240" height="120" as="geometry" />
          </mxCell>
        </object>
        <mxCell id="0aHPVPLOW56wksUlam8V-1" style="rounded=0;orthogonalLoop=1;jettySize=auto;html=1;exitX=0.75;exitY=0;exitDx=0;exitDy=0;exitPerimeter=0;entryX=0.75;entryY=1;entryDx=0;entryDy=0;entryPerimeter=0;dashed=1;edgeStyle=orthogonalEdgeStyle;" edge="1" parent="1" source="LCjb_cYk9TXoifF9tjoW-3" target="qG8MQPDBNWbBwP6O2YKQ-14">
          <mxGeometry relative="1" as="geometry">
            <Array as="points">
              <mxPoint x="940" y="520" />
              <mxPoint x="1060" y="520" />
            </Array>
          </mxGeometry>
        </mxCell>
        <mxCell id="o-wz0sHcYg7aaiis_bC3-8" value="generete &lt;br&gt;payment link" style="edgeLabel;html=1;align=center;verticalAlign=middle;resizable=0;points=[];" vertex="1" connectable="0" parent="0aHPVPLOW56wksUlam8V-1">
          <mxGeometry x="0.1341" y="-3" relative="1" as="geometry">
            <mxPoint x="-3" y="-120" as="offset" />
          </mxGeometry>
        </mxCell>
        <mxCell id="0aHPVPLOW56wksUlam8V-2" style="rounded=0;orthogonalLoop=1;jettySize=auto;html=1;exitX=1;exitY=0.25;exitDx=0;exitDy=0;exitPerimeter=0;dashed=1;edgeStyle=orthogonalEdgeStyle;entryX=1;entryY=0.5;entryDx=0;entryDy=0;entryPerimeter=0;" edge="1" parent="1" source="LCjb_cYk9TXoifF9tjoW-3" target="qG8MQPDBNWbBwP6O2YKQ-15">
          <mxGeometry relative="1" as="geometry">
            <Array as="points">
              <mxPoint x="1150" y="590" />
              <mxPoint x="1150" y="1540" />
            </Array>
          </mxGeometry>
        </mxCell>
        <mxCell id="o-wz0sHcYg7aaiis_bC3-9" value="deliver&amp;nbsp;&lt;br&gt;payment" style="edgeLabel;html=1;align=center;verticalAlign=middle;resizable=0;points=[];" vertex="1" connectable="0" parent="0aHPVPLOW56wksUlam8V-2">
          <mxGeometry x="0.157" relative="1" as="geometry">
            <mxPoint x="-30" y="402" as="offset" />
          </mxGeometry>
        </mxCell>
        <mxCell id="0aHPVPLOW56wksUlam8V-3" style="rounded=0;orthogonalLoop=1;jettySize=auto;html=1;exitX=1;exitY=0.5;exitDx=0;exitDy=0;exitPerimeter=0;entryX=1;entryY=0.5;entryDx=0;entryDy=0;entryPerimeter=0;dashed=1;edgeStyle=orthogonalEdgeStyle;" edge="1" parent="1" source="LCjb_cYk9TXoifF9tjoW-3" target="qG8MQPDBNWbBwP6O2YKQ-16">
          <mxGeometry relative="1" as="geometry">
            <Array as="points">
              <mxPoint x="1140" y="620" />
              <mxPoint x="1140" y="1380" />
            </Array>
          </mxGeometry>
        </mxCell>
        <mxCell id="o-wz0sHcYg7aaiis_bC3-10" value="deliver&amp;nbsp;&lt;br style=&quot;border-color: var(--border-color);&quot;&gt;payment" style="edgeLabel;html=1;align=center;verticalAlign=middle;resizable=0;points=[];" vertex="1" connectable="0" parent="0aHPVPLOW56wksUlam8V-3">
          <mxGeometry x="0.1369" y="-1" relative="1" as="geometry">
            <mxPoint x="-19" y="386" as="offset" />
          </mxGeometry>
        </mxCell>
        <mxCell id="0aHPVPLOW56wksUlam8V-4" value="&lt;span style=&quot;color: rgb(0, 0, 0); font-family: Helvetica; font-size: 11px; font-style: normal; font-variant-ligatures: normal; font-variant-caps: normal; font-weight: 400; letter-spacing: normal; orphans: 2; text-align: center; text-indent: 0px; text-transform: none; widows: 2; word-spacing: 0px; -webkit-text-stroke-width: 0px; background-color: rgb(255, 255, 255); text-decoration-thickness: initial; text-decoration-style: initial; text-decoration-color: initial; float: none; display: inline !important;&quot;&gt;deliver&amp;nbsp;&lt;/span&gt;&lt;br style=&quot;border-color: var(--border-color); color: rgb(0, 0, 0); font-family: Helvetica; font-size: 11px; font-style: normal; font-variant-ligatures: normal; font-variant-caps: normal; font-weight: 400; letter-spacing: normal; orphans: 2; text-align: center; text-indent: 0px; text-transform: none; widows: 2; word-spacing: 0px; -webkit-text-stroke-width: 0px; text-decoration-thickness: initial; text-decoration-style: initial; text-decoration-color: initial;&quot;&gt;&lt;span style=&quot;color: rgb(0, 0, 0); font-family: Helvetica; font-size: 11px; font-style: normal; font-variant-ligatures: normal; font-variant-caps: normal; font-weight: 400; letter-spacing: normal; orphans: 2; text-align: center; text-indent: 0px; text-transform: none; widows: 2; word-spacing: 0px; -webkit-text-stroke-width: 0px; background-color: rgb(255, 255, 255); text-decoration-thickness: initial; text-decoration-style: initial; text-decoration-color: initial; float: none; display: inline !important;&quot;&gt;payment&lt;/span&gt;" style="rounded=0;orthogonalLoop=1;jettySize=auto;html=1;exitX=1;exitY=0.75;exitDx=0;exitDy=0;exitPerimeter=0;entryX=1;entryY=0.5;entryDx=0;entryDy=0;entryPerimeter=0;dashed=1;edgeStyle=orthogonalEdgeStyle;" edge="1" parent="1" source="LCjb_cYk9TXoifF9tjoW-3" target="qG8MQPDBNWbBwP6O2YKQ-17">
          <mxGeometry x="0.7067" y="-10" relative="1" as="geometry">
            <mxPoint as="offset" />
          </mxGeometry>
        </mxCell>
        <mxCell id="o-wz0sHcYg7aaiis_bC3-2" style="edgeStyle=orthogonalEdgeStyle;rounded=0;orthogonalLoop=1;jettySize=auto;html=1;exitX=0.5;exitY=1;exitDx=0;exitDy=0;exitPerimeter=0;dashed=1;" edge="1" parent="1" source="LCjb_cYk9TXoifF9tjoW-3" target="o-wz0sHcYg7aaiis_bC3-1">
          <mxGeometry relative="1" as="geometry" />
        </mxCell>
        <mxCell id="o-wz0sHcYg7aaiis_bC3-7" value="generates event" style="edgeLabel;html=1;align=center;verticalAlign=middle;resizable=0;points=[];" vertex="1" connectable="0" parent="o-wz0sHcYg7aaiis_bC3-2">
          <mxGeometry x="-0.1996" y="-2" relative="1" as="geometry">
            <mxPoint as="offset" />
          </mxGeometry>
        </mxCell>
        <object placeholders="1" c4Name="Order Service" c4Type="Container" c4Technology="e.g. Spring, Java" c4Description="Manages customer orders, integrates with payment and delivery supplier" label="&lt;font style=&quot;font-size: 16px&quot;&gt;&lt;b&gt;%c4Name%&lt;/b&gt;&lt;/font&gt;&lt;div&gt;[%c4Type%: %c4Technology%]&lt;/div&gt;&lt;br&gt;&lt;div&gt;&lt;font style=&quot;font-size: 11px&quot;&gt;&lt;font color=&quot;#E6E6E6&quot;&gt;%c4Description%&lt;/font&gt;&lt;/div&gt;" id="LCjb_cYk9TXoifF9tjoW-3">
          <mxCell style="rounded=1;whiteSpace=wrap;html=1;fontSize=11;labelBackgroundColor=none;fillColor=#23A2D9;fontColor=#ffffff;align=center;arcSize=10;strokeColor=#0E7DAD;metaEdit=1;resizable=0;points=[[0.25,0,0],[0.5,0,0],[0.75,0,0],[1,0.25,0],[1,0.5,0],[1,0.75,0],[0.75,1,0],[0.5,1,0],[0.25,1,0],[0,0.75,0],[0,0.5,0],[0,0.25,0]];" vertex="1" parent="1">
            <mxGeometry x="760" y="560" width="240" height="120" as="geometry" />
          </mxCell>
        </object>
        <object placeholders="1" c4Name="User Service" c4Type="Container" c4Technology="e.g. Spring, Java" c4Description="Aplication for creating, updating, deleting user profiles. Manages user roles. Contains user identificator" label="&lt;font style=&quot;font-size: 16px&quot;&gt;&lt;b&gt;%c4Name%&lt;/b&gt;&lt;/font&gt;&lt;div&gt;[%c4Type%: %c4Technology%]&lt;/div&gt;&lt;br&gt;&lt;div&gt;&lt;font style=&quot;font-size: 11px&quot;&gt;&lt;font color=&quot;#E6E6E6&quot;&gt;%c4Description%&lt;/font&gt;&lt;/div&gt;" id="aHRAgLKtYnyQeW5dbSk4-3">
          <mxCell style="rounded=1;whiteSpace=wrap;html=1;fontSize=11;labelBackgroundColor=none;fillColor=#23A2D9;fontColor=#ffffff;align=center;arcSize=10;strokeColor=#0E7DAD;metaEdit=1;resizable=0;points=[[0.25,0,0],[0.5,0,0],[0.75,0,0],[1,0.25,0],[1,0.5,0],[1,0.75,0],[0.75,1,0],[0.5,1,0],[0.25,1,0],[0,0.75,0],[0,0.5,0],[0,0.25,0]];" vertex="1" parent="1">
            <mxGeometry x="80" y="340" width="240" height="120" as="geometry" />
          </mxCell>
        </object>
        <object placeholders="1" c4Name="Warehouse service" c4Type="Container" c4Technology="e.g. Spring, Java" c4Description="Provider information for available book items" label="&lt;font style=&quot;font-size: 16px&quot;&gt;&lt;b&gt;%c4Name%&lt;/b&gt;&lt;/font&gt;&lt;div&gt;[%c4Type%: %c4Technology%]&lt;/div&gt;&lt;br&gt;&lt;div&gt;&lt;font style=&quot;font-size: 11px&quot;&gt;&lt;font color=&quot;#E6E6E6&quot;&gt;%c4Description%&lt;/font&gt;&lt;/div&gt;" id="VRQF55pDr3B7hKbkiFs0-1">
          <mxCell style="rounded=1;whiteSpace=wrap;html=1;fontSize=11;labelBackgroundColor=none;fillColor=#23A2D9;fontColor=#ffffff;align=center;arcSize=10;strokeColor=#0E7DAD;metaEdit=1;resizable=0;points=[[0.25,0,0],[0.5,0,0],[0.75,0,0],[1,0.25,0],[1,0.5,0],[1,0.75,0],[0.75,1,0],[0.5,1,0],[0.25,1,0],[0,0.75,0],[0,0.5,0],[0,0.25,0]];" vertex="1" parent="1">
            <mxGeometry x="80" y="840" width="240" height="120" as="geometry" />
          </mxCell>
        </object>
        <object placeholders="1" c4Name="Analytic Service" c4Type="Container" c4Technology="e.g. Spring, Java" c4Description="Provides serching ability and generating reports" label="&lt;font style=&quot;font-size: 16px&quot;&gt;&lt;b&gt;%c4Name%&lt;/b&gt;&lt;/font&gt;&lt;div&gt;[%c4Type%: %c4Technology%]&lt;/div&gt;&lt;br&gt;&lt;div&gt;&lt;font style=&quot;font-size: 11px&quot;&gt;&lt;font color=&quot;#E6E6E6&quot;&gt;%c4Description%&lt;/font&gt;&lt;/div&gt;" id="ak2u3gOXqU6Be74LGXZn-1">
          <mxCell style="rounded=1;whiteSpace=wrap;html=1;fontSize=11;labelBackgroundColor=none;fillColor=#23A2D9;fontColor=#ffffff;align=center;arcSize=10;strokeColor=#0E7DAD;metaEdit=1;resizable=0;points=[[0.25,0,0],[0.5,0,0],[0.75,0,0],[1,0.25,0],[1,0.5,0],[1,0.75,0],[0.75,1,0],[0.5,1,0],[0.25,1,0],[0,0.75,0],[0,0.5,0],[0,0.25,0]];" vertex="1" parent="1">
            <mxGeometry x="760" y="840" width="240" height="120" as="geometry" />
          </mxCell>
        </object>
        <mxCell id="nXBovGSlvxod3HxrNBkK-1" value="set available &lt;br&gt;quantity" style="rounded=0;orthogonalLoop=1;jettySize=auto;html=1;exitX=0;exitY=0.5;exitDx=0;exitDy=0;exitPerimeter=0;entryX=1;entryY=0.5;entryDx=0;entryDy=0;entryPerimeter=0;dashed=1;" edge="1" parent="1" source="0aHPVPLOW56wksUlam8V-5" target="VRQF55pDr3B7hKbkiFs0-1">
          <mxGeometry relative="1" as="geometry" />
        </mxCell>
        <mxCell id="o-wz0sHcYg7aaiis_bC3-11" value="generate&amp;nbsp;&lt;br&gt;reports" style="edgeStyle=orthogonalEdgeStyle;rounded=0;orthogonalLoop=1;jettySize=auto;html=1;exitX=1;exitY=0.5;exitDx=0;exitDy=0;exitPerimeter=0;entryX=0;entryY=0.5;entryDx=0;entryDy=0;entryPerimeter=0;dashed=1;" edge="1" parent="1" source="0aHPVPLOW56wksUlam8V-5" target="ak2u3gOXqU6Be74LGXZn-1">
          <mxGeometry relative="1" as="geometry" />
        </mxCell>
        <mxCell id="o-wz0sHcYg7aaiis_bC3-13" style="rounded=0;orthogonalLoop=1;jettySize=auto;html=1;exitX=0.5;exitY=0;exitDx=0;exitDy=0;exitPerimeter=0;entryX=0.5;entryY=1;entryDx=0;entryDy=0;entryPerimeter=0;dashed=1;" edge="1" parent="1" source="0aHPVPLOW56wksUlam8V-5" target="xLlEq0-MZTT44LFKXULP-1">
          <mxGeometry relative="1" as="geometry" />
        </mxCell>
        <mxCell id="o-wz0sHcYg7aaiis_bC3-15" value="manages books,&lt;br&gt;manages comments&lt;br&gt;manages prices" style="edgeLabel;html=1;align=center;verticalAlign=middle;resizable=0;points=[];" vertex="1" connectable="0" parent="o-wz0sHcYg7aaiis_bC3-13">
          <mxGeometry x="0.4434" y="1" relative="1" as="geometry">
            <mxPoint as="offset" />
          </mxGeometry>
        </mxCell>
        <mxCell id="o-wz0sHcYg7aaiis_bC3-14" value="cancel order.&lt;br&gt;modify user info" style="rounded=0;orthogonalLoop=1;jettySize=auto;html=1;exitX=0.5;exitY=0;exitDx=0;exitDy=0;exitPerimeter=0;entryX=0.25;entryY=1;entryDx=0;entryDy=0;entryPerimeter=0;dashed=1;" edge="1" parent="1" source="0aHPVPLOW56wksUlam8V-5" target="LCjb_cYk9TXoifF9tjoW-3">
          <mxGeometry relative="1" as="geometry" />
        </mxCell>
        <mxCell id="o-wz0sHcYg7aaiis_bC3-18" style="rounded=0;orthogonalLoop=1;jettySize=auto;html=1;entryX=1;entryY=0.75;entryDx=0;entryDy=0;entryPerimeter=0;dashed=1;fillColor=#d80073;strokeColor=#A50040;exitX=0.75;exitY=1;exitDx=0;exitDy=0;exitPerimeter=0;edgeStyle=orthogonalEdgeStyle;" edge="1" parent="1" source="0aHPVPLOW56wksUlam8V-5" target="YkluDjlk5f_Mb_hV9G_Y-2">
          <mxGeometry relative="1" as="geometry">
            <mxPoint x="560" y="840" as="sourcePoint" />
          </mxGeometry>
        </mxCell>
        <mxCell id="o-wz0sHcYg7aaiis_bC3-21" value="AuthZ" style="edgeLabel;html=1;align=center;verticalAlign=middle;resizable=0;points=[];" vertex="1" connectable="0" parent="o-wz0sHcYg7aaiis_bC3-18">
          <mxGeometry x="-0.5353" y="-1" relative="1" as="geometry">
            <mxPoint x="-1" as="offset" />
          </mxGeometry>
        </mxCell>
        <mxCell id="o-wz0sHcYg7aaiis_bC3-19" style="rounded=0;orthogonalLoop=1;jettySize=auto;html=1;exitX=0.25;exitY=1;exitDx=0;exitDy=0;exitPerimeter=0;entryX=0;entryY=0.5;entryDx=0;entryDy=0;entryPerimeter=0;fillColor=#d80073;strokeColor=#000000;edgeStyle=orthogonalEdgeStyle;dashed=1;" edge="1" parent="1" source="0aHPVPLOW56wksUlam8V-5" target="aHRAgLKtYnyQeW5dbSk4-3">
          <mxGeometry relative="1" as="geometry" />
        </mxCell>
        <mxCell id="o-wz0sHcYg7aaiis_bC3-20" value="get profile" style="edgeLabel;html=1;align=center;verticalAlign=middle;resizable=0;points=[];" vertex="1" connectable="0" parent="o-wz0sHcYg7aaiis_bC3-19">
          <mxGeometry x="-0.3535" y="-3" relative="1" as="geometry">
            <mxPoint x="43" y="3" as="offset" />
          </mxGeometry>
        </mxCell>
        <object placeholders="1" c4Name="Admin Panel &#xa;(Single-Page Application) " c4Type="Container" c4Technology="e.g. Angular, JS" c4Description="Admin (stuff) facing user interface application" label="&lt;font style=&quot;font-size: 16px&quot;&gt;&lt;b&gt;%c4Name%&lt;/b&gt;&lt;/font&gt;&lt;div&gt;[%c4Type%: %c4Technology%]&lt;/div&gt;&lt;br&gt;&lt;div&gt;&lt;font style=&quot;font-size: 11px&quot;&gt;&lt;font color=&quot;#E6E6E6&quot;&gt;%c4Description%&lt;/font&gt;&lt;/div&gt;" id="0aHPVPLOW56wksUlam8V-5">
          <mxCell style="rounded=1;whiteSpace=wrap;html=1;fontSize=11;labelBackgroundColor=none;fillColor=#23A2D9;fontColor=#ffffff;align=center;arcSize=10;strokeColor=#0E7DAD;metaEdit=1;resizable=0;points=[[0.25,0,0],[0.5,0,0],[0.75,0,0],[1,0.25,0],[1,0.5,0],[1,0.75,0],[0.75,1,0],[0.5,1,0],[0.25,1,0],[0,0.75,0],[0,0.5,0],[0,0.25,0]];" vertex="1" parent="1">
            <mxGeometry x="440" y="840" width="240" height="120" as="geometry" />
          </mxCell>
        </object>
        <mxCell id="o-wz0sHcYg7aaiis_bC3-3" value="consumes events&amp;nbsp;&lt;br&gt;of orders" style="edgeStyle=orthogonalEdgeStyle;rounded=0;orthogonalLoop=1;jettySize=auto;html=1;entryX=0.5;entryY=0;entryDx=0;entryDy=0;entryPerimeter=0;dashed=1;" edge="1" parent="1" source="o-wz0sHcYg7aaiis_bC3-1" target="ak2u3gOXqU6Be74LGXZn-1">
          <mxGeometry relative="1" as="geometry" />
        </mxCell>
        <mxCell id="o-wz0sHcYg7aaiis_bC3-1" value="" style="sketch=0;outlineConnect=0;fontColor=#232F3E;gradientColor=none;fillColor=#B0084D;strokeColor=none;dashed=0;verticalLabelPosition=bottom;verticalAlign=top;align=center;html=1;fontSize=12;fontStyle=0;aspect=fixed;pointerEvents=1;shape=mxgraph.aws4.queue;" vertex="1" parent="1">
          <mxGeometry x="841" y="730" width="78" height="47" as="geometry" />
        </mxCell>
        <mxCell id="o-wz0sHcYg7aaiis_bC3-17" value="visit via &lt;br&gt;HTTP/HTTPS" style="edgeStyle=orthogonalEdgeStyle;rounded=0;orthogonalLoop=1;jettySize=auto;html=1;exitX=0.5;exitY=0;exitDx=0;exitDy=0;exitPerimeter=0;entryX=0.5;entryY=1;entryDx=0;entryDy=0;entryPerimeter=0;dashed=1;" edge="1" parent="1" source="o-wz0sHcYg7aaiis_bC3-16" target="0aHPVPLOW56wksUlam8V-5">
          <mxGeometry x="-0.1111" relative="1" as="geometry">
            <mxPoint as="offset" />
          </mxGeometry>
        </mxCell>
        <mxCell id="o-wz0sHcYg7aaiis_bC3-24" style="edgeStyle=orthogonalEdgeStyle;rounded=0;orthogonalLoop=1;jettySize=auto;html=1;exitX=1;exitY=0.5;exitDx=0;exitDy=0;exitPerimeter=0;entryX=1.003;entryY=0.438;entryDx=0;entryDy=0;entryPerimeter=0;dashed=1;fillColor=#f8cecc;strokeColor=#b85450;" edge="1" parent="1" source="o-wz0sHcYg7aaiis_bC3-16" target="YkluDjlk5f_Mb_hV9G_Y-2">
          <mxGeometry relative="1" as="geometry">
            <Array as="points">
              <mxPoint x="1040" y="1140" />
              <mxPoint x="1040" y="393" />
            </Array>
          </mxGeometry>
        </mxCell>
        <mxCell id="rWmZxn_d5EzNR8KnfHvb-1" value="AuthN" style="edgeLabel;html=1;align=center;verticalAlign=middle;resizable=0;points=[];" vertex="1" connectable="0" parent="o-wz0sHcYg7aaiis_bC3-24">
          <mxGeometry x="-0.7116" y="3" relative="1" as="geometry">
            <mxPoint x="-1" y="1" as="offset" />
          </mxGeometry>
        </mxCell>
        <object placeholders="1" c4Name="Book store Stuff" c4Type="Person" c4Description="Warehouse Stuff, Support, Analytic of the book store" label="&lt;font style=&quot;font-size: 16px&quot;&gt;&lt;b&gt;%c4Name%&lt;/b&gt;&lt;/font&gt;&lt;div&gt;[%c4Type%]&lt;/div&gt;&lt;br&gt;&lt;div&gt;&lt;font style=&quot;font-size: 11px&quot;&gt;&lt;font&gt;%c4Description%&lt;/font&gt;&lt;/font&gt;&lt;/div&gt;" id="o-wz0sHcYg7aaiis_bC3-16">
          <mxCell style="html=1;fontSize=11;dashed=0;whiteSpace=wrap;fillColor=#a20025;strokeColor=#6F0000;shape=mxgraph.c4.person2;align=center;metaEdit=1;points=[[0.5,0,0],[1,0.5,0],[1,0.75,0],[0.75,1,0],[0.5,1,0],[0.25,1,0],[0,0.75,0],[0,0.5,0]];resizable=0;fontColor=#ffffff;" vertex="1" parent="1">
            <mxGeometry x="460" y="1050" width="200" height="180" as="geometry" />
          </mxCell>
        </object>
        <mxCell id="YVw7tAMX9Au31Vtlv6XD-1" value="&lt;h1&gt;[Container] Book Service&lt;/h1&gt;" style="text;html=1;strokeColor=none;fillColor=none;spacing=5;spacingTop=-20;whiteSpace=wrap;overflow=hidden;rounded=0;" vertex="1" parent="1">
          <mxGeometry x="30" y="1560" width="530" height="50" as="geometry" />
        </mxCell>
      </root>
    </mxGraphModel>
  </diagram>
  <diagram id="nk2TKHYSZm1IJi8dmVT9" name="C4-Component-UserService">
    <mxGraphModel dx="1434" dy="956" grid="1" gridSize="10" guides="1" tooltips="1" connect="1" arrows="1" fold="1" page="1" pageScale="1" pageWidth="1169" pageHeight="1654" math="0" shadow="0">
      <root>
        <mxCell id="0" />
        <mxCell id="1" parent="0" />
        <object placeholders="1" c4Name="User Service" c4Type="SystemScopeBoundary" c4Application="Container" label="&lt;font style=&quot;font-size: 16px&quot;&gt;&lt;b&gt;&lt;div style=&quot;text-align: left&quot;&gt;%c4Name%&lt;/div&gt;&lt;/b&gt;&lt;/font&gt;&lt;div style=&quot;text-align: left&quot;&gt;[%c4Application%]&lt;/div&gt;" id="MoT9ciT9AZSu4MsG7wTt-1">
          <mxCell style="rounded=1;fontSize=11;whiteSpace=wrap;html=1;dashed=1;arcSize=20;fillColor=none;strokeColor=#666666;fontColor=#333333;labelBackgroundColor=none;align=left;verticalAlign=bottom;labelBorderColor=none;spacingTop=0;spacing=10;dashPattern=8 4;metaEdit=1;rotatable=0;perimeter=rectanglePerimeter;noLabel=0;labelPadding=0;allowArrows=0;connectable=0;expand=0;recursiveResize=0;editable=1;pointerEvents=0;absoluteArcSize=1;points=[[0.25,0,0],[0.5,0,0],[0.75,0,0],[1,0.25,0],[1,0.5,0],[1,0.75,0],[0.75,1,0],[0.5,1,0],[0.25,1,0],[0,0.75,0],[0,0.5,0],[0,0.25,0]];" vertex="1" parent="1">
            <mxGeometry x="200" y="280" width="400" height="390" as="geometry" />
          </mxCell>
        </object>
        <mxCell id="Jfol2cQyiaqo5JyOCdc4-1" style="rounded=0;orthogonalLoop=1;jettySize=auto;html=1;exitX=0.5;exitY=1;exitDx=0;exitDy=0;exitPerimeter=0;entryX=0.5;entryY=0;entryDx=0;entryDy=0;entryPerimeter=0;dashed=1;" edge="1" parent="1" source="xDd2BPndh1Lx4g0_1Lr--1" target="iFwjsEh7E08w5iqScAAP-2">
          <mxGeometry relative="1" as="geometry" />
        </mxCell>
        <mxCell id="-qXmGe66yLie40_qLbhQ-3" value="Create, Read, Update, Delete" style="edgeLabel;html=1;align=center;verticalAlign=middle;resizable=0;points=[];" vertex="1" connectable="0" parent="Jfol2cQyiaqo5JyOCdc4-1">
          <mxGeometry x="0.3892" y="-1" relative="1" as="geometry">
            <mxPoint x="-59" y="-52" as="offset" />
          </mxGeometry>
        </mxCell>
        <object placeholders="1" c4Name="Customer Panel &#xa;(Single-Page Application) " c4Type="Container" c4Technology="e.g. Angular, JS" c4Description="Customer facing user interface application" label="&lt;font style=&quot;font-size: 16px&quot;&gt;&lt;b&gt;%c4Name%&lt;/b&gt;&lt;/font&gt;&lt;div&gt;[%c4Type%: %c4Technology%]&lt;/div&gt;&lt;br&gt;&lt;div&gt;&lt;font style=&quot;font-size: 11px&quot;&gt;&lt;font color=&quot;#E6E6E6&quot;&gt;%c4Description%&lt;/font&gt;&lt;/div&gt;" id="xDd2BPndh1Lx4g0_1Lr--1">
          <mxCell style="rounded=1;whiteSpace=wrap;html=1;fontSize=11;labelBackgroundColor=none;fillColor=#23A2D9;fontColor=#ffffff;align=center;arcSize=10;strokeColor=#0E7DAD;metaEdit=1;resizable=0;points=[[0.25,0,0],[0.5,0,0],[0.75,0,0],[1,0.25,0],[1,0.5,0],[1,0.75,0],[0.75,1,0],[0.5,1,0],[0.25,1,0],[0,0.75,0],[0,0.5,0],[0,0.25,0]];" vertex="1" parent="1">
            <mxGeometry x="160" y="40" width="240" height="120" as="geometry" />
          </mxCell>
        </object>
        <mxCell id="JxlKFJUhM0fs6LaucWHj-1" style="rounded=0;orthogonalLoop=1;jettySize=auto;html=1;exitX=0.5;exitY=1;exitDx=0;exitDy=0;exitPerimeter=0;entryX=0.5;entryY=0;entryDx=0;entryDy=0;entryPerimeter=0;dashed=1;" edge="1" parent="1" source="iFwjsEh7E08w5iqScAAP-1" target="iFwjsEh7E08w5iqScAAP-2">
          <mxGeometry relative="1" as="geometry" />
        </mxCell>
        <object placeholders="1" c4Name="Admin Panel &#xa;(Single-Page Application) " c4Type="Container" c4Technology="e.g. Angular, JS" c4Description="Admin (stuff) facing user interface application" label="&lt;font style=&quot;font-size: 16px&quot;&gt;&lt;b&gt;%c4Name%&lt;/b&gt;&lt;/font&gt;&lt;div&gt;[%c4Type%: %c4Technology%]&lt;/div&gt;&lt;br&gt;&lt;div&gt;&lt;font style=&quot;font-size: 11px&quot;&gt;&lt;font color=&quot;#E6E6E6&quot;&gt;%c4Description%&lt;/font&gt;&lt;/div&gt;" id="iFwjsEh7E08w5iqScAAP-1">
          <mxCell style="rounded=1;whiteSpace=wrap;html=1;fontSize=11;labelBackgroundColor=none;fillColor=#23A2D9;fontColor=#ffffff;align=center;arcSize=10;strokeColor=#0E7DAD;metaEdit=1;resizable=0;points=[[0.25,0,0],[0.5,0,0],[0.75,0,0],[1,0.25,0],[1,0.5,0],[1,0.75,0],[0.75,1,0],[0.5,1,0],[0.25,1,0],[0,0.75,0],[0,0.5,0],[0,0.25,0]];" vertex="1" parent="1">
            <mxGeometry x="440" y="40" width="240" height="120" as="geometry" />
          </mxCell>
        </object>
        <mxCell id="tg2KwB7g8G8Hg8jZ-I67-2" style="edgeStyle=orthogonalEdgeStyle;rounded=0;orthogonalLoop=1;jettySize=auto;html=1;exitX=0.5;exitY=1;exitDx=0;exitDy=0;exitPerimeter=0;" edge="1" parent="1" source="iFwjsEh7E08w5iqScAAP-2" target="tg2KwB7g8G8Hg8jZ-I67-1">
          <mxGeometry relative="1" as="geometry" />
        </mxCell>
        <object placeholders="1" c4Name="UserProfile Controller" c4Type="Component" c4Technology="e.g. Spring Service" c4Description="CRUD for UserProfile" label="&lt;font style=&quot;font-size: 16px&quot;&gt;&lt;b&gt;%c4Name%&lt;/b&gt;&lt;/font&gt;&lt;div&gt;[%c4Type%: %c4Technology%]&lt;/div&gt;&lt;br&gt;&lt;div&gt;&lt;font style=&quot;font-size: 11px&quot;&gt;%c4Description%&lt;/font&gt;&lt;/div&gt;" id="iFwjsEh7E08w5iqScAAP-2">
          <mxCell style="rounded=1;whiteSpace=wrap;html=1;labelBackgroundColor=none;fillColor=#63BEF2;fontColor=#ffffff;align=center;arcSize=6;strokeColor=#2086C9;metaEdit=1;resizable=0;points=[[0.25,0,0],[0.5,0,0],[0.75,0,0],[1,0.25,0],[1,0.5,0],[1,0.75,0],[0.75,1,0],[0.5,1,0],[0.25,1,0],[0,0.75,0],[0,0.5,0],[0,0.25,0]];" vertex="1" parent="1">
            <mxGeometry x="280" y="320" width="240" height="120" as="geometry" />
          </mxCell>
        </object>
        <mxCell id="cwdRjWTXw3Dry5HEf0jP-1" value="&lt;h1&gt;[Component] Book Service - User Service&amp;nbsp;&lt;/h1&gt;" style="text;html=1;strokeColor=none;fillColor=none;spacing=5;spacingTop=-20;whiteSpace=wrap;overflow=hidden;rounded=0;" vertex="1" parent="1">
          <mxGeometry x="120" y="720" width="530" height="50" as="geometry" />
        </mxCell>
        <mxCell id="JxlKFJUhM0fs6LaucWHj-3" value="Create, Read, Update, Delete" style="edgeLabel;html=1;align=center;verticalAlign=middle;resizable=0;points=[];" vertex="1" connectable="0" parent="1">
          <mxGeometry x="519.9986313883925" y="220.0048946417204" as="geometry" />
        </mxCell>
        <object placeholders="1" c4Type="User Info Database" c4Container="Database" c4Technology="e.g. Oracle Database 12" c4Description="User Info database" label="&lt;font style=&quot;font-size: 16px&quot;&gt;&lt;b&gt;%c4Type%&lt;/b&gt;&lt;/font&gt;&lt;div&gt;[%c4Container%:&amp;nbsp;%c4Technology%]&lt;/div&gt;&lt;br&gt;&lt;div&gt;&lt;font style=&quot;font-size: 11px&quot;&gt;&lt;font color=&quot;#E6E6E6&quot;&gt;%c4Description%&lt;/font&gt;&lt;/div&gt;" id="tg2KwB7g8G8Hg8jZ-I67-1">
          <mxCell style="shape=cylinder3;size=15;whiteSpace=wrap;html=1;boundedLbl=1;rounded=0;labelBackgroundColor=none;fillColor=#23A2D9;fontSize=12;fontColor=#ffffff;align=center;strokeColor=#0E7DAD;metaEdit=1;points=[[0.5,0,0],[1,0.25,0],[1,0.5,0],[1,0.75,0],[0.5,1,0],[0,0.75,0],[0,0.5,0],[0,0.25,0]];resizable=0;" vertex="1" parent="1">
            <mxGeometry x="280" y="480" width="240" height="120" as="geometry" />
          </mxCell>
        </object>
      </root>
    </mxGraphModel>
  </diagram>
  <diagram id="vgAX1KRg-OSVO-AIHgiN" name="C4-Component-BookService">
    <mxGraphModel dx="1434" dy="956" grid="1" gridSize="10" guides="1" tooltips="1" connect="1" arrows="1" fold="1" page="1" pageScale="1" pageWidth="1169" pageHeight="1654" math="0" shadow="0">
      <root>
        <mxCell id="0" />
        <mxCell id="1" parent="0" />
        <object placeholders="1" c4Name="Book Service" c4Type="SystemScopeBoundary" c4Application="Container" label="&lt;font style=&quot;font-size: 16px&quot;&gt;&lt;b&gt;&lt;div style=&quot;text-align: left&quot;&gt;%c4Name%&lt;/div&gt;&lt;/b&gt;&lt;/font&gt;&lt;div style=&quot;text-align: left&quot;&gt;[%c4Application%]&lt;/div&gt;" id="CAc9KoGsj-VpKiqlJJF5-1">
          <mxCell style="rounded=1;fontSize=11;whiteSpace=wrap;html=1;dashed=1;arcSize=20;fillColor=none;strokeColor=#666666;fontColor=#333333;labelBackgroundColor=none;align=left;verticalAlign=bottom;labelBorderColor=none;spacingTop=0;spacing=10;dashPattern=8 4;metaEdit=1;rotatable=0;perimeter=rectanglePerimeter;noLabel=0;labelPadding=0;allowArrows=0;connectable=0;expand=0;recursiveResize=0;editable=1;pointerEvents=0;absoluteArcSize=1;points=[[0.25,0,0],[0.5,0,0],[0.75,0,0],[1,0.25,0],[1,0.5,0],[1,0.75,0],[0.75,1,0],[0.5,1,0],[0.25,1,0],[0,0.75,0],[0,0.5,0],[0,0.25,0]];" vertex="1" parent="1">
            <mxGeometry x="120" y="280" width="880" height="360" as="geometry" />
          </mxCell>
        </object>
        <mxCell id="8CReeltEFdZlQmzREq7i-1" style="edgeStyle=orthogonalEdgeStyle;rounded=0;orthogonalLoop=1;jettySize=auto;html=1;exitX=0.5;exitY=1;exitDx=0;exitDy=0;exitPerimeter=0;entryX=0.5;entryY=0;entryDx=0;entryDy=0;entryPerimeter=0;dashed=1;" edge="1" parent="1" source="CAc9KoGsj-VpKiqlJJF5-6" target="qQZYavzPDVT1sARO-Srl-4">
          <mxGeometry relative="1" as="geometry" />
        </mxCell>
        <mxCell id="8CReeltEFdZlQmzREq7i-7" value="search by criteria" style="edgeLabel;html=1;align=center;verticalAlign=middle;resizable=0;points=[];" vertex="1" connectable="0" parent="8CReeltEFdZlQmzREq7i-1">
          <mxGeometry x="-0.2" relative="1" as="geometry">
            <mxPoint as="offset" />
          </mxGeometry>
        </mxCell>
        <mxCell id="8CReeltEFdZlQmzREq7i-3" style="rounded=0;orthogonalLoop=1;jettySize=auto;html=1;exitX=0.5;exitY=1;exitDx=0;exitDy=0;exitPerimeter=0;dashed=1;" edge="1" parent="1" source="CAc9KoGsj-VpKiqlJJF5-6" target="OQbu2RFFK4hs4CIecOK8-1">
          <mxGeometry relative="1" as="geometry" />
        </mxCell>
        <mxCell id="8CReeltEFdZlQmzREq7i-8" value="add comment" style="edgeLabel;html=1;align=center;verticalAlign=middle;resizable=0;points=[];" vertex="1" connectable="0" parent="8CReeltEFdZlQmzREq7i-3">
          <mxGeometry x="-0.1425" y="-1" relative="1" as="geometry">
            <mxPoint x="13" as="offset" />
          </mxGeometry>
        </mxCell>
        <object placeholders="1" c4Name="Customer Panel &#xa;(Single-Page Application) " c4Type="Container" c4Technology="e.g. Angular, JS" c4Description="Customer facing user interface application" label="&lt;font style=&quot;font-size: 16px&quot;&gt;&lt;b&gt;%c4Name%&lt;/b&gt;&lt;/font&gt;&lt;div&gt;[%c4Type%: %c4Technology%]&lt;/div&gt;&lt;br&gt;&lt;div&gt;&lt;font style=&quot;font-size: 11px&quot;&gt;&lt;font color=&quot;#E6E6E6&quot;&gt;%c4Description%&lt;/font&gt;&lt;/div&gt;" id="CAc9KoGsj-VpKiqlJJF5-6">
          <mxCell style="rounded=1;whiteSpace=wrap;html=1;fontSize=11;labelBackgroundColor=none;fillColor=#23A2D9;fontColor=#ffffff;align=center;arcSize=10;strokeColor=#0E7DAD;metaEdit=1;resizable=0;points=[[0.25,0,0],[0.5,0,0],[0.75,0,0],[1,0.25,0],[1,0.5,0],[1,0.75,0],[0.75,1,0],[0.5,1,0],[0.25,1,0],[0,0.75,0],[0,0.5,0],[0,0.25,0]];" vertex="1" parent="1">
            <mxGeometry x="160" y="40" width="240" height="120" as="geometry" />
          </mxCell>
        </object>
        <mxCell id="8CReeltEFdZlQmzREq7i-4" value="Moderate&lt;br&gt;comments" style="edgeStyle=orthogonalEdgeStyle;rounded=0;orthogonalLoop=1;jettySize=auto;html=1;exitX=0.5;exitY=1;exitDx=0;exitDy=0;exitPerimeter=0;dashed=1;" edge="1" parent="1" source="CAc9KoGsj-VpKiqlJJF5-10" target="OQbu2RFFK4hs4CIecOK8-1">
          <mxGeometry relative="1" as="geometry" />
        </mxCell>
        <mxCell id="8CReeltEFdZlQmzREq7i-5" style="rounded=0;orthogonalLoop=1;jettySize=auto;html=1;exitX=0.5;exitY=1;exitDx=0;exitDy=0;exitPerimeter=0;entryX=0.75;entryY=0;entryDx=0;entryDy=0;entryPerimeter=0;dashed=1;" edge="1" parent="1" source="CAc9KoGsj-VpKiqlJJF5-10" target="qQZYavzPDVT1sARO-Srl-4">
          <mxGeometry relative="1" as="geometry" />
        </mxCell>
        <mxCell id="V64lNXXrfVII4m1ltz3S-1" value="Support searches &lt;br&gt;books&amp;nbsp;" style="edgeLabel;html=1;align=center;verticalAlign=middle;resizable=0;points=[];" vertex="1" connectable="0" parent="8CReeltEFdZlQmzREq7i-5">
          <mxGeometry x="-0.2178" y="2" relative="1" as="geometry">
            <mxPoint as="offset" />
          </mxGeometry>
        </mxCell>
        <mxCell id="8CReeltEFdZlQmzREq7i-6" style="rounded=0;orthogonalLoop=1;jettySize=auto;html=1;exitX=0.5;exitY=1;exitDx=0;exitDy=0;exitPerimeter=0;entryX=0.5;entryY=0;entryDx=0;entryDy=0;entryPerimeter=0;dashed=1;" edge="1" parent="1" source="CAc9KoGsj-VpKiqlJJF5-10" target="qQZYavzPDVT1sARO-Srl-5">
          <mxGeometry relative="1" as="geometry" />
        </mxCell>
        <mxCell id="V64lNXXrfVII4m1ltz3S-3" value="CRUD" style="edgeLabel;html=1;align=center;verticalAlign=middle;resizable=0;points=[];" vertex="1" connectable="0" parent="8CReeltEFdZlQmzREq7i-6">
          <mxGeometry x="-0.0662" y="-1" relative="1" as="geometry">
            <mxPoint x="-1" as="offset" />
          </mxGeometry>
        </mxCell>
        <object placeholders="1" c4Name="Admin Panel &#xa;(Single-Page Application) " c4Type="Container" c4Technology="e.g. Angular, JS" c4Description="Admin (stuff) facing user interface application" label="&lt;font style=&quot;font-size: 16px&quot;&gt;&lt;b&gt;%c4Name%&lt;/b&gt;&lt;/font&gt;&lt;div&gt;[%c4Type%: %c4Technology%]&lt;/div&gt;&lt;br&gt;&lt;div&gt;&lt;font style=&quot;font-size: 11px&quot;&gt;&lt;font color=&quot;#E6E6E6&quot;&gt;%c4Description%&lt;/font&gt;&lt;/div&gt;" id="CAc9KoGsj-VpKiqlJJF5-10">
          <mxCell style="rounded=1;whiteSpace=wrap;html=1;fontSize=11;labelBackgroundColor=none;fillColor=#23A2D9;fontColor=#ffffff;align=center;arcSize=10;strokeColor=#0E7DAD;metaEdit=1;resizable=0;points=[[0.25,0,0],[0.5,0,0],[0.75,0,0],[1,0.25,0],[1,0.5,0],[1,0.75,0],[0.75,1,0],[0.5,1,0],[0.25,1,0],[0,0.75,0],[0,0.5,0],[0,0.25,0]];" vertex="1" parent="1">
            <mxGeometry x="440" y="40" width="240" height="120" as="geometry" />
          </mxCell>
        </object>
        <mxCell id="U6DCyJ9S5FD2HjlZE5Kv-2" value="&lt;h1&gt;[Component] Book Service - Book Service&amp;nbsp;&lt;/h1&gt;" style="text;html=1;strokeColor=none;fillColor=none;spacing=5;spacingTop=-20;whiteSpace=wrap;overflow=hidden;rounded=0;" vertex="1" parent="1">
          <mxGeometry x="120" y="680" width="530" height="50" as="geometry" />
        </mxCell>
        <mxCell id="8CReeltEFdZlQmzREq7i-9" style="rounded=0;orthogonalLoop=1;jettySize=auto;html=1;exitX=0.5;exitY=1;exitDx=0;exitDy=0;exitPerimeter=0;entryX=0.5;entryY=0;entryDx=0;entryDy=0;entryPerimeter=0;dashed=1;" edge="1" parent="1" source="qQZYavzPDVT1sARO-Srl-4" target="vasP1dBZPuUvgAzYyaGV-1">
          <mxGeometry relative="1" as="geometry" />
        </mxCell>
        <object placeholders="1" c4Name="Book Search Controller" c4Type="Component" c4Technology="e.g. Spring Service, Spring MVC" c4Description="Performs search books by criteria" label="&lt;font style=&quot;font-size: 16px&quot;&gt;&lt;b&gt;%c4Name%&lt;/b&gt;&lt;/font&gt;&lt;div&gt;[%c4Type%: %c4Technology%]&lt;/div&gt;&lt;br&gt;&lt;div&gt;&lt;font style=&quot;font-size: 11px&quot;&gt;%c4Description%&lt;/font&gt;&lt;/div&gt;" id="qQZYavzPDVT1sARO-Srl-4">
          <mxCell style="rounded=1;whiteSpace=wrap;html=1;labelBackgroundColor=none;fillColor=#63BEF2;fontColor=#ffffff;align=center;arcSize=6;strokeColor=#2086C9;metaEdit=1;resizable=0;points=[[0.25,0,0],[0.5,0,0],[0.75,0,0],[1,0.25,0],[1,0.5,0],[1,0.75,0],[0.75,1,0],[0.5,1,0],[0.25,1,0],[0,0.75,0],[0,0.5,0],[0,0.25,0]];" vertex="1" parent="1">
            <mxGeometry x="160" y="320" width="240" height="120" as="geometry" />
          </mxCell>
        </object>
        <mxCell id="8CReeltEFdZlQmzREq7i-11" style="rounded=0;orthogonalLoop=1;jettySize=auto;html=1;exitX=0.5;exitY=1;exitDx=0;exitDy=0;exitPerimeter=0;entryX=0.5;entryY=0;entryDx=0;entryDy=0;entryPerimeter=0;dashed=1;" edge="1" parent="1" source="qQZYavzPDVT1sARO-Srl-5" target="vasP1dBZPuUvgAzYyaGV-1">
          <mxGeometry relative="1" as="geometry" />
        </mxCell>
        <object placeholders="1" c4Name="Book Management Controller (CRUD)" c4Type="Component" c4Technology="e.g. Spring Service, Spring MVC" c4Description="Book Management Controller (CRUD)" label="&lt;font style=&quot;font-size: 16px&quot;&gt;&lt;b&gt;%c4Name%&lt;/b&gt;&lt;/font&gt;&lt;div&gt;[%c4Type%: %c4Technology%]&lt;/div&gt;&lt;br&gt;&lt;div&gt;&lt;font style=&quot;font-size: 11px&quot;&gt;%c4Description%&lt;/font&gt;&lt;/div&gt;" id="qQZYavzPDVT1sARO-Srl-5">
          <mxCell style="rounded=1;whiteSpace=wrap;html=1;labelBackgroundColor=none;fillColor=#63BEF2;fontColor=#ffffff;align=center;arcSize=6;strokeColor=#2086C9;metaEdit=1;resizable=0;points=[[0.25,0,0],[0.5,0,0],[0.75,0,0],[1,0.25,0],[1,0.5,0],[1,0.75,0],[0.75,1,0],[0.5,1,0],[0.25,1,0],[0,0.75,0],[0,0.5,0],[0,0.25,0]];" vertex="1" parent="1">
            <mxGeometry x="720" y="320" width="240" height="120" as="geometry" />
          </mxCell>
        </object>
        <mxCell id="8CReeltEFdZlQmzREq7i-10" style="edgeStyle=orthogonalEdgeStyle;rounded=0;orthogonalLoop=1;jettySize=auto;html=1;exitX=0.5;exitY=1;exitDx=0;exitDy=0;exitPerimeter=0;dashed=1;" edge="1" parent="1" source="OQbu2RFFK4hs4CIecOK8-1">
          <mxGeometry relative="1" as="geometry">
            <mxPoint x="560" y="490" as="targetPoint" />
          </mxGeometry>
        </mxCell>
        <object placeholders="1" c4Name="Comments Controller (CRUD)" c4Type="Component" c4Technology="e.g. Spring Service, Spring MVC" c4Description="Book Comments Management Controller (CRUD)" label="&lt;font style=&quot;font-size: 16px&quot;&gt;&lt;b&gt;%c4Name%&lt;/b&gt;&lt;/font&gt;&lt;div&gt;[%c4Type%: %c4Technology%]&lt;/div&gt;&lt;br&gt;&lt;div&gt;&lt;font style=&quot;font-size: 11px&quot;&gt;%c4Description%&lt;/font&gt;&lt;/div&gt;" id="OQbu2RFFK4hs4CIecOK8-1">
          <mxCell style="rounded=1;whiteSpace=wrap;html=1;labelBackgroundColor=none;fillColor=#63BEF2;fontColor=#ffffff;align=center;arcSize=6;strokeColor=#2086C9;metaEdit=1;resizable=0;points=[[0.25,0,0],[0.5,0,0],[0.75,0,0],[1,0.25,0],[1,0.5,0],[1,0.75,0],[0.75,1,0],[0.5,1,0],[0.25,1,0],[0,0.75,0],[0,0.5,0],[0,0.25,0]];" vertex="1" parent="1">
            <mxGeometry x="440" y="320" width="240" height="120" as="geometry" />
          </mxCell>
        </object>
        <object placeholders="1" c4Type="Book Database" c4Container="Database" c4Technology="e.g. Oracle Database 12" c4Description="Book service database" label="&lt;font style=&quot;font-size: 16px&quot;&gt;&lt;b&gt;%c4Type%&lt;/b&gt;&lt;/font&gt;&lt;div&gt;[%c4Container%:&amp;nbsp;%c4Technology%]&lt;/div&gt;&lt;br&gt;&lt;div&gt;&lt;font style=&quot;font-size: 11px&quot;&gt;&lt;font color=&quot;#E6E6E6&quot;&gt;%c4Description%&lt;/font&gt;&lt;/div&gt;" id="vasP1dBZPuUvgAzYyaGV-1">
          <mxCell style="shape=cylinder3;size=15;whiteSpace=wrap;html=1;boundedLbl=1;rounded=0;labelBackgroundColor=none;fillColor=#23A2D9;fontSize=12;fontColor=#ffffff;align=center;strokeColor=#0E7DAD;metaEdit=1;points=[[0.5,0,0],[1,0.25,0],[1,0.5,0],[1,0.75,0],[0.5,1,0],[0,0.75,0],[0,0.5,0],[0,0.25,0]];resizable=0;" vertex="1" parent="1">
            <mxGeometry x="440" y="490" width="240" height="120" as="geometry" />
          </mxCell>
        </object>
      </root>
    </mxGraphModel>
  </diagram>
  <diagram id="n1f6JvJpl8zsVAldmaIv" name="C4-Component-CartService">
    <mxGraphModel dx="1434" dy="956" grid="1" gridSize="10" guides="1" tooltips="1" connect="1" arrows="1" fold="1" page="1" pageScale="1" pageWidth="1169" pageHeight="1654" math="0" shadow="0">
      <root>
        <mxCell id="0" />
        <mxCell id="1" parent="0" />
        <object placeholders="1" c4Name="Card Service" c4Type="SystemScopeBoundary" c4Application="Container" label="&lt;font style=&quot;font-size: 16px&quot;&gt;&lt;b&gt;&lt;div style=&quot;text-align: left&quot;&gt;%c4Name%&lt;/div&gt;&lt;/b&gt;&lt;/font&gt;&lt;div style=&quot;text-align: left&quot;&gt;[%c4Application%]&lt;/div&gt;" id="XZZAswytCmeADVhde9uA-1">
          <mxCell style="rounded=1;fontSize=11;whiteSpace=wrap;html=1;dashed=1;arcSize=20;fillColor=none;strokeColor=#666666;fontColor=#333333;labelBackgroundColor=none;align=left;verticalAlign=bottom;labelBorderColor=none;spacingTop=0;spacing=10;dashPattern=8 4;metaEdit=1;rotatable=0;perimeter=rectanglePerimeter;noLabel=0;labelPadding=0;allowArrows=0;connectable=0;expand=0;recursiveResize=0;editable=1;pointerEvents=0;absoluteArcSize=1;points=[[0.25,0,0],[0.5,0,0],[0.75,0,0],[1,0.25,0],[1,0.5,0],[1,0.75,0],[0.75,1,0],[0.5,1,0],[0.25,1,0],[0,0.75,0],[0,0.5,0],[0,0.25,0]];" vertex="1" parent="1">
            <mxGeometry x="200" y="290" width="400" height="210" as="geometry" />
          </mxCell>
        </object>
        <mxCell id="XZZAswytCmeADVhde9uA-2" style="rounded=0;orthogonalLoop=1;jettySize=auto;html=1;exitX=0.5;exitY=1;exitDx=0;exitDy=0;exitPerimeter=0;entryX=0.5;entryY=0;entryDx=0;entryDy=0;entryPerimeter=0;dashed=1;" edge="1" parent="1" source="XZZAswytCmeADVhde9uA-4" target="XZZAswytCmeADVhde9uA-7">
          <mxGeometry relative="1" as="geometry" />
        </mxCell>
        <mxCell id="3pqgJRlh44-kc-OpvXNG-1" value="Add, remove, &lt;br&gt;change amount of books in cart" style="edgeLabel;html=1;align=center;verticalAlign=middle;resizable=0;points=[];" vertex="1" connectable="0" parent="XZZAswytCmeADVhde9uA-2">
          <mxGeometry x="-0.1412" y="-1" relative="1" as="geometry">
            <mxPoint as="offset" />
          </mxGeometry>
        </mxCell>
        <object placeholders="1" c4Name="Customer Panel &#xa;(Single-Page Application) " c4Type="Container" c4Technology="e.g. Angular, JS" c4Description="Customer facing user interface application" label="&lt;font style=&quot;font-size: 16px&quot;&gt;&lt;b&gt;%c4Name%&lt;/b&gt;&lt;/font&gt;&lt;div&gt;[%c4Type%: %c4Technology%]&lt;/div&gt;&lt;br&gt;&lt;div&gt;&lt;font style=&quot;font-size: 11px&quot;&gt;&lt;font color=&quot;#E6E6E6&quot;&gt;%c4Description%&lt;/font&gt;&lt;/div&gt;" id="XZZAswytCmeADVhde9uA-4">
          <mxCell style="rounded=1;whiteSpace=wrap;html=1;fontSize=11;labelBackgroundColor=none;fillColor=#23A2D9;fontColor=#ffffff;align=center;arcSize=10;strokeColor=#0E7DAD;metaEdit=1;resizable=0;points=[[0.25,0,0],[0.5,0,0],[0.75,0,0],[1,0.25,0],[1,0.5,0],[1,0.75,0],[0.75,1,0],[0.5,1,0],[0.25,1,0],[0,0.75,0],[0,0.5,0],[0,0.25,0]];" vertex="1" parent="1">
            <mxGeometry x="280" y="40" width="240" height="120" as="geometry" />
          </mxCell>
        </object>
        <object placeholders="1" c4Name="Card Service Controller" c4Type="Component" c4Technology="e.g. Spring Service" c4Description="Add, remove book, change quantity " label="&lt;font style=&quot;font-size: 16px&quot;&gt;&lt;b&gt;%c4Name%&lt;/b&gt;&lt;/font&gt;&lt;div&gt;[%c4Type%: %c4Technology%]&lt;/div&gt;&lt;br&gt;&lt;div&gt;&lt;font style=&quot;font-size: 11px&quot;&gt;%c4Description%&lt;/font&gt;&lt;/div&gt;" id="XZZAswytCmeADVhde9uA-7">
          <mxCell style="rounded=1;whiteSpace=wrap;html=1;labelBackgroundColor=none;fillColor=#63BEF2;fontColor=#ffffff;align=center;arcSize=6;strokeColor=#2086C9;metaEdit=1;resizable=0;points=[[0.25,0,0],[0.5,0,0],[0.75,0,0],[1,0.25,0],[1,0.5,0],[1,0.75,0],[0.75,1,0],[0.5,1,0],[0.25,1,0],[0,0.75,0],[0,0.5,0],[0,0.25,0]];" vertex="1" parent="1">
            <mxGeometry x="280" y="330" width="240" height="120" as="geometry" />
          </mxCell>
        </object>
        <mxCell id="XZZAswytCmeADVhde9uA-8" value="&lt;h1&gt;[Component] Book Service - Card Service&amp;nbsp;&lt;/h1&gt;" style="text;html=1;strokeColor=none;fillColor=none;spacing=5;spacingTop=-20;whiteSpace=wrap;overflow=hidden;rounded=0;" vertex="1" parent="1">
          <mxGeometry x="120" y="530" width="530" height="50" as="geometry" />
        </mxCell>
      </root>
    </mxGraphModel>
  </diagram>
  <diagram id="K9ixiqkCbQ3KRYXRIoF5" name="C4-Component-OrderService">
    <mxGraphModel dx="1687" dy="1125" grid="1" gridSize="10" guides="1" tooltips="1" connect="1" arrows="1" fold="1" page="1" pageScale="1" pageWidth="1169" pageHeight="1654" math="0" shadow="0">
      <root>
        <mxCell id="0" />
        <mxCell id="1" parent="0" />
        <object placeholders="1" c4Name="Order Service" c4Type="SystemScopeBoundary" c4Application="Container" label="&lt;font style=&quot;font-size: 16px&quot;&gt;&lt;b&gt;&lt;div style=&quot;text-align: left&quot;&gt;%c4Name%&lt;/div&gt;&lt;/b&gt;&lt;/font&gt;&lt;div style=&quot;text-align: left&quot;&gt;[%c4Application%]&lt;/div&gt;" id="0I8r90bapKsckVvHKg-Q-1">
          <mxCell style="rounded=1;fontSize=11;whiteSpace=wrap;html=1;dashed=1;arcSize=20;fillColor=none;strokeColor=#666666;fontColor=#333333;labelBackgroundColor=none;align=left;verticalAlign=bottom;labelBorderColor=none;spacingTop=0;spacing=10;dashPattern=8 4;metaEdit=1;rotatable=0;perimeter=rectanglePerimeter;noLabel=0;labelPadding=0;allowArrows=0;connectable=0;expand=0;recursiveResize=0;editable=1;pointerEvents=0;absoluteArcSize=1;points=[[0.25,0,0],[0.5,0,0],[0.75,0,0],[1,0.25,0],[1,0.5,0],[1,0.75,0],[0.75,1,0],[0.5,1,0],[0.25,1,0],[0,0.75,0],[0,0.5,0],[0,0.25,0]];" vertex="1" parent="1">
            <mxGeometry x="160" y="280" width="400" height="600" as="geometry" />
          </mxCell>
        </object>
        <mxCell id="0I8r90bapKsckVvHKg-Q-2" style="rounded=0;orthogonalLoop=1;jettySize=auto;html=1;exitX=0.5;exitY=1;exitDx=0;exitDy=0;exitPerimeter=0;entryX=0.5;entryY=0;entryDx=0;entryDy=0;entryPerimeter=0;dashed=1;" edge="1" parent="1" source="0I8r90bapKsckVvHKg-Q-6" target="0I8r90bapKsckVvHKg-Q-15">
          <mxGeometry relative="1" as="geometry">
            <mxPoint x="400" y="320" as="targetPoint" />
          </mxGeometry>
        </mxCell>
        <mxCell id="8_jk9e2CUaXaVwdHgL-g-3" value="Create Order and provide user info" style="edgeLabel;html=1;align=center;verticalAlign=middle;resizable=0;points=[];" vertex="1" connectable="0" parent="0I8r90bapKsckVvHKg-Q-2">
          <mxGeometry x="-0.3793" y="1" relative="1" as="geometry">
            <mxPoint as="offset" />
          </mxGeometry>
        </mxCell>
        <object placeholders="1" c4Name="Customer Panel &#xa;(Single-Page Application) " c4Type="Container" c4Technology="e.g. Angular, JS" c4Description="Customer facing user interface application" label="&lt;font style=&quot;font-size: 16px&quot;&gt;&lt;b&gt;%c4Name%&lt;/b&gt;&lt;/font&gt;&lt;div&gt;[%c4Type%: %c4Technology%]&lt;/div&gt;&lt;br&gt;&lt;div&gt;&lt;font style=&quot;font-size: 11px&quot;&gt;&lt;font color=&quot;#E6E6E6&quot;&gt;%c4Description%&lt;/font&gt;&lt;/div&gt;" id="0I8r90bapKsckVvHKg-Q-6">
          <mxCell style="rounded=1;whiteSpace=wrap;html=1;fontSize=11;labelBackgroundColor=none;fillColor=#23A2D9;fontColor=#ffffff;align=center;arcSize=10;strokeColor=#0E7DAD;metaEdit=1;resizable=0;points=[[0.25,0,0],[0.5,0,0],[0.75,0,0],[1,0.25,0],[1,0.5,0],[1,0.75,0],[0.75,1,0],[0.5,1,0],[0.25,1,0],[0,0.75,0],[0,0.5,0],[0,0.25,0]];" vertex="1" parent="1">
            <mxGeometry x="400" y="80" width="240" height="120" as="geometry" />
          </mxCell>
        </object>
        <mxCell id="8_jk9e2CUaXaVwdHgL-g-1" style="rounded=0;orthogonalLoop=1;jettySize=auto;html=1;exitX=0.5;exitY=1;exitDx=0;exitDy=0;exitPerimeter=0;entryX=0.5;entryY=0;entryDx=0;entryDy=0;entryPerimeter=0;dashed=1;" edge="1" parent="1" source="0I8r90bapKsckVvHKg-Q-12" target="0I8r90bapKsckVvHKg-Q-15">
          <mxGeometry relative="1" as="geometry" />
        </mxCell>
        <mxCell id="8_jk9e2CUaXaVwdHgL-g-2" value="Cancel order&lt;br&gt;Manage operation&amp;nbsp;" style="edgeLabel;html=1;align=center;verticalAlign=middle;resizable=0;points=[];" vertex="1" connectable="0" parent="8_jk9e2CUaXaVwdHgL-g-1">
          <mxGeometry x="-0.4566" y="-2" relative="1" as="geometry">
            <mxPoint as="offset" />
          </mxGeometry>
        </mxCell>
        <object placeholders="1" c4Name="Admin Panel &#xa;(Single-Page Application) " c4Type="Container" c4Technology="e.g. Angular, JS" c4Description="Admin (stuff) facing user interface application" label="&lt;font style=&quot;font-size: 16px&quot;&gt;&lt;b&gt;%c4Name%&lt;/b&gt;&lt;/font&gt;&lt;div&gt;[%c4Type%: %c4Technology%]&lt;/div&gt;&lt;br&gt;&lt;div&gt;&lt;font style=&quot;font-size: 11px&quot;&gt;&lt;font color=&quot;#E6E6E6&quot;&gt;%c4Description%&lt;/font&gt;&lt;/div&gt;" id="0I8r90bapKsckVvHKg-Q-12">
          <mxCell style="rounded=1;whiteSpace=wrap;html=1;fontSize=11;labelBackgroundColor=none;fillColor=#23A2D9;fontColor=#ffffff;align=center;arcSize=10;strokeColor=#0E7DAD;metaEdit=1;resizable=0;points=[[0.25,0,0],[0.5,0,0],[0.75,0,0],[1,0.25,0],[1,0.5,0],[1,0.75,0],[0.75,1,0],[0.5,1,0],[0.25,1,0],[0,0.75,0],[0,0.5,0],[0,0.25,0]];" vertex="1" parent="1">
            <mxGeometry x="80" y="80" width="240" height="120" as="geometry" />
          </mxCell>
        </object>
        <mxCell id="0I8r90bapKsckVvHKg-Q-13" value="&lt;h1&gt;[Component] Book Service - Order Service&amp;nbsp;&lt;/h1&gt;" style="text;html=1;strokeColor=none;fillColor=none;spacing=5;spacingTop=-20;whiteSpace=wrap;overflow=hidden;rounded=0;" vertex="1" parent="1">
          <mxGeometry x="120" y="960" width="530" height="50" as="geometry" />
        </mxCell>
        <mxCell id="mYLZHpuoJdX9UUcPtObG-1" style="edgeStyle=orthogonalEdgeStyle;rounded=0;orthogonalLoop=1;jettySize=auto;html=1;exitX=1;exitY=0.5;exitDx=0;exitDy=0;exitPerimeter=0;entryX=0;entryY=0.5;entryDx=0;entryDy=0;entryPerimeter=0;" edge="1" parent="1" source="0I8r90bapKsckVvHKg-Q-15" target="mYLZHpuoJdX9UUcPtObG-3">
          <mxGeometry relative="1" as="geometry" />
        </mxCell>
        <mxCell id="mYLZHpuoJdX9UUcPtObG-2" value="initiate &lt;br&gt;payment" style="edgeLabel;html=1;align=center;verticalAlign=middle;resizable=0;points=[];" vertex="1" connectable="0" parent="mYLZHpuoJdX9UUcPtObG-1">
          <mxGeometry x="0.2" y="-3" relative="1" as="geometry">
            <mxPoint as="offset" />
          </mxGeometry>
        </mxCell>
        <mxCell id="WaOakPYa40lV6Vp5eH-F-3" style="edgeStyle=orthogonalEdgeStyle;rounded=0;orthogonalLoop=1;jettySize=auto;html=1;exitX=0.5;exitY=1;exitDx=0;exitDy=0;exitPerimeter=0;" edge="1" parent="1" source="0I8r90bapKsckVvHKg-Q-15" target="WaOakPYa40lV6Vp5eH-F-2">
          <mxGeometry relative="1" as="geometry" />
        </mxCell>
        <mxCell id="SQ3a6XGhJuFtmi8JVRH_-2" value="Pub Order Event&lt;br&gt;for Anaytics" style="edgeStyle=orthogonalEdgeStyle;rounded=0;orthogonalLoop=1;jettySize=auto;html=1;exitX=0;exitY=0.5;exitDx=0;exitDy=0;exitPerimeter=0;" edge="1" parent="1" source="0I8r90bapKsckVvHKg-Q-15" target="SQ3a6XGhJuFtmi8JVRH_-1">
          <mxGeometry relative="1" as="geometry" />
        </mxCell>
        <mxCell id="PUYshqRuP4fO-bKKjM8T-3" style="edgeStyle=orthogonalEdgeStyle;rounded=0;orthogonalLoop=1;jettySize=auto;html=1;exitX=0;exitY=0.75;exitDx=0;exitDy=0;exitPerimeter=0;entryX=0;entryY=0.5;entryDx=0;entryDy=0;entryPerimeter=0;" edge="1" parent="1" source="0I8r90bapKsckVvHKg-Q-15" target="PUYshqRuP4fO-bKKjM8T-1">
          <mxGeometry relative="1" as="geometry" />
        </mxCell>
        <object placeholders="1" c4Name="Order Controller" c4Type="Component" c4Technology="e.g. Spring Service, Spring MVC" c4Description="Performs creation and management operation" label="&lt;font style=&quot;font-size: 16px&quot;&gt;&lt;b&gt;%c4Name%&lt;/b&gt;&lt;/font&gt;&lt;div&gt;[%c4Type%: %c4Technology%]&lt;/div&gt;&lt;br&gt;&lt;div&gt;&lt;font style=&quot;font-size: 11px&quot;&gt;%c4Description%&lt;/font&gt;&lt;/div&gt;" id="0I8r90bapKsckVvHKg-Q-15">
          <mxCell style="rounded=1;whiteSpace=wrap;html=1;labelBackgroundColor=none;fillColor=#63BEF2;fontColor=#ffffff;align=center;arcSize=6;strokeColor=#2086C9;metaEdit=1;resizable=0;points=[[0.25,0,0],[0.5,0,0],[0.75,0,0],[1,0.25,0],[1,0.5,0],[1,0.75,0],[0.75,1,0],[0.5,1,0],[0.25,1,0],[0,0.75,0],[0,0.5,0],[0,0.25,0]];" vertex="1" parent="1">
            <mxGeometry x="240" y="320" width="240" height="120" as="geometry" />
          </mxCell>
        </object>
        <object placeholders="1" c4Name="Payment Service" c4Type="Software System" c4Description="Payment service to manage online payment " label="&lt;font style=&quot;font-size: 16px&quot;&gt;&lt;b&gt;%c4Name%&lt;/b&gt;&lt;/font&gt;&lt;div&gt;[%c4Type%]&lt;/div&gt;&lt;br&gt;&lt;div&gt;&lt;font style=&quot;font-size: 11px&quot;&gt;&lt;font color=&quot;#cccccc&quot;&gt;%c4Description%&lt;/font&gt;&lt;/div&gt;" id="50-UEdPdVmPImRqTXeH8-1">
          <mxCell style="rounded=1;whiteSpace=wrap;html=1;labelBackgroundColor=none;fillColor=#8C8496;fontColor=#ffffff;align=center;arcSize=10;strokeColor=#736782;metaEdit=1;resizable=0;points=[[0.25,0,0],[0.5,0,0],[0.75,0,0],[1,0.25,0],[1,0.5,0],[1,0.75,0],[0.75,1,0],[0.5,1,0],[0.25,1,0],[0,0.75,0],[0,0.5,0],[0,0.25,0]];" vertex="1" parent="1">
            <mxGeometry x="920" y="320" width="240" height="120" as="geometry" />
          </mxCell>
        </object>
        <object placeholders="1" c4Name="Delivery Provider&#xa;(Nova Poshta)" c4Type="Software System" c4Description="Delivery Provider with payment option (Nova Poshta)" label="&lt;font style=&quot;font-size: 16px&quot;&gt;&lt;b&gt;%c4Name%&lt;/b&gt;&lt;/font&gt;&lt;div&gt;[%c4Type%]&lt;/div&gt;&lt;br&gt;&lt;div&gt;&lt;font style=&quot;font-size: 11px&quot;&gt;&lt;font color=&quot;#cccccc&quot;&gt;%c4Description%&lt;/font&gt;&lt;/div&gt;" id="50-UEdPdVmPImRqTXeH8-2">
          <mxCell style="rounded=1;whiteSpace=wrap;html=1;labelBackgroundColor=none;fillColor=#8C8496;fontColor=#ffffff;align=center;arcSize=10;strokeColor=#736782;metaEdit=1;resizable=0;points=[[0.25,0,0],[0.5,0,0],[0.75,0,0],[1,0.25,0],[1,0.5,0],[1,0.75,0],[0.75,1,0],[0.5,1,0],[0.25,1,0],[0,0.75,0],[0,0.5,0],[0,0.25,0]];" vertex="1" parent="1">
            <mxGeometry x="921" y="480.0000000000001" width="240" height="120" as="geometry" />
          </mxCell>
        </object>
        <object placeholders="1" c4Name="Delivery Provider&#xa;(Ukr Poshta)" c4Type="Software System" c4Description="Delivery Provider with payment option (Ukr Poshta)" label="&lt;font style=&quot;font-size: 16px&quot;&gt;&lt;b&gt;%c4Name%&lt;/b&gt;&lt;/font&gt;&lt;div&gt;[%c4Type%]&lt;/div&gt;&lt;br&gt;&lt;div&gt;&lt;font style=&quot;font-size: 11px&quot;&gt;&lt;font color=&quot;#cccccc&quot;&gt;%c4Description%&lt;/font&gt;&lt;/div&gt;" id="50-UEdPdVmPImRqTXeH8-3">
          <mxCell style="rounded=1;whiteSpace=wrap;html=1;labelBackgroundColor=none;fillColor=#8C8496;fontColor=#ffffff;align=center;arcSize=10;strokeColor=#736782;metaEdit=1;resizable=0;points=[[0.25,0,0],[0.5,0,0],[0.75,0,0],[1,0.25,0],[1,0.5,0],[1,0.75,0],[0.75,1,0],[0.5,1,0],[0.25,1,0],[0,0.75,0],[0,0.5,0],[0,0.25,0]];" vertex="1" parent="1">
            <mxGeometry x="921" y="640" width="240" height="120" as="geometry" />
          </mxCell>
        </object>
        <object placeholders="1" c4Name="Delivery Provider&#xa;(JustIn)" c4Type="Software System" c4Description="Delivery Provider with payment option (JustIn)" label="&lt;font style=&quot;font-size: 16px&quot;&gt;&lt;b&gt;%c4Name%&lt;/b&gt;&lt;/font&gt;&lt;div&gt;[%c4Type%]&lt;/div&gt;&lt;br&gt;&lt;div&gt;&lt;font style=&quot;font-size: 11px&quot;&gt;&lt;font color=&quot;#cccccc&quot;&gt;%c4Description%&lt;/font&gt;&lt;/div&gt;" id="50-UEdPdVmPImRqTXeH8-4">
          <mxCell style="rounded=1;whiteSpace=wrap;html=1;labelBackgroundColor=none;fillColor=#8C8496;fontColor=#ffffff;align=center;arcSize=10;strokeColor=#736782;metaEdit=1;resizable=0;points=[[0.25,0,0],[0.5,0,0],[0.75,0,0],[1,0.25,0],[1,0.5,0],[1,0.75,0],[0.75,1,0],[0.5,1,0],[0.25,1,0],[0,0.75,0],[0,0.5,0],[0,0.25,0]];" vertex="1" parent="1">
            <mxGeometry x="920" y="800" width="240" height="120" as="geometry" />
          </mxCell>
        </object>
        <mxCell id="WaOakPYa40lV6Vp5eH-F-1" value="request&amp;nbsp;&lt;br&gt;payment" style="edgeStyle=orthogonalEdgeStyle;rounded=0;orthogonalLoop=1;jettySize=auto;html=1;exitX=1;exitY=0.5;exitDx=0;exitDy=0;exitPerimeter=0;entryX=0;entryY=0.5;entryDx=0;entryDy=0;entryPerimeter=0;" edge="1" parent="1" source="mYLZHpuoJdX9UUcPtObG-3" target="50-UEdPdVmPImRqTXeH8-1">
          <mxGeometry relative="1" as="geometry" />
        </mxCell>
        <object placeholders="1" c4Name="Payment adapter service" c4Type="Container" c4Technology="e.g. Spring" c4Description="Adapts Order Service requests to Payment Provider API" label="&lt;font style=&quot;font-size: 16px&quot;&gt;&lt;b&gt;%c4Name%&lt;/b&gt;&lt;/font&gt;&lt;div&gt;[%c4Type%: %c4Technology%]&lt;/div&gt;&lt;br&gt;&lt;div&gt;&lt;font style=&quot;font-size: 11px&quot;&gt;&lt;font color=&quot;#E6E6E6&quot;&gt;%c4Description%&lt;/font&gt;&lt;/div&gt;" id="mYLZHpuoJdX9UUcPtObG-3">
          <mxCell style="rounded=1;whiteSpace=wrap;html=1;fontSize=11;labelBackgroundColor=none;fillColor=#23A2D9;fontColor=#ffffff;align=center;arcSize=10;strokeColor=#0E7DAD;metaEdit=1;resizable=0;points=[[0.25,0,0],[0.5,0,0],[0.75,0,0],[1,0.25,0],[1,0.5,0],[1,0.75,0],[0.75,1,0],[0.5,1,0],[0.25,1,0],[0,0.75,0],[0,0.5,0],[0,0.25,0]];" vertex="1" parent="1">
            <mxGeometry x="600" y="320" width="240" height="120" as="geometry" />
          </mxCell>
        </object>
        <mxCell id="wsTmn7I2b4ohOf48drgC-3" value="Request to deviler&lt;br&gt;Request to pay" style="edgeStyle=orthogonalEdgeStyle;rounded=0;orthogonalLoop=1;jettySize=auto;html=1;exitX=1;exitY=0.5;exitDx=0;exitDy=0;exitPerimeter=0;" edge="1" parent="1" source="WaOakPYa40lV6Vp5eH-F-2" target="wsTmn7I2b4ohOf48drgC-2">
          <mxGeometry relative="1" as="geometry" />
        </mxCell>
        <mxCell id="PUYshqRuP4fO-bKKjM8T-2" style="edgeStyle=orthogonalEdgeStyle;rounded=0;orthogonalLoop=1;jettySize=auto;html=1;exitX=0.5;exitY=1;exitDx=0;exitDy=0;exitPerimeter=0;entryX=0.5;entryY=0;entryDx=0;entryDy=0;entryPerimeter=0;" edge="1" parent="1" source="WaOakPYa40lV6Vp5eH-F-2" target="PUYshqRuP4fO-bKKjM8T-1">
          <mxGeometry relative="1" as="geometry" />
        </mxCell>
        <object placeholders="1" c4Name="Delivery Processor" c4Type="Component" c4Technology="e.g. Spring Service" c4Description="Performs creation and management operation" label="&lt;font style=&quot;font-size: 16px&quot;&gt;&lt;b&gt;%c4Name%&lt;/b&gt;&lt;/font&gt;&lt;div&gt;[%c4Type%: %c4Technology%]&lt;/div&gt;&lt;br&gt;&lt;div&gt;&lt;font style=&quot;font-size: 11px&quot;&gt;%c4Description%&lt;/font&gt;&lt;/div&gt;" id="WaOakPYa40lV6Vp5eH-F-2">
          <mxCell style="rounded=1;whiteSpace=wrap;html=1;labelBackgroundColor=none;fillColor=#63BEF2;fontColor=#ffffff;align=center;arcSize=6;strokeColor=#2086C9;metaEdit=1;resizable=0;points=[[0.25,0,0],[0.5,0,0],[0.75,0,0],[1,0.25,0],[1,0.5,0],[1,0.75,0],[0.75,1,0],[0.5,1,0],[0.25,1,0],[0,0.75,0],[0,0.5,0],[0,0.25,0]];" vertex="1" parent="1">
            <mxGeometry x="240" y="480" width="240" height="120" as="geometry" />
          </mxCell>
        </object>
        <mxCell id="wsTmn7I2b4ohOf48drgC-5" style="edgeStyle=orthogonalEdgeStyle;rounded=0;orthogonalLoop=1;jettySize=auto;html=1;exitX=1;exitY=0.5;exitDx=0;exitDy=0;exitPerimeter=0;entryX=0;entryY=0.5;entryDx=0;entryDy=0;entryPerimeter=0;" edge="1" parent="1" source="wsTmn7I2b4ohOf48drgC-2" target="50-UEdPdVmPImRqTXeH8-2">
          <mxGeometry relative="1" as="geometry" />
        </mxCell>
        <mxCell id="wsTmn7I2b4ohOf48drgC-6" style="rounded=0;orthogonalLoop=1;jettySize=auto;html=1;exitX=1;exitY=0.5;exitDx=0;exitDy=0;exitPerimeter=0;entryX=0;entryY=0.5;entryDx=0;entryDy=0;entryPerimeter=0;" edge="1" parent="1" source="wsTmn7I2b4ohOf48drgC-2" target="50-UEdPdVmPImRqTXeH8-3">
          <mxGeometry relative="1" as="geometry" />
        </mxCell>
        <mxCell id="wsTmn7I2b4ohOf48drgC-7" style="rounded=0;orthogonalLoop=1;jettySize=auto;html=1;exitX=1;exitY=0.5;exitDx=0;exitDy=0;exitPerimeter=0;entryX=0;entryY=0.5;entryDx=0;entryDy=0;entryPerimeter=0;" edge="1" parent="1" source="wsTmn7I2b4ohOf48drgC-2" target="50-UEdPdVmPImRqTXeH8-4">
          <mxGeometry relative="1" as="geometry" />
        </mxCell>
        <object placeholders="1" c4Name="Shippment Providers &#xa;Adapter Service" c4Type="Container" c4Technology="e.g. Spring" c4Description="Adapts Order Service requests to Shippment Provider API" label="&lt;font style=&quot;font-size: 16px&quot;&gt;&lt;b&gt;%c4Name%&lt;/b&gt;&lt;/font&gt;&lt;div&gt;[%c4Type%: %c4Technology%]&lt;/div&gt;&lt;br&gt;&lt;div&gt;&lt;font style=&quot;font-size: 11px&quot;&gt;&lt;font color=&quot;#E6E6E6&quot;&gt;%c4Description%&lt;/font&gt;&lt;/div&gt;" id="wsTmn7I2b4ohOf48drgC-2">
          <mxCell style="rounded=1;whiteSpace=wrap;html=1;fontSize=11;labelBackgroundColor=none;fillColor=#23A2D9;fontColor=#ffffff;align=center;arcSize=10;strokeColor=#0E7DAD;metaEdit=1;resizable=0;points=[[0.25,0,0],[0.5,0,0],[0.75,0,0],[1,0.25,0],[1,0.5,0],[1,0.75,0],[0.75,1,0],[0.5,1,0],[0.25,1,0],[0,0.75,0],[0,0.5,0],[0,0.25,0]];" vertex="1" parent="1">
            <mxGeometry x="600" y="480" width="240" height="120" as="geometry" />
          </mxCell>
        </object>
        <mxCell id="SQ3a6XGhJuFtmi8JVRH_-1" value="" style="sketch=0;outlineConnect=0;fontColor=#232F3E;gradientColor=none;fillColor=#B0084D;strokeColor=none;dashed=0;verticalLabelPosition=bottom;verticalAlign=top;align=center;html=1;fontSize=12;fontStyle=0;aspect=fixed;pointerEvents=1;shape=mxgraph.aws4.queue;" vertex="1" parent="1">
          <mxGeometry x="20" y="356.5" width="78" height="47" as="geometry" />
        </mxCell>
        <object placeholders="1" c4Type="Order Database" c4Container="Database" c4Technology="e.g. Oracle Database 12" c4Description="Order service database" label="&lt;font style=&quot;font-size: 16px&quot;&gt;&lt;b&gt;%c4Type%&lt;/b&gt;&lt;/font&gt;&lt;div&gt;[%c4Container%:&amp;nbsp;%c4Technology%]&lt;/div&gt;&lt;br&gt;&lt;div&gt;&lt;font style=&quot;font-size: 11px&quot;&gt;&lt;font color=&quot;#E6E6E6&quot;&gt;%c4Description%&lt;/font&gt;&lt;/div&gt;" id="PUYshqRuP4fO-bKKjM8T-1">
          <mxCell style="shape=cylinder3;size=15;whiteSpace=wrap;html=1;boundedLbl=1;rounded=0;labelBackgroundColor=none;fillColor=#23A2D9;fontSize=12;fontColor=#ffffff;align=center;strokeColor=#0E7DAD;metaEdit=1;points=[[0.5,0,0],[1,0.25,0],[1,0.5,0],[1,0.75,0],[0.5,1,0],[0,0.75,0],[0,0.5,0],[0,0.25,0]];resizable=0;" vertex="1" parent="1">
            <mxGeometry x="240" y="660" width="240" height="120" as="geometry" />
          </mxCell>
        </object>
      </root>
    </mxGraphModel>
  </diagram>
  <diagram id="56HS30cPfBehVBFGjrZv" name="C4-Component-AnalyticsService">
    <mxGraphModel dx="1912" dy="1275" grid="1" gridSize="10" guides="1" tooltips="1" connect="1" arrows="1" fold="1" page="1" pageScale="1" pageWidth="1169" pageHeight="1654" math="0" shadow="0">
      <root>
        <mxCell id="0" />
        <mxCell id="1" parent="0" />
        <object placeholders="1" c4Name="Analytics Service" c4Type="SystemScopeBoundary" c4Application="Container" label="&lt;font style=&quot;font-size: 16px&quot;&gt;&lt;b&gt;&lt;div style=&quot;text-align: left&quot;&gt;%c4Name%&lt;/div&gt;&lt;/b&gt;&lt;/font&gt;&lt;div style=&quot;text-align: left&quot;&gt;[%c4Application%]&lt;/div&gt;" id="hSFMmFMmyIvRE3-r168--1">
          <mxCell style="rounded=1;fontSize=11;whiteSpace=wrap;html=1;dashed=1;arcSize=20;fillColor=none;strokeColor=#666666;fontColor=#333333;labelBackgroundColor=none;align=left;verticalAlign=bottom;labelBorderColor=none;spacingTop=0;spacing=10;dashPattern=8 4;metaEdit=1;rotatable=0;perimeter=rectanglePerimeter;noLabel=0;labelPadding=0;allowArrows=0;connectable=0;expand=0;recursiveResize=0;editable=1;pointerEvents=0;absoluteArcSize=1;points=[[0.25,0,0],[0.5,0,0],[0.75,0,0],[1,0.25,0],[1,0.5,0],[1,0.75,0],[0.75,1,0],[0.5,1,0],[0.25,1,0],[0,0.75,0],[0,0.5,0],[0,0.25,0]];" vertex="1" parent="1">
            <mxGeometry x="200" y="240" width="720" height="390" as="geometry" />
          </mxCell>
        </object>
        <mxCell id="hSFMmFMmyIvRE3-r168--2" value="generate report (REST)" style="rounded=0;orthogonalLoop=1;jettySize=auto;html=1;exitX=0.5;exitY=1;exitDx=0;exitDy=0;exitPerimeter=0;entryX=0.5;entryY=0;entryDx=0;entryDy=0;entryPerimeter=0;dashed=1;" edge="1" parent="1" target="hSFMmFMmyIvRE3-r168--5">
          <mxGeometry relative="1" as="geometry">
            <mxPoint x="400" y="160" as="sourcePoint" />
          </mxGeometry>
        </mxCell>
        <mxCell id="LEJTtLvGyktiLUqfI7-7-5" style="rounded=0;orthogonalLoop=1;jettySize=auto;html=1;exitX=0.5;exitY=1;exitDx=0;exitDy=0;exitPerimeter=0;entryX=0.5;entryY=0;entryDx=0;entryDy=0;entryPerimeter=0;" edge="1" parent="1" source="hSFMmFMmyIvRE3-r168--5" target="LEJTtLvGyktiLUqfI7-7-3">
          <mxGeometry relative="1" as="geometry" />
        </mxCell>
        <mxCell id="LEJTtLvGyktiLUqfI7-7-7" value="Read data" style="edgeLabel;html=1;align=center;verticalAlign=middle;resizable=0;points=[];" vertex="1" connectable="0" parent="LEJTtLvGyktiLUqfI7-7-5">
          <mxGeometry x="-0.265" relative="1" as="geometry">
            <mxPoint y="-1" as="offset" />
          </mxGeometry>
        </mxCell>
        <object placeholders="1" c4Name="Analytics Service Controller" c4Type="Component" c4Technology="e.g. Spring Service, String MVC" c4Description="Generate report according to criteria" label="&lt;font style=&quot;font-size: 16px&quot;&gt;&lt;b&gt;%c4Name%&lt;/b&gt;&lt;/font&gt;&lt;div&gt;[%c4Type%: %c4Technology%]&lt;/div&gt;&lt;br&gt;&lt;div&gt;&lt;font style=&quot;font-size: 11px&quot;&gt;%c4Description%&lt;/font&gt;&lt;/div&gt;" id="hSFMmFMmyIvRE3-r168--5">
          <mxCell style="rounded=1;whiteSpace=wrap;html=1;labelBackgroundColor=none;fillColor=#63BEF2;fontColor=#ffffff;align=center;arcSize=6;strokeColor=#2086C9;metaEdit=1;resizable=0;points=[[0.25,0,0],[0.5,0,0],[0.75,0,0],[1,0.25,0],[1,0.5,0],[1,0.75,0],[0.75,1,0],[0.5,1,0],[0.25,1,0],[0,0.75,0],[0,0.5,0],[0,0.25,0]];" vertex="1" parent="1">
            <mxGeometry x="280" y="270" width="240" height="120" as="geometry" />
          </mxCell>
        </object>
        <mxCell id="hSFMmFMmyIvRE3-r168--6" value="&lt;h1&gt;[Component] Book Service - Analytics Service&amp;nbsp;&lt;/h1&gt;" style="text;html=1;strokeColor=none;fillColor=none;spacing=5;spacingTop=-20;whiteSpace=wrap;overflow=hidden;rounded=0;" vertex="1" parent="1">
          <mxGeometry x="200" y="650" width="590" height="50" as="geometry" />
        </mxCell>
        <object placeholders="1" c4Name="Admin Panel &#xa;(Single-Page Application) " c4Type="Container" c4Technology="e.g. Angular, JS" c4Description="Admin (stuff) facing user interface application" label="&lt;font style=&quot;font-size: 16px&quot;&gt;&lt;b&gt;%c4Name%&lt;/b&gt;&lt;/font&gt;&lt;div&gt;[%c4Type%: %c4Technology%]&lt;/div&gt;&lt;br&gt;&lt;div&gt;&lt;font style=&quot;font-size: 11px&quot;&gt;&lt;font color=&quot;#E6E6E6&quot;&gt;%c4Description%&lt;/font&gt;&lt;/div&gt;" id="LEJTtLvGyktiLUqfI7-7-1">
          <mxCell style="rounded=1;whiteSpace=wrap;html=1;fontSize=11;labelBackgroundColor=none;fillColor=#23A2D9;fontColor=#ffffff;align=center;arcSize=10;strokeColor=#0E7DAD;metaEdit=1;resizable=0;points=[[0.25,0,0],[0.5,0,0],[0.75,0,0],[1,0.25,0],[1,0.5,0],[1,0.75,0],[0.75,1,0],[0.5,1,0],[0.25,1,0],[0,0.75,0],[0,0.5,0],[0,0.25,0]];" vertex="1" parent="1">
            <mxGeometry x="280" y="40" width="240" height="120" as="geometry" />
          </mxCell>
        </object>
        <mxCell id="LEJTtLvGyktiLUqfI7-7-4" style="rounded=0;orthogonalLoop=1;jettySize=auto;html=1;exitX=0.5;exitY=1;exitDx=0;exitDy=0;exitPerimeter=0;entryX=0.5;entryY=0;entryDx=0;entryDy=0;entryPerimeter=0;" edge="1" parent="1" source="LEJTtLvGyktiLUqfI7-7-2" target="LEJTtLvGyktiLUqfI7-7-3">
          <mxGeometry relative="1" as="geometry" />
        </mxCell>
        <mxCell id="LEJTtLvGyktiLUqfI7-7-6" value="Store Event data" style="edgeLabel;html=1;align=center;verticalAlign=middle;resizable=0;points=[];" vertex="1" connectable="0" parent="LEJTtLvGyktiLUqfI7-7-4">
          <mxGeometry x="-0.32" y="3" relative="1" as="geometry">
            <mxPoint as="offset" />
          </mxGeometry>
        </mxCell>
        <object placeholders="1" c4Name="Analytics Event Consumer" c4Type="Component" c4Technology="e.g. Spring Service, String MVC" c4Description="Generate report according to criteria" label="&lt;font style=&quot;font-size: 16px&quot;&gt;&lt;b&gt;%c4Name%&lt;/b&gt;&lt;/font&gt;&lt;div&gt;[%c4Type%: %c4Technology%]&lt;/div&gt;&lt;br&gt;&lt;div&gt;&lt;font style=&quot;font-size: 11px&quot;&gt;%c4Description%&lt;/font&gt;&lt;/div&gt;" id="LEJTtLvGyktiLUqfI7-7-2">
          <mxCell style="rounded=1;whiteSpace=wrap;html=1;labelBackgroundColor=none;fillColor=#63BEF2;fontColor=#ffffff;align=center;arcSize=6;strokeColor=#2086C9;metaEdit=1;resizable=0;points=[[0.25,0,0],[0.5,0,0],[0.75,0,0],[1,0.25,0],[1,0.5,0],[1,0.75,0],[0.75,1,0],[0.5,1,0],[0.25,1,0],[0,0.75,0],[0,0.5,0],[0,0.25,0]];" vertex="1" parent="1">
            <mxGeometry x="600" y="270" width="240" height="120" as="geometry" />
          </mxCell>
        </object>
        <object placeholders="1" c4Type="Analytics Database" c4Container="Container" c4Technology="e.g. Oracle Database 12" c4Description="Contains data retrieved from Analytics Event" label="&lt;font style=&quot;font-size: 16px&quot;&gt;&lt;b&gt;%c4Type%&lt;/b&gt;&lt;/font&gt;&lt;div&gt;[%c4Container%:&amp;nbsp;%c4Technology%]&lt;/div&gt;&lt;br&gt;&lt;div&gt;&lt;font style=&quot;font-size: 11px&quot;&gt;&lt;font color=&quot;#E6E6E6&quot;&gt;%c4Description%&lt;/font&gt;&lt;/div&gt;" id="LEJTtLvGyktiLUqfI7-7-3">
          <mxCell style="shape=cylinder3;size=15;whiteSpace=wrap;html=1;boundedLbl=1;rounded=0;labelBackgroundColor=none;fillColor=#23A2D9;fontSize=12;fontColor=#ffffff;align=center;strokeColor=#0E7DAD;metaEdit=1;points=[[0.5,0,0],[1,0.25,0],[1,0.5,0],[1,0.75,0],[0.5,1,0],[0,0.75,0],[0,0.5,0],[0,0.25,0]];resizable=0;" vertex="1" parent="1">
            <mxGeometry x="440" y="470" width="240" height="120" as="geometry" />
          </mxCell>
        </object>
        <mxCell id="jnQxHiGbWsAg8tvLw6Ub-2" style="edgeStyle=orthogonalEdgeStyle;rounded=0;orthogonalLoop=1;jettySize=auto;html=1;entryX=0.5;entryY=0;entryDx=0;entryDy=0;entryPerimeter=0;" edge="1" parent="1" source="jnQxHiGbWsAg8tvLw6Ub-1" target="LEJTtLvGyktiLUqfI7-7-2">
          <mxGeometry relative="1" as="geometry" />
        </mxCell>
        <mxCell id="jnQxHiGbWsAg8tvLw6Ub-3" value="Subscription" style="edgeLabel;html=1;align=center;verticalAlign=middle;resizable=0;points=[];" vertex="1" connectable="0" parent="jnQxHiGbWsAg8tvLw6Ub-2">
          <mxGeometry x="-0.3089" y="-1" relative="1" as="geometry">
            <mxPoint as="offset" />
          </mxGeometry>
        </mxCell>
        <mxCell id="jnQxHiGbWsAg8tvLw6Ub-1" value="" style="sketch=0;outlineConnect=0;fontColor=#232F3E;gradientColor=none;fillColor=#B0084D;strokeColor=none;dashed=0;verticalLabelPosition=bottom;verticalAlign=top;align=center;html=1;fontSize=12;fontStyle=0;aspect=fixed;pointerEvents=1;shape=mxgraph.aws4.queue;" vertex="1" parent="1">
          <mxGeometry x="681" y="113" width="78" height="47" as="geometry" />
        </mxCell>
      </root>
    </mxGraphModel>
  </diagram>
  <diagram id="xj8qkudbzYNwFRi7NdYi" name="C4-Component-WarehouseService">
    <mxGraphModel dx="1434" dy="956" grid="1" gridSize="10" guides="1" tooltips="1" connect="1" arrows="1" fold="1" page="1" pageScale="1" pageWidth="1169" pageHeight="1654" math="0" shadow="0">
      <root>
        <mxCell id="0" />
        <mxCell id="1" parent="0" />
        <object placeholders="1" c4Name="Warehouse Service" c4Type="SystemScopeBoundary" c4Application="Container" label="&lt;font style=&quot;font-size: 16px&quot;&gt;&lt;b&gt;&lt;div style=&quot;text-align: left&quot;&gt;%c4Name%&lt;/div&gt;&lt;/b&gt;&lt;/font&gt;&lt;div style=&quot;text-align: left&quot;&gt;[%c4Application%]&lt;/div&gt;" id="fZpkaZG3w39L33brOLxQ-1">
          <mxCell style="rounded=1;fontSize=11;whiteSpace=wrap;html=1;dashed=1;arcSize=20;fillColor=none;strokeColor=#666666;fontColor=#333333;labelBackgroundColor=none;align=left;verticalAlign=bottom;labelBorderColor=none;spacingTop=0;spacing=10;dashPattern=8 4;metaEdit=1;rotatable=0;perimeter=rectanglePerimeter;noLabel=0;labelPadding=0;allowArrows=0;connectable=0;expand=0;recursiveResize=0;editable=1;pointerEvents=0;absoluteArcSize=1;points=[[0.25,0,0],[0.5,0,0],[0.75,0,0],[1,0.25,0],[1,0.5,0],[1,0.75,0],[0.75,1,0],[0.5,1,0],[0.25,1,0],[0,0.75,0],[0,0.5,0],[0,0.25,0]];" vertex="1" parent="1">
            <mxGeometry x="200" y="280" width="400" height="390" as="geometry" />
          </mxCell>
        </object>
        <mxCell id="fZpkaZG3w39L33brOLxQ-2" style="rounded=0;orthogonalLoop=1;jettySize=auto;html=1;exitX=0.5;exitY=1;exitDx=0;exitDy=0;exitPerimeter=0;entryX=0.5;entryY=0;entryDx=0;entryDy=0;entryPerimeter=0;dashed=1;" edge="1" parent="1" source="fZpkaZG3w39L33brOLxQ-4" target="fZpkaZG3w39L33brOLxQ-8">
          <mxGeometry relative="1" as="geometry" />
        </mxCell>
        <mxCell id="fZpkaZG3w39L33brOLxQ-3" value="Read" style="edgeLabel;html=1;align=center;verticalAlign=middle;resizable=0;points=[];" vertex="1" connectable="0" parent="fZpkaZG3w39L33brOLxQ-2">
          <mxGeometry x="0.3892" y="-1" relative="1" as="geometry">
            <mxPoint x="-43" y="-52" as="offset" />
          </mxGeometry>
        </mxCell>
        <object placeholders="1" c4Name="Customer Panel &#xa;(Single-Page Application) " c4Type="Container" c4Technology="e.g. Angular, JS" c4Description="Customer facing user interface application" label="&lt;font style=&quot;font-size: 16px&quot;&gt;&lt;b&gt;%c4Name%&lt;/b&gt;&lt;/font&gt;&lt;div&gt;[%c4Type%: %c4Technology%]&lt;/div&gt;&lt;br&gt;&lt;div&gt;&lt;font style=&quot;font-size: 11px&quot;&gt;&lt;font color=&quot;#E6E6E6&quot;&gt;%c4Description%&lt;/font&gt;&lt;/div&gt;" id="fZpkaZG3w39L33brOLxQ-4">
          <mxCell style="rounded=1;whiteSpace=wrap;html=1;fontSize=11;labelBackgroundColor=none;fillColor=#23A2D9;fontColor=#ffffff;align=center;arcSize=10;strokeColor=#0E7DAD;metaEdit=1;resizable=0;points=[[0.25,0,0],[0.5,0,0],[0.75,0,0],[1,0.25,0],[1,0.5,0],[1,0.75,0],[0.75,1,0],[0.5,1,0],[0.25,1,0],[0,0.75,0],[0,0.5,0],[0,0.25,0]];" vertex="1" parent="1">
            <mxGeometry x="160" y="40" width="240" height="120" as="geometry" />
          </mxCell>
        </object>
        <mxCell id="fZpkaZG3w39L33brOLxQ-5" style="rounded=0;orthogonalLoop=1;jettySize=auto;html=1;exitX=0.5;exitY=1;exitDx=0;exitDy=0;exitPerimeter=0;entryX=0.5;entryY=0;entryDx=0;entryDy=0;entryPerimeter=0;dashed=1;" edge="1" parent="1" source="fZpkaZG3w39L33brOLxQ-6" target="fZpkaZG3w39L33brOLxQ-8">
          <mxGeometry relative="1" as="geometry" />
        </mxCell>
        <object placeholders="1" c4Name="Admin Panel &#xa;(Single-Page Application) " c4Type="Container" c4Technology="e.g. Angular, JS" c4Description="Admin (stuff) facing user interface application" label="&lt;font style=&quot;font-size: 16px&quot;&gt;&lt;b&gt;%c4Name%&lt;/b&gt;&lt;/font&gt;&lt;div&gt;[%c4Type%: %c4Technology%]&lt;/div&gt;&lt;br&gt;&lt;div&gt;&lt;font style=&quot;font-size: 11px&quot;&gt;&lt;font color=&quot;#E6E6E6&quot;&gt;%c4Description%&lt;/font&gt;&lt;/div&gt;" id="fZpkaZG3w39L33brOLxQ-6">
          <mxCell style="rounded=1;whiteSpace=wrap;html=1;fontSize=11;labelBackgroundColor=none;fillColor=#23A2D9;fontColor=#ffffff;align=center;arcSize=10;strokeColor=#0E7DAD;metaEdit=1;resizable=0;points=[[0.25,0,0],[0.5,0,0],[0.75,0,0],[1,0.25,0],[1,0.5,0],[1,0.75,0],[0.75,1,0],[0.5,1,0],[0.25,1,0],[0,0.75,0],[0,0.5,0],[0,0.25,0]];" vertex="1" parent="1">
            <mxGeometry x="440" y="40" width="240" height="120" as="geometry" />
          </mxCell>
        </object>
        <mxCell id="fZpkaZG3w39L33brOLxQ-7" style="edgeStyle=orthogonalEdgeStyle;rounded=0;orthogonalLoop=1;jettySize=auto;html=1;exitX=0.5;exitY=1;exitDx=0;exitDy=0;exitPerimeter=0;" edge="1" parent="1" source="fZpkaZG3w39L33brOLxQ-8" target="fZpkaZG3w39L33brOLxQ-11">
          <mxGeometry relative="1" as="geometry" />
        </mxCell>
        <object placeholders="1" c4Name="Warehouse Item Controller" c4Type="Component" c4Technology="e.g. Spring Service" c4Description="CRUD for Warehouse Item" label="&lt;font style=&quot;font-size: 16px&quot;&gt;&lt;b&gt;%c4Name%&lt;/b&gt;&lt;/font&gt;&lt;div&gt;[%c4Type%: %c4Technology%]&lt;/div&gt;&lt;br&gt;&lt;div&gt;&lt;font style=&quot;font-size: 11px&quot;&gt;%c4Description%&lt;/font&gt;&lt;/div&gt;" id="fZpkaZG3w39L33brOLxQ-8">
          <mxCell style="rounded=1;whiteSpace=wrap;html=1;labelBackgroundColor=none;fillColor=#63BEF2;fontColor=#ffffff;align=center;arcSize=6;strokeColor=#2086C9;metaEdit=1;resizable=0;points=[[0.25,0,0],[0.5,0,0],[0.75,0,0],[1,0.25,0],[1,0.5,0],[1,0.75,0],[0.75,1,0],[0.5,1,0],[0.25,1,0],[0,0.75,0],[0,0.5,0],[0,0.25,0]];" vertex="1" parent="1">
            <mxGeometry x="280" y="320" width="240" height="120" as="geometry" />
          </mxCell>
        </object>
        <mxCell id="fZpkaZG3w39L33brOLxQ-9" value="&lt;h1&gt;[Component] Book Service - Warehouse Service&amp;nbsp;&lt;/h1&gt;" style="text;html=1;strokeColor=none;fillColor=none;spacing=5;spacingTop=-20;whiteSpace=wrap;overflow=hidden;rounded=0;" vertex="1" parent="1">
          <mxGeometry x="120" y="720" width="650" height="50" as="geometry" />
        </mxCell>
        <mxCell id="fZpkaZG3w39L33brOLxQ-10" value="Create, Read, Update, Delete" style="edgeLabel;html=1;align=center;verticalAlign=middle;resizable=0;points=[];" vertex="1" connectable="0" parent="1">
          <mxGeometry x="519.9986313883925" y="220.0048946417204" as="geometry" />
        </mxCell>
        <object placeholders="1" c4Type="Warehouse Item Database" c4Container="Database" c4Technology="e.g. Oracle Database 12" c4Description="Warehouse Item database" label="&lt;font style=&quot;font-size: 16px&quot;&gt;&lt;b&gt;%c4Type%&lt;/b&gt;&lt;/font&gt;&lt;div&gt;[%c4Container%:&amp;nbsp;%c4Technology%]&lt;/div&gt;&lt;br&gt;&lt;div&gt;&lt;font style=&quot;font-size: 11px&quot;&gt;&lt;font color=&quot;#E6E6E6&quot;&gt;%c4Description%&lt;/font&gt;&lt;/div&gt;" id="fZpkaZG3w39L33brOLxQ-11">
          <mxCell style="shape=cylinder3;size=15;whiteSpace=wrap;html=1;boundedLbl=1;rounded=0;labelBackgroundColor=none;fillColor=#23A2D9;fontSize=12;fontColor=#ffffff;align=center;strokeColor=#0E7DAD;metaEdit=1;points=[[0.5,0,0],[1,0.25,0],[1,0.5,0],[1,0.75,0],[0.5,1,0],[0,0.75,0],[0,0.5,0],[0,0.25,0]];resizable=0;" vertex="1" parent="1">
            <mxGeometry x="280" y="480" width="240" height="120" as="geometry" />
          </mxCell>
        </object>
      </root>
    </mxGraphModel>
  </diagram>
</mxfile>
